<!-- Generated by readme-aura https://github.com/collectioneur/readme-aura -->
<svg width="800" height="200" viewBox="0 0 800 200" xmlns="http://www.w3.org/2000/svg"><clipPath id="satori_cp-id"><path x="0" y="0" width="800" height="200" d="M20,0 h760 a20,20 0 0 1 20,20 v160 a20,20 0 0 1 -20,20 h-760 a20,20 0 0 1 -20,-20 v-160 a20,20 0 0 1 20,-20"/></clipPath><mask id="satori_om-id"><rect x="0" y="0" width="800" height="200" fill="#fff"/></mask><path x="0" y="0" width="800" height="200" fill="#08080d" d="M20,0 h760 a20,20 0 0 1 20,20 v160 a20,20 0 0 1 -20,20 h-760 a20,20 0 0 1 -20,-20 v-160 a20,20 0 0 1 20,-20"/><clipPath id="satori_cp-id-0" clip-path="url(#satori_cp-id)"><rect x="0" y="0" width="800" height="200"/></clipPath><mask id="satori_om-id-0"><rect x="0" y="0" width="800" height="200" fill="#fff" mask="url(#satori_om-id)"/></mask><svg x="0" y="0" width="800" height="200" preserveAspectRatio="none" clip-path="url(#satori_cp-id-0)" mask="url(#satori_om-id-0)"><defs><radialGradient id="sg1" cx="50%" cy="50%" r="50%"><stop offset="0%" stop-color="rgba(108,195,130,0.4)"></stop><stop offset="100%" stop-color="rgba(108,195,130,0)"></stop></radialGradient><radialGradient id="sg2" cx="50%" cy="50%" r="50%"><stop offset="0%" stop-color="rgba(230,100,115,0.35)"></stop><stop offset="100%" stop-color="rgba(230,100,115,0)"></stop></radialGradient><radialGradient id="sg3" cx="50%" cy="50%" r="50%"><stop offset="0%" stop-color="rgba(80,160,220,0.3)"></stop><stop offset="100%" stop-color="rgba(80,160,220,0)"></stop></radialGradient><radialGradient id="sg4" cx="50%" cy="50%" r="50%"><stop offset="0%" stop-color="rgba(195,155,255,0.3)"></stop><stop offset="100%" stop-color="rgba(195,155,255,0)"></stop></radialGradient></defs><ellipse id="st-o1" cx="80" cy="160" rx="160" ry="120" fill="url(#sg1)"></ellipse><ellipse id="st-o2" cx="730" cy="50" rx="150" ry="120" fill="url(#sg2)"></ellipse><ellipse id="st-o3" cx="640" cy="170" rx="140" ry="110" fill="url(#sg3)"></ellipse><ellipse id="st-o4" cx="180" cy="40" rx="130" ry="100" fill="url(#sg4)"></ellipse><style>

    @keyframes stack-orb { 0%, 100% { transform: translate(0,0); opacity: 0.45; } 50% { transform: translate(18px,-14px); opacity: 0.7; } }
    @keyframes stack-orb-b { 0%, 100% { transform: translate(0,0); opacity: 0.4; } 50% { transform: translate(-14px,10px); opacity: 0.65; } }
    @keyframes chip-appear { 0% { opacity: 0; transform: translateY(8px); } 100% { opacity: 1; transform: translateY(0); } }
    #st-o1 { animation: stack-orb 10s ease-in-out infinite; }
    #st-o2 { animation: stack-orb-b 12s ease-in-out infinite 1s; }
    #st-o3 { animation: stack-orb 9s ease-in-out infinite 2.5s; }
    #st-o4 { animation: stack-orb-b 11s ease-in-out infinite 0.5s; }
  
</style>
</svg><mask id="satori_om-id-0-0"><rect x="0" y="0" width="0" height="200" fill="#fff" mask="url(#satori_om-id)"/></mask><mask id="satori_om-id-0-0-0"><rect x="0" y="0" width="0" height="200" fill="#fff" mask="url(#satori_om-id)"/></mask><mask id="satori_om-id-0-0-0-0"><rect x="0" y="0" width="0" height="200" fill="#fff" mask="url(#satori_om-id)"/></mask><mask id="satori_om-id-0-0-0-1"><rect x="0" y="0" width="0" height="200" fill="#fff" mask="url(#satori_om-id)"/></mask><mask id="satori_om-id-0-0-1"><rect x="0" y="0" width="0" height="200" fill="#fff" mask="url(#satori_om-id)"/></mask><mask id="satori_om-id-0-0-1-0"><rect x="0" y="0" width="0" height="200" fill="#fff" mask="url(#satori_om-id)"/></mask><mask id="satori_om-id-0-0-1-1"><rect x="0" y="0" width="0" height="200" fill="#fff" mask="url(#satori_om-id)"/></mask><mask id="satori_om-id-0-0-2"><rect x="0" y="0" width="0" height="200" fill="#fff" mask="url(#satori_om-id)"/></mask><mask id="satori_om-id-0-0-2-0"><rect x="0" y="0" width="0" height="200" fill="#fff" mask="url(#satori_om-id)"/></mask><mask id="satori_om-id-0-0-2-1"><rect x="0" y="0" width="0" height="200" fill="#fff" mask="url(#satori_om-id)"/></mask><mask id="satori_om-id-0-0-3"><rect x="0" y="0" width="0" height="200" fill="#fff" mask="url(#satori_om-id)"/></mask><mask id="satori_om-id-0-0-3-0"><rect x="0" y="0" width="0" height="200" fill="#fff" mask="url(#satori_om-id)"/></mask><mask id="satori_om-id-0-0-3-1"><rect x="0" y="0" width="0" height="200" fill="#fff" mask="url(#satori_om-id)"/></mask><mask id="satori_om-id-0-1"><rect x="0" y="0" width="0" height="200" fill="#fff" mask="url(#satori_om-id)"/></mask><mask id="satori_om-id-0-2"><rect x="0" y="0" width="0" height="200" fill="#fff" mask="url(#satori_om-id)"/></mask><mask id="satori_om-id-0-3"><rect x="0" y="0" width="0" height="200" fill="#fff" mask="url(#satori_om-id)"/></mask><mask id="satori_om-id-0-4"><rect x="0" y="0" width="0" height="200" fill="#fff" mask="url(#satori_om-id)"/></mask><mask id="satori_om-id-1"><rect x="371" y="68" width="58" height="13" fill="#fff" mask="url(#satori_om-id)"/></mask><g mask="url(#satori_om-id)" clip-path="url(#satori_cp-id)"><path fill="rgba(255,255,255,0.3)" d="M374.5 79.1L374.5 79.1Q373.7 79.1 373.0 78.9Q372.4 78.6 372.0 78.1Q371.7 77.6 371.6 76.9L371.6 76.9L372.7 76.9Q372.7 77.4 373.0 77.6Q373.2 77.9 373.7 78.1Q374.1 78.2 374.5 78.2L374.5 78.2Q375.1 78.2 375.5 78.0Q375.9 77.9 376.2 77.5Q376.4 77.2 376.4 76.8L376.4 76.8Q376.4 76.4 376.2 76.2Q376.0 75.9 375.6 75.8Q375.3 75.6 374.9 75.5L374.9 75.5L373.9 75.2Q372.9 75.0 372.4 74.4Q371.8 73.9 371.8 73.1L371.8 73.1Q371.8 72.5 372.2 72.0Q372.6 71.4 373.2 71.2Q373.8 70.9 374.6 70.9L374.6 70.9Q375.4 70.9 376.0 71.2Q376.6 71.4 377.0 71.9Q377.3 72.4 377.3 73.0L377.3 73.0L376.3 73.0Q376.3 72.4 375.8 72.1Q375.3 71.8 374.6 71.8L374.6 71.8Q374.1 71.8 373.7 72.0Q373.3 72.1 373.1 72.4Q372.8 72.7 372.8 73.1L372.8 73.1Q372.8 73.5 373.1 73.8Q373.4 74.0 373.7 74.2Q374.1 74.3 374.4 74.4L374.4 74.4L375.2 74.6Q375.5 74.7 375.9 74.8Q376.3 75.0 376.6 75.2Q377.0 75.5 377.2 75.9Q377.4 76.3 377.4 76.8L377.4 76.8Q377.4 77.5 377.1 78.0Q376.8 78.5 376.1 78.8Q375.5 79.1 374.5 79.1ZM385.1 71.9L382.6 71.9L382.6 71.0L388.6 71.0L388.6 71.9L386.1 71.9L386.1 79L385.1 79L385.1 71.9ZM394.5 79L393.4 79L396.3 71.0L397.5 71.0L400.5 79L399.4 79L398.6 76.8L395.3 76.8L394.5 79ZM395.6 75.9L398.3 75.9L397.7 74.3Q397.5 73.8 397.3 73.2L397.3 73.2Q397.2 72.6 396.9 71.8L396.9 71.8Q396.7 72.6 396.5 73.2L396.5 73.2Q396.3 73.8 396.2 74.3L396.2 74.3L395.6 75.9ZM409.0 79.1L409.0 79.1Q407.9 79.1 407.1 78.6Q406.3 78.1 405.9 77.2Q405.4 76.3 405.4 75.0L405.4 75.0Q405.4 73.7 405.9 72.8Q406.3 71.9 407.1 71.4Q407.9 70.9 409.0 70.9L409.0 70.9Q409.6 70.9 410.1 71.1Q410.6 71.2 411.1 71.6Q411.5 71.9 411.8 72.4Q412.1 72.9 412.2 73.5L412.2 73.5L411.2 73.5Q411.1 73.1 410.9 72.8Q410.7 72.5 410.4 72.3Q410.1 72.0 409.7 71.9Q409.3 71.8 409.0 71.8L409.0 71.8Q408.2 71.8 407.7 72.2Q407.1 72.6 406.7 73.3Q406.4 74.0 406.4 75.0L406.4 75.0Q406.4 76.0 406.7 76.7Q407.1 77.4 407.7 77.8Q408.2 78.2 409.0 78.2L409.0 78.2Q409.3 78.2 409.7 78.1Q410.1 77.9 410.4 77.7Q410.7 77.5 410.9 77.2Q411.1 76.9 411.2 76.5L411.2 76.5L412.2 76.5Q412.1 77.1 411.8 77.6Q411.5 78.1 411.1 78.4Q410.6 78.7 410.1 78.9Q409.6 79.1 409.0 79.1ZM418.8 79L417.7 79L417.7 71.0L418.8 71.0L418.8 73.7L418.8 75.2Q418.9 75.1 419.0 74.9L419.0 74.9Q419.3 74.6 419.5 74.2Q419.8 73.9 420.1 73.6L420.1 73.6L422.5 71.0L423.9 71.0L420.6 74.5L423.9 79L422.7 79L419.9 75.2L418.8 76.4L418.8 79Z "/></g><mask id="satori_om-id-2"><rect x="132" y="101" width="536" height="31" fill="#fff" mask="url(#satori_om-id)"/></mask><defs><clipPath id="satori_bc-id-2-0" clip-path="url(#satori_cp-id)"><path x="132" y="101" width="104" height="31" d="M147.5,101 h73 a15.5,15.5 0 0 1 15.5,15.5 v0 a15.5,15.5 0 0 1 -15.5,15.5 h-73 a15.5,15.5 0 0 1 -15.5,-15.5 v0 a15.5,15.5 0 0 1 15.5,-15.5"/></clipPath></defs><mask id="satori_om-id-2-0"><rect x="133" y="102" width="102" height="29" fill="#fff" mask="url(#satori_om-id)"/><path width="104" height="31" fill="none" stroke="#000" stroke-width="2" d="M136.54,105.53999999999999 A15.5,15.5 0 0 1 147.5,101 h73 a15.5,15.5 0 0 1 15.5,15.5 v0 a15.5,15.5 0 0 1 -15.5,15.5 h-73 a15.5,15.5 0 0 1 -15.5,-15.5 v0 A15.5,15.5 0 0 1 136.54,105.53999999999999"/></mask><path x="132" y="101" width="104" height="31" fill="rgba(255,255,255,0.04)" d="M147.5,101 h73 a15.5,15.5 0 0 1 15.5,15.5 v0 a15.5,15.5 0 0 1 -15.5,15.5 h-73 a15.5,15.5 0 0 1 -15.5,-15.5 v0 a15.5,15.5 0 0 1 15.5,-15.5" clip-path="url(#satori_cp-id)" mask="url(#satori_om-id)"/><path width="104" height="31" clip-path="url(#satori_bc-id-2-0)" fill="none" stroke="rgba(255,255,255,0.08)" stroke-width="2" d="M136.54,105.53999999999999 A15.5,15.5 0 0 1 147.5,101 h73 a15.5,15.5 0 0 1 15.5,15.5 v0 a15.5,15.5 0 0 1 -15.5,15.5 h-73 a15.5,15.5 0 0 1 -15.5,-15.5 v0 A15.5,15.5 0 0 1 136.54,105.53999999999999"/><g mask="url(#satori_om-id)" clip-path="url(#satori_cp-id)"><path fill="rgba(255,255,255,0.65)" d="M154.2 121.1L154.2 121.1Q153.0 121.1 152.3 120.4Q151.6 119.8 151.6 118.5L151.6 118.5L151.6 118.0L152.7 118.0L152.7 118.5Q152.7 119.3 153.1 119.7Q153.5 120.1 154.2 120.1L154.2 120.1Q154.9 120.1 155.3 119.7Q155.7 119.3 155.7 118.5L155.7 118.5L155.7 112.3L156.8 112.3L156.8 118.5Q156.8 119.8 156.1 120.4Q155.3 121.1 154.2 121.1ZM161.1 121.2L161.1 121.2Q160.5 121.2 160.0 120.9Q159.5 120.7 159.2 120.2Q158.9 119.8 158.9 119.1L158.9 119.1Q158.9 118.6 159.1 118.2Q159.3 117.9 159.7 117.7Q160.1 117.5 160.5 117.4Q161.0 117.3 161.4 117.2L161.4 117.2Q162.0 117.1 162.4 117.1Q162.8 117.1 162.9 117.0Q163.1 116.9 163.1 116.6L163.1 116.6L163.1 116.6Q163.1 116.2 163.0 115.9Q162.8 115.6 162.5 115.4Q162.2 115.3 161.7 115.3L161.7 115.3Q161.3 115.3 160.9 115.4Q160.6 115.6 160.4 115.8Q160.2 116.0 160.1 116.3L160.1 116.3L159.1 115.9Q159.3 115.3 159.7 115.0Q160.2 114.6 160.7 114.5Q161.2 114.4 161.7 114.4L161.7 114.4Q162.0 114.4 162.5 114.4Q162.9 114.5 163.3 114.8Q163.7 115.0 163.9 115.5Q164.2 115.9 164.2 116.7L164.2 116.7L164.2 121L163.1 121L163.1 120.1L163.1 120.1Q162.9 120.3 162.7 120.6Q162.5 120.8 162.1 121.0Q161.7 121.2 161.1 121.2ZM161.3 120.2L161.3 120.2Q161.9 120.2 162.3 120.0Q162.7 119.8 162.9 119.4Q163.1 119.0 163.1 118.6L163.1 118.6L163.1 117.7Q163.0 117.8 162.8 117.9Q162.6 117.9 162.3 118.0Q162.1 118.0 161.8 118.0Q161.5 118.1 161.4 118.1L161.4 118.1Q161.0 118.1 160.7 118.3Q160.3 118.4 160.1 118.6Q159.9 118.8 159.9 119.2L159.9 119.2Q159.9 119.5 160.1 119.8Q160.3 120.0 160.6 120.1Q160.9 120.2 161.3 120.2ZM169.5 121L168.4 121L165.9 114.4L167.1 114.4L168.5 118.3Q168.7 118.9 168.8 119.5L168.8 119.5Q168.9 119.8 169.0 120.0L169.0 120.0Q169.0 119.8 169.1 119.5L169.1 119.5Q169.3 118.9 169.5 118.3L169.5 118.3L170.9 114.4L172.0 114.4L169.5 121ZM175.6 121.2L175.6 121.2Q175.0 121.2 174.5 120.9Q174.0 120.7 173.7 120.2Q173.4 119.8 173.4 119.1L173.4 119.1Q173.4 118.6 173.6 118.2Q173.8 117.9 174.2 117.7Q174.5 117.5 175 117.4Q175.5 117.3 175.9 117.2L175.9 117.2Q176.5 117.1 176.9 117.1Q177.2 117.1 177.4 117.0Q177.6 116.9 177.6 116.6L177.6 116.6L177.6 116.6Q177.6 116.2 177.4 115.9Q177.3 115.6 177.0 115.4Q176.7 115.3 176.2 115.3L176.2 115.3Q175.8 115.3 175.4 115.4Q175.1 115.6 174.9 115.8Q174.7 116.0 174.6 116.3L174.6 116.3L173.5 115.9Q173.8 115.3 174.2 115.0Q174.7 114.6 175.2 114.5Q175.7 114.4 176.2 114.4L176.2 114.4Q176.5 114.4 176.9 114.4Q177.4 114.5 177.7 114.8Q178.1 115.0 178.4 115.5Q178.6 115.9 178.6 116.7L178.6 116.7L178.6 121L177.6 121L177.6 120.1L177.5 120.1Q177.4 120.3 177.2 120.6Q176.9 120.8 176.5 121.0Q176.1 121.2 175.6 121.2ZM175.8 120.2L175.8 120.2Q176.4 120.2 176.8 120.0Q177.2 119.8 177.4 119.4Q177.6 119.0 177.6 118.6L177.6 118.6L177.6 117.7Q177.5 117.8 177.3 117.9Q177.1 117.9 176.8 118.0Q176.5 118.0 176.3 118.0Q176.0 118.1 175.9 118.1L175.9 118.1Q175.5 118.1 175.1 118.3Q174.8 118.4 174.6 118.6Q174.4 118.8 174.4 119.2L174.4 119.2Q174.4 119.5 174.6 119.8Q174.8 120.0 175.1 120.1Q175.4 120.2 175.8 120.2ZM183.9 121.2L183.9 121.2Q183.0 121.2 182.3 120.8Q181.6 120.5 181.2 120.0Q180.8 119.4 180.8 118.7L180.8 118.7L181.9 118.7Q181.9 119.2 182.2 119.5Q182.5 119.8 183.0 120.0Q183.4 120.2 183.9 120.2L183.9 120.2Q184.5 120.2 185.0 120.0Q185.5 119.8 185.7 119.4Q186.0 119.1 186.0 118.6L186.0 118.6Q186.0 118.2 185.8 117.9Q185.5 117.7 185.1 117.5Q184.7 117.3 184.3 117.2L184.3 117.2L183.2 116.9Q182.2 116.6 181.6 116.0Q181.0 115.5 181.0 114.6L181.0 114.6Q181.0 113.9 181.4 113.3Q181.8 112.8 182.5 112.5Q183.2 112.2 184.0 112.2L184.0 112.2Q184.9 112.2 185.5 112.5Q186.2 112.8 186.6 113.3Q186.9 113.8 187.0 114.5L187.0 114.5L185.9 114.5Q185.8 113.8 185.3 113.5Q184.7 113.1 184.0 113.1L184.0 113.1Q183.4 113.1 183.0 113.3Q182.5 113.5 182.3 113.8Q182.1 114.1 182.1 114.6L182.1 114.6Q182.1 115.0 182.4 115.3Q182.6 115.6 183.0 115.7Q183.4 115.9 183.7 116.0L183.7 116.0L184.6 116.2Q185.0 116.3 185.4 116.5Q185.8 116.6 186.2 116.9Q186.6 117.2 186.8 117.6Q187.1 118.0 187.1 118.6L187.1 118.6Q187.1 119.3 186.7 119.9Q186.3 120.5 185.6 120.8Q184.9 121.2 183.9 121.2ZM191.9 121.1L191.9 121.1Q191.0 121.1 190.3 120.7Q189.6 120.3 189.3 119.5Q188.9 118.8 188.9 117.8L188.9 117.8Q188.9 116.7 189.3 116.0Q189.6 115.2 190.3 114.8Q191.0 114.4 191.9 114.4L191.9 114.4Q192.3 114.4 192.8 114.5Q193.2 114.6 193.5 114.8Q193.9 115.1 194.1 115.4Q194.4 115.8 194.5 116.2L194.5 116.2L193.5 116.5Q193.4 116.2 193.3 116.0Q193.1 115.8 192.9 115.6Q192.7 115.5 192.5 115.4Q192.2 115.3 191.9 115.3L191.9 115.3Q191.2 115.3 190.8 115.7Q190.4 116.0 190.2 116.6Q190.0 117.1 190.0 117.8L190.0 117.8Q190.0 118.4 190.2 119.0Q190.4 119.5 190.8 119.9Q191.2 120.2 191.9 120.2L191.9 120.2Q192.2 120.2 192.5 120.1Q192.7 120.0 193.0 119.9Q193.2 119.7 193.3 119.5Q193.5 119.3 193.5 119.0L193.5 119.0L194.5 119.3Q194.4 119.7 194.2 120.1Q193.9 120.4 193.5 120.6Q193.2 120.9 192.8 121.0Q192.3 121.1 191.9 121.1ZM197.6 121L196.6 121L196.6 114.4L197.6 114.4L197.6 115.5L197.6 115.5Q197.8 115.0 198.3 114.7Q198.8 114.4 199.3 114.4L199.3 114.4Q199.5 114.4 199.6 114.4Q199.8 114.4 199.9 114.4L199.9 114.4L199.9 115.4Q199.8 115.4 199.6 115.4Q199.5 115.4 199.2 115.4L199.2 115.4Q198.8 115.4 198.4 115.6Q198.0 115.8 197.8 116.1Q197.6 116.5 197.6 116.9L197.6 116.9L197.6 121ZM202.6 121L201.6 121L201.6 114.4L202.6 114.4L202.6 121ZM202.1 113.4L202.1 113.4Q201.8 113.4 201.6 113.2Q201.4 113.0 201.4 112.7L201.4 112.7Q201.4 112.4 201.6 112.2Q201.8 112.0 202.1 112.0L202.1 112.0Q202.4 112.0 202.6 112.2Q202.8 112.4 202.8 112.7L202.8 112.7Q202.8 113.0 202.6 113.2Q202.4 113.4 202.1 113.4ZM206.0 123.4L205.0 123.4L205.0 114.4L206.0 114.4L206.0 115.5L206.1 115.5Q206.2 115.3 206.4 115.1Q206.6 114.8 207.0 114.6Q207.4 114.4 208.0 114.4L208.0 114.4Q208.8 114.4 209.5 114.8Q210.1 115.2 210.4 115.9Q210.8 116.7 210.8 117.7L210.8 117.7Q210.8 118.8 210.4 119.5Q210.1 120.3 209.5 120.7Q208.8 121.1 208.0 121.1L208.0 121.1Q207.4 121.1 207.0 120.9Q206.6 120.7 206.4 120.4Q206.2 120.2 206.1 120.0L206.1 120.0L206.0 120.0L206.0 123.4ZM207.9 120.2L207.9 120.2Q208.5 120.2 208.9 119.9Q209.3 119.5 209.5 119.0Q209.7 118.4 209.7 117.7L209.7 117.7Q209.7 117.1 209.5 116.5Q209.3 116.0 208.9 115.6Q208.5 115.3 207.9 115.3L207.9 115.3Q207.3 115.3 206.8 115.6Q206.4 115.9 206.2 116.5Q206.0 117.0 206.0 117.7L206.0 117.7Q206.0 118.5 206.2 119.0Q206.4 119.6 206.9 119.9Q207.3 120.2 207.9 120.2ZM214.1 114.4L215.4 114.4L215.4 115.4L214.1 115.4L214.1 119.3Q214.1 119.7 214.2 119.9Q214.4 120.1 214.8 120.1L214.8 120.1Q214.9 120.1 215.1 120.1Q215.2 120.1 215.4 120.1L215.4 120.1L215.6 121.0Q215.4 121.0 215.2 121.1Q215.0 121.1 214.8 121.1L214.8 121.1Q213.9 121.1 213.5 120.6Q213.0 120.2 213.0 119.4L213.0 119.4L213.0 115.4L212.0 115.4L212.0 114.4L213.0 114.4L213.0 112.9L214.1 112.9L214.1 114.4Z "/></g><defs><clipPath id="satori_bc-id-2-1" clip-path="url(#satori_cp-id)"><path x="246" y="101" width="75" height="31" d="M261.5,101 h44 a15.5,15.5 0 0 1 15.5,15.5 v0 a15.5,15.5 0 0 1 -15.5,15.5 h-44 a15.5,15.5 0 0 1 -15.5,-15.5 v0 a15.5,15.5 0 0 1 15.5,-15.5"/></clipPath></defs><mask id="satori_om-id-2-1"><rect x="247" y="102" width="73" height="29" fill="#fff" mask="url(#satori_om-id)"/><path width="75" height="31" fill="none" stroke="#000" stroke-width="2" d="M250.54,105.53999999999999 A15.5,15.5 0 0 1 261.5,101 h44 a15.5,15.5 0 0 1 15.5,15.5 v0 a15.5,15.5 0 0 1 -15.5,15.5 h-44 a15.5,15.5 0 0 1 -15.5,-15.5 v0 A15.5,15.5 0 0 1 250.54,105.53999999999999"/></mask><path x="246" y="101" width="75" height="31" fill="rgba(255,255,255,0.04)" d="M261.5,101 h44 a15.5,15.5 0 0 1 15.5,15.5 v0 a15.5,15.5 0 0 1 -15.5,15.5 h-44 a15.5,15.5 0 0 1 -15.5,-15.5 v0 a15.5,15.5 0 0 1 15.5,-15.5" clip-path="url(#satori_cp-id)" mask="url(#satori_om-id)"/><path width="75" height="31" clip-path="url(#satori_bc-id-2-1)" fill="none" stroke="rgba(255,255,255,0.08)" stroke-width="2" d="M250.54,105.53999999999999 A15.5,15.5 0 0 1 261.5,101 h44 a15.5,15.5 0 0 1 15.5,15.5 v0 a15.5,15.5 0 0 1 -15.5,15.5 h-44 a15.5,15.5 0 0 1 -15.5,-15.5 v0 A15.5,15.5 0 0 1 250.54,105.53999999999999"/><g mask="url(#satori_om-id)" clip-path="url(#satori_cp-id)"><path fill="rgba(255,255,255,0.65)" d="M267.2 121L266.1 121L266.1 112.3L267.2 112.3L267.2 116.0L271.8 116.0L271.8 112.3L272.9 112.3L272.9 121L271.8 121L271.8 117.0L267.2 117.0L267.2 121ZM277.7 113.3L275.0 113.3L275.0 112.3L281.6 112.3L281.6 113.3L278.9 113.3L278.9 121L277.7 121L277.7 113.3ZM284.8 121L283.7 121L283.7 112.3L285.3 112.3L287.5 117.8Q287.5 118.0 287.6 118.3Q287.7 118.6 287.8 118.9Q287.9 119.2 288.0 119.6L288.0 119.6Q288.1 119.7 288.1 119.8L288.1 119.8Q288.1 119.7 288.1 119.6L288.1 119.6Q288.2 119.3 288.4 118.9Q288.5 118.6 288.6 118.3Q288.7 118.0 288.7 117.8L288.7 117.8L290.9 112.3L292.4 112.3L292.4 121L291.4 121L291.4 116.0Q291.4 115.7 291.4 115.4Q291.4 115.1 291.4 114.7Q291.4 114.3 291.4 113.9L291.4 113.9Q291.4 113.7 291.4 113.5L291.4 113.5Q291.3 113.7 291.2 114.0L291.2 114.0Q291.1 114.4 291.0 114.8Q290.8 115.2 290.7 115.5Q290.6 115.8 290.5 116.0L290.5 116.0L288.6 121L287.6 121L285.6 116.0Q285.5 115.8 285.4 115.5Q285.3 115.2 285.2 114.8Q285.0 114.4 284.9 114.0L284.9 114.0Q284.8 113.7 284.7 113.5L284.7 113.5Q284.7 113.7 284.8 113.8L284.8 113.8Q284.8 114.2 284.8 114.6Q284.8 115.0 284.8 115.4Q284.8 115.7 284.8 116.0L284.8 116.0L284.8 121ZM300.2 121L295.1 121L295.1 112.3L296.2 112.3L296.2 120.0L300.2 120.0L300.2 121Z "/></g><defs><clipPath id="satori_bc-id-2-2" clip-path="url(#satori_cp-id)"><path x="331" y="101" width="64" height="31" d="M346.5,101 h33 a15.5,15.5 0 0 1 15.5,15.5 v0 a15.5,15.5 0 0 1 -15.5,15.5 h-33 a15.5,15.5 0 0 1 -15.5,-15.5 v0 a15.5,15.5 0 0 1 15.5,-15.5"/></clipPath></defs><mask id="satori_om-id-2-2"><rect x="332" y="102" width="62" height="29" fill="#fff" mask="url(#satori_om-id)"/><path width="64" height="31" fill="none" stroke="#000" stroke-width="2" d="M335.54,105.53999999999999 A15.5,15.5 0 0 1 346.5,101 h33 a15.5,15.5 0 0 1 15.5,15.5 v0 a15.5,15.5 0 0 1 -15.5,15.5 h-33 a15.5,15.5 0 0 1 -15.5,-15.5 v0 A15.5,15.5 0 0 1 335.54,105.53999999999999"/></mask><path x="331" y="101" width="64" height="31" fill="rgba(255,255,255,0.04)" d="M346.5,101 h33 a15.5,15.5 0 0 1 15.5,15.5 v0 a15.5,15.5 0 0 1 -15.5,15.5 h-33 a15.5,15.5 0 0 1 -15.5,-15.5 v0 a15.5,15.5 0 0 1 15.5,-15.5" clip-path="url(#satori_cp-id)" mask="url(#satori_om-id)"/><path width="64" height="31" clip-path="url(#satori_bc-id-2-2)" fill="none" stroke="rgba(255,255,255,0.08)" stroke-width="2" d="M335.54,105.53999999999999 A15.5,15.5 0 0 1 346.5,101 h33 a15.5,15.5 0 0 1 15.5,15.5 v0 a15.5,15.5 0 0 1 -15.5,15.5 h-33 a15.5,15.5 0 0 1 -15.5,-15.5 v0 A15.5,15.5 0 0 1 335.54,105.53999999999999"/><g mask="url(#satori_om-id)" clip-path="url(#satori_cp-id)"><path fill="rgba(255,255,255,0.65)" d="M352.2 121L351.1 121L351.1 112.3L354.0 112.3Q355.1 112.3 355.7 112.6Q356.4 113.0 356.7 113.6Q357.0 114.3 357.0 115.0Q357.0 115.8 356.7 116.5Q356.4 117.1 355.7 117.5Q355.1 117.8 354.0 117.8L354.0 117.8L352.2 117.8L352.2 121ZM352.2 113.2L352.2 116.9L354.0 116.9Q354.7 116.9 355.1 116.6Q355.5 116.4 355.7 116.0Q355.9 115.6 355.9 115.0Q355.9 114.5 355.7 114.1Q355.5 113.7 355.1 113.5Q354.7 113.2 354.0 113.2L354.0 113.2L352.2 113.2ZM360.3 121L359.2 121L359.2 112.3L360.3 112.3L360.3 116.0L364.9 116.0L364.9 112.3L366.0 112.3L366.0 121L364.9 121L364.9 117.0L360.3 117.0L360.3 121ZM369.8 121L368.6 121L368.6 112.3L371.6 112.3Q372.6 112.3 373.3 112.6Q374.0 113.0 374.3 113.6Q374.6 114.3 374.6 115.0Q374.6 115.8 374.3 116.5Q374.0 117.1 373.3 117.5Q372.7 117.8 371.6 117.8L371.6 117.8L369.8 117.8L369.8 121ZM369.8 113.2L369.8 116.9L371.6 116.9Q372.3 116.9 372.7 116.6Q373.1 116.4 373.3 116.0Q373.5 115.6 373.5 115.0Q373.5 114.5 373.3 114.1Q373.1 113.7 372.7 113.5Q372.3 113.2 371.6 113.2L371.6 113.2L369.8 113.2Z "/></g><defs><clipPath id="satori_bc-id-2-3" clip-path="url(#satori_cp-id)"><path x="405" y="101" width="106" height="31" d="M420.5,101 h75 a15.5,15.5 0 0 1 15.5,15.5 v0 a15.5,15.5 0 0 1 -15.5,15.5 h-75 a15.5,15.5 0 0 1 -15.5,-15.5 v0 a15.5,15.5 0 0 1 15.5,-15.5"/></clipPath></defs><mask id="satori_om-id-2-3"><rect x="406" y="102" width="104" height="29" fill="#fff" mask="url(#satori_om-id)"/><path width="106" height="31" fill="none" stroke="#000" stroke-width="2" d="M409.54,105.53999999999999 A15.5,15.5 0 0 1 420.5,101 h75 a15.5,15.5 0 0 1 15.5,15.5 v0 a15.5,15.5 0 0 1 -15.5,15.5 h-75 a15.5,15.5 0 0 1 -15.5,-15.5 v0 A15.5,15.5 0 0 1 409.54,105.53999999999999"/></mask><path x="405" y="101" width="106" height="31" fill="rgba(255,255,255,0.04)" d="M420.5,101 h75 a15.5,15.5 0 0 1 15.5,15.5 v0 a15.5,15.5 0 0 1 -15.5,15.5 h-75 a15.5,15.5 0 0 1 -15.5,-15.5 v0 a15.5,15.5 0 0 1 15.5,-15.5" clip-path="url(#satori_cp-id)" mask="url(#satori_om-id)"/><path width="106" height="31" clip-path="url(#satori_bc-id-2-3)" fill="none" stroke="rgba(255,255,255,0.08)" stroke-width="2" d="M409.54,105.53999999999999 A15.5,15.5 0 0 1 420.5,101 h75 a15.5,15.5 0 0 1 15.5,15.5 v0 a15.5,15.5 0 0 1 -15.5,15.5 h-75 a15.5,15.5 0 0 1 -15.5,-15.5 v0 A15.5,15.5 0 0 1 409.54,105.53999999999999"/><g mask="url(#satori_om-id)" clip-path="url(#satori_cp-id)"><path fill="rgba(255,255,255,0.65)" d="M427.3 113.3L424.6 113.3L424.6 112.3L431.2 112.3L431.2 113.3L428.4 113.3L428.4 121L427.3 121L427.3 113.3ZM433.1 123.4L433.1 123.4L433.3 122.5L433.4 122.5Q433.8 122.6 434.0 122.5Q434.3 122.5 434.5 122.3Q434.7 122.0 434.9 121.6L434.9 121.6L435.1 121.0L432.6 114.4L433.7 114.4L435.1 118.3Q435.3 118.9 435.5 119.5L435.5 119.5Q435.6 119.8 435.6 120.0L435.6 120.0Q435.7 119.8 435.8 119.5L435.8 119.5Q435.9 118.9 436.1 118.3L436.1 118.3L437.5 114.4L438.7 114.4L435.8 122.0Q435.6 122.5 435.3 122.8Q435.0 123.2 434.7 123.3Q434.3 123.5 433.8 123.5L433.8 123.5Q433.6 123.5 433.4 123.5Q433.1 123.4 433.1 123.4ZM441.5 123.4L440.4 123.4L440.4 114.4L441.4 114.4L441.4 115.5L441.6 115.5Q441.7 115.3 441.9 115.1Q442.1 114.8 442.4 114.6Q442.8 114.4 443.5 114.4L443.5 114.4Q444.3 114.4 444.9 114.8Q445.5 115.2 445.9 115.9Q446.2 116.7 446.2 117.7L446.2 117.7Q446.2 118.8 445.9 119.5Q445.5 120.3 444.9 120.7Q444.3 121.1 443.5 121.1L443.5 121.1Q442.8 121.1 442.5 120.9Q442.1 120.7 441.9 120.4Q441.7 120.2 441.6 120.0L441.6 120.0L441.5 120.0L441.5 123.4ZM443.3 120.2L443.3 120.2Q443.9 120.2 444.3 119.9Q444.7 119.5 444.9 119.0Q445.2 118.4 445.2 117.7L445.2 117.7Q445.2 117.1 445.0 116.5Q444.7 116.0 444.3 115.6Q443.9 115.3 443.3 115.3L443.3 115.3Q442.7 115.3 442.3 115.6Q441.9 115.9 441.7 116.5Q441.5 117.0 441.5 117.7L441.5 117.7Q441.5 118.5 441.7 119.0Q441.9 119.6 442.3 119.9Q442.7 120.2 443.3 120.2ZM451.0 121.1L451.0 121.1Q450.1 121.1 449.4 120.7Q448.7 120.3 448.3 119.5Q447.9 118.8 447.9 117.8Q447.9 116.8 448.3 116.0Q448.7 115.2 449.3 114.8Q450.0 114.4 450.9 114.4L450.9 114.4Q451.4 114.4 451.9 114.5Q452.4 114.7 452.8 115.1Q453.3 115.5 453.5 116.1Q453.7 116.7 453.7 117.6L453.7 117.6L453.7 118.1L449.0 118.1Q449.0 118.7 449.3 119.2L449.3 119.2Q449.5 119.7 450.0 119.9Q450.4 120.2 451.0 120.2L451.0 120.2Q451.4 120.2 451.7 120.1Q452.0 120.0 452.3 119.8Q452.5 119.5 452.6 119.2L452.6 119.2L453.6 119.5Q453.5 120.0 453.1 120.3Q452.8 120.7 452.2 120.9Q451.7 121.1 451.0 121.1ZM449.0 117.2L449.0 117.2L452.7 117.2Q452.6 116.7 452.5 116.4L452.5 116.4Q452.3 115.9 451.9 115.6Q451.5 115.3 450.9 115.3Q450.3 115.3 449.9 115.6Q449.5 115.9 449.2 116.3L449.2 116.3Q449.0 116.7 449.0 117.2ZM458.7 121.2L458.7 121.2Q457.7 121.2 457.0 120.8Q456.4 120.5 456.0 120.0Q455.6 119.4 455.5 118.7L455.5 118.7L456.7 118.7Q456.7 119.2 457.0 119.5Q457.3 119.8 457.7 120.0Q458.2 120.2 458.7 120.2L458.7 120.2Q459.3 120.2 459.7 120.0Q460.2 119.8 460.5 119.4Q460.8 119.1 460.8 118.6L460.8 118.6Q460.8 118.2 460.5 117.9Q460.3 117.7 459.9 117.5Q459.5 117.3 459.0 117.2L459.0 117.2L458.0 116.9Q456.9 116.6 456.3 116.0Q455.8 115.5 455.8 114.6L455.8 114.6Q455.8 113.9 456.2 113.3Q456.6 112.8 457.2 112.5Q457.9 112.2 458.8 112.2L458.8 112.2Q459.6 112.2 460.3 112.5Q460.9 112.8 461.3 113.3Q461.7 113.8 461.7 114.5L461.7 114.5L460.6 114.5Q460.6 113.8 460.0 113.5Q459.5 113.1 458.7 113.1L458.7 113.1Q458.2 113.1 457.7 113.3Q457.3 113.5 457.1 113.8Q456.8 114.1 456.8 114.6L456.8 114.6Q456.8 115.0 457.1 115.3Q457.4 115.6 457.8 115.7Q458.2 115.9 458.5 116.0L458.5 116.0L459.4 116.2Q459.7 116.3 460.2 116.5Q460.6 116.6 461.0 116.9Q461.4 117.2 461.6 117.6Q461.9 118.0 461.9 118.6L461.9 118.6Q461.9 119.3 461.5 119.9Q461.1 120.5 460.4 120.8Q459.7 121.2 458.7 121.2ZM466.6 121.1L466.6 121.1Q465.7 121.1 465.1 120.7Q464.4 120.3 464.0 119.5Q463.6 118.8 463.6 117.8L463.6 117.8Q463.6 116.7 464.0 116.0Q464.4 115.2 465.1 114.8Q465.7 114.4 466.6 114.4L466.6 114.4Q467.1 114.4 467.5 114.5Q467.9 114.6 468.3 114.8Q468.6 115.1 468.9 115.4Q469.1 115.8 469.3 116.2L469.3 116.2L468.3 116.5Q468.2 116.2 468.0 116.0Q467.9 115.8 467.7 115.6Q467.5 115.5 467.2 115.4Q466.9 115.3 466.6 115.3L466.6 115.3Q466.0 115.3 465.5 115.7Q465.1 116.0 464.9 116.6Q464.7 117.1 464.7 117.8L464.7 117.8Q464.7 118.4 464.9 119.0Q465.1 119.5 465.5 119.9Q466.0 120.2 466.6 120.2L466.6 120.2Q467.0 120.2 467.2 120.1Q467.5 120.0 467.7 119.9Q467.9 119.7 468.1 119.5Q468.2 119.3 468.3 119.0L468.3 119.0L469.3 119.3Q469.2 119.7 468.9 120.1Q468.7 120.4 468.3 120.6Q468.0 120.9 467.5 121.0Q467.1 121.1 466.6 121.1ZM472.4 121L471.3 121L471.3 114.4L472.3 114.4L472.3 115.5L472.4 115.5Q472.6 115.0 473.1 114.7Q473.5 114.4 474.1 114.4L474.1 114.4Q474.2 114.4 474.4 114.4Q474.5 114.4 474.6 114.4L474.6 114.4L474.6 115.4Q474.6 115.4 474.4 115.4Q474.2 115.4 474.0 115.4L474.0 115.4Q473.5 115.4 473.2 115.6Q472.8 115.8 472.6 116.1Q472.4 116.5 472.4 116.9L472.4 116.9L472.4 121ZM477.4 121L476.3 121L476.3 114.4L477.4 114.4L477.4 121ZM476.9 113.4L476.9 113.4Q476.6 113.4 476.3 113.2Q476.1 113.0 476.1 112.7L476.1 112.7Q476.1 112.4 476.3 112.2Q476.6 112.0 476.9 112.0L476.9 112.0Q477.2 112.0 477.4 112.2Q477.6 112.4 477.6 112.7L477.6 112.7Q477.6 113.0 477.4 113.2Q477.2 113.4 476.9 113.4ZM480.8 123.4L479.7 123.4L479.7 114.4L480.8 114.4L480.8 115.5L480.9 115.5Q481.0 115.3 481.2 115.1Q481.4 114.8 481.8 114.6Q482.1 114.4 482.8 114.4L482.8 114.4Q483.6 114.4 484.2 114.8Q484.8 115.2 485.2 115.9Q485.6 116.7 485.6 117.7L485.6 117.7Q485.6 118.8 485.2 119.5Q484.8 120.3 484.2 120.7Q483.6 121.1 482.8 121.1L482.8 121.1Q482.2 121.1 481.8 120.9Q481.4 120.7 481.2 120.4Q481.0 120.2 480.9 120.0L480.9 120.0L480.8 120.0L480.8 123.4ZM482.6 120.2L482.6 120.2Q483.2 120.2 483.6 119.9Q484.1 119.5 484.3 119.0Q484.5 118.4 484.5 117.7L484.5 117.7Q484.5 117.1 484.3 116.5Q484.1 116.0 483.7 115.6Q483.2 115.3 482.6 115.3L482.6 115.3Q482.0 115.3 481.6 115.6Q481.2 115.9 481.0 116.5Q480.8 117.0 480.8 117.7L480.8 117.7Q480.8 118.5 481.0 119.0Q481.2 119.6 481.6 119.9Q482.0 120.2 482.6 120.2ZM488.8 114.4L490.2 114.4L490.2 115.4L488.8 115.4L488.8 119.3Q488.8 119.7 489.0 119.9Q489.2 120.1 489.6 120.1L489.6 120.1Q489.7 120.1 489.8 120.1Q490 120.1 490.1 120.1L490.1 120.1L490.3 121.0Q490.2 121.0 490.0 121.1Q489.8 121.1 489.6 121.1L489.6 121.1Q488.7 121.1 488.2 120.6Q487.8 120.2 487.8 119.4L487.8 119.4L487.8 115.4L486.8 115.4L486.8 114.4L487.8 114.4L487.8 112.9L488.8 112.9L488.8 114.4Z "/></g><defs><clipPath id="satori_bc-id-2-4" clip-path="url(#satori_cp-id)"><path x="521" y="101" width="64" height="31" d="M536.5,101 h33 a15.5,15.5 0 0 1 15.5,15.5 v0 a15.5,15.5 0 0 1 -15.5,15.5 h-33 a15.5,15.5 0 0 1 -15.5,-15.5 v0 a15.5,15.5 0 0 1 15.5,-15.5"/></clipPath></defs><mask id="satori_om-id-2-4"><rect x="522" y="102" width="62" height="29" fill="#fff" mask="url(#satori_om-id)"/><path width="64" height="31" fill="none" stroke="#000" stroke-width="2" d="M525.54,105.53999999999999 A15.5,15.5 0 0 1 536.5,101 h33 a15.5,15.5 0 0 1 15.5,15.5 v0 a15.5,15.5 0 0 1 -15.5,15.5 h-33 a15.5,15.5 0 0 1 -15.5,-15.5 v0 A15.5,15.5 0 0 1 525.54,105.53999999999999"/></mask><path x="521" y="101" width="64" height="31" fill="rgba(255,255,255,0.04)" d="M536.5,101 h33 a15.5,15.5 0 0 1 15.5,15.5 v0 a15.5,15.5 0 0 1 -15.5,15.5 h-33 a15.5,15.5 0 0 1 -15.5,-15.5 v0 a15.5,15.5 0 0 1 15.5,-15.5" clip-path="url(#satori_cp-id)" mask="url(#satori_om-id)"/><path width="64" height="31" clip-path="url(#satori_bc-id-2-4)" fill="none" stroke="rgba(255,255,255,0.08)" stroke-width="2" d="M525.54,105.53999999999999 A15.5,15.5 0 0 1 536.5,101 h33 a15.5,15.5 0 0 1 15.5,15.5 v0 a15.5,15.5 0 0 1 -15.5,15.5 h-33 a15.5,15.5 0 0 1 -15.5,-15.5 v0 A15.5,15.5 0 0 1 525.54,105.53999999999999"/><g mask="url(#satori_om-id)" clip-path="url(#satori_cp-id)"><path fill="rgba(255,255,255,0.65)" d="M544.6 121.1L544.6 121.1Q543.5 121.1 542.6 120.6Q541.7 120.0 541.2 119.0Q540.7 118.0 540.7 116.6L540.7 116.6Q540.7 115.3 541.2 114.2Q541.7 113.2 542.6 112.7Q543.5 112.2 544.6 112.2L544.6 112.2Q545.3 112.2 545.8 112.3Q546.4 112.5 546.9 112.9Q547.4 113.3 547.7 113.8Q548.0 114.3 548.1 115.0L548.1 115.0L547.0 115.0Q546.9 114.6 546.7 114.2Q546.5 113.9 546.1 113.7Q545.8 113.4 545.4 113.3Q545.0 113.2 544.6 113.2L544.6 113.2Q543.8 113.2 543.2 113.6Q542.5 114.0 542.2 114.8Q541.8 115.5 541.8 116.6L541.8 116.6Q541.8 117.8 542.2 118.5Q542.5 119.3 543.2 119.7Q543.8 120.1 544.6 120.1L544.6 120.1Q545.0 120.1 545.4 120.0Q545.8 119.8 546.1 119.6Q546.5 119.4 546.7 119.0Q546.9 118.7 547.0 118.3L547.0 118.3L548.1 118.3Q548.0 118.9 547.7 119.4Q547.4 120.0 546.9 120.3Q546.4 120.7 545.8 120.9Q545.3 121.1 544.6 121.1ZM553.1 121.2L553.1 121.2Q552.2 121.2 551.5 120.8Q550.8 120.5 550.4 120.0Q550.0 119.4 549.9 118.7L549.9 118.7L551.1 118.7Q551.1 119.2 551.4 119.5Q551.7 119.8 552.2 120.0Q552.6 120.2 553.1 120.2L553.1 120.2Q553.7 120.2 554.2 120.0Q554.7 119.8 554.9 119.4Q555.2 119.1 555.2 118.6L555.2 118.6Q555.2 118.2 555.0 117.9Q554.7 117.7 554.3 117.5Q553.9 117.3 553.5 117.2L553.5 117.2L552.4 116.9Q551.4 116.6 550.8 116.0Q550.2 115.5 550.2 114.6L550.2 114.6Q550.2 113.9 550.6 113.3Q551.0 112.8 551.7 112.5Q552.3 112.2 553.2 112.2L553.2 112.2Q554.1 112.2 554.7 112.5Q555.4 112.8 555.8 113.3Q556.1 113.8 556.2 114.5L556.2 114.5L555.1 114.5Q555.0 113.8 554.5 113.5Q553.9 113.1 553.2 113.1L553.2 113.1Q552.6 113.1 552.2 113.3Q551.7 113.5 551.5 113.8Q551.3 114.1 551.3 114.6L551.3 114.6Q551.3 115.0 551.6 115.3Q551.8 115.6 552.2 115.7Q552.6 115.9 552.9 116.0L552.9 116.0L553.8 116.2Q554.2 116.3 554.6 116.5Q555.0 116.6 555.4 116.9Q555.8 117.2 556.0 117.6Q556.3 118.0 556.3 118.6L556.3 118.6Q556.3 119.3 555.9 119.9Q555.5 120.5 554.8 120.8Q554.1 121.2 553.1 121.2ZM561.3 121.2L561.3 121.2Q560.4 121.2 559.7 120.8Q559.0 120.5 558.6 120.0Q558.2 119.4 558.1 118.7L558.1 118.7L559.3 118.7Q559.3 119.2 559.6 119.5Q559.9 119.8 560.4 120.0Q560.8 120.2 561.3 120.2L561.3 120.2Q561.9 120.2 562.4 120.0Q562.8 119.8 563.1 119.4Q563.4 119.1 563.4 118.6L563.4 118.6Q563.4 118.2 563.2 117.9Q562.9 117.7 562.5 117.5Q562.1 117.3 561.7 117.2L561.7 117.2L560.6 116.9Q559.6 116.6 559.0 116.0Q558.4 115.5 558.4 114.6L558.4 114.6Q558.4 113.9 558.8 113.3Q559.2 112.8 559.9 112.5Q560.5 112.2 561.4 112.2L561.4 112.2Q562.3 112.2 562.9 112.5Q563.6 112.8 564.0 113.3Q564.3 113.8 564.4 114.5L564.4 114.5L563.3 114.5Q563.2 113.8 562.7 113.5Q562.1 113.1 561.4 113.1L561.4 113.1Q560.8 113.1 560.4 113.3Q559.9 113.5 559.7 113.8Q559.5 114.1 559.5 114.6L559.5 114.6Q559.5 115.0 559.8 115.3Q560.0 115.6 560.4 115.7Q560.8 115.9 561.1 116.0L561.1 116.0L562.0 116.2Q562.4 116.3 562.8 116.5Q563.2 116.6 563.6 116.9Q564.0 117.2 564.2 117.6Q564.5 118.0 564.5 118.6L564.5 118.6Q564.5 119.3 564.1 119.9Q563.7 120.5 563.0 120.8Q562.3 121.2 561.3 121.2Z "/></g><defs><clipPath id="satori_bc-id-2-5" clip-path="url(#satori_cp-id)"><path x="595" y="101" width="73" height="31" d="M610.5,101 h42 a15.5,15.5 0 0 1 15.5,15.5 v0 a15.5,15.5 0 0 1 -15.5,15.5 h-42 a15.5,15.5 0 0 1 -15.5,-15.5 v0 a15.5,15.5 0 0 1 15.5,-15.5"/></clipPath></defs><mask id="satori_om-id-2-5"><rect x="596" y="102" width="71" height="29" fill="#fff" mask="url(#satori_om-id)"/><path width="73" height="31" fill="none" stroke="#000" stroke-width="2" d="M599.54,105.53999999999999 A15.5,15.5 0 0 1 610.5,101 h42 a15.5,15.5 0 0 1 15.5,15.5 v0 a15.5,15.5 0 0 1 -15.5,15.5 h-42 a15.5,15.5 0 0 1 -15.5,-15.5 v0 A15.5,15.5 0 0 1 599.54,105.53999999999999"/></mask><path x="595" y="101" width="73" height="31" fill="rgba(255,255,255,0.04)" d="M610.5,101 h42 a15.5,15.5 0 0 1 15.5,15.5 v0 a15.5,15.5 0 0 1 -15.5,15.5 h-42 a15.5,15.5 0 0 1 -15.5,-15.5 v0 a15.5,15.5 0 0 1 15.5,-15.5" clip-path="url(#satori_cp-id)" mask="url(#satori_om-id)"/><path width="73" height="31" clip-path="url(#satori_bc-id-2-5)" fill="none" stroke="rgba(255,255,255,0.08)" stroke-width="2" d="M599.54,105.53999999999999 A15.5,15.5 0 0 1 610.5,101 h42 a15.5,15.5 0 0 1 15.5,15.5 v0 a15.5,15.5 0 0 1 -15.5,15.5 h-42 a15.5,15.5 0 0 1 -15.5,-15.5 v0 A15.5,15.5 0 0 1 599.54,105.53999999999999"/><g mask="url(#satori_om-id)" clip-path="url(#satori_cp-id)"><path fill="rgba(255,255,255,0.65)" d="M618.2 121L615.1 121L615.1 112.3L618.1 112.3Q619.1 112.3 619.7 112.6Q620.3 112.9 620.5 113.4Q620.8 113.9 620.8 114.6L620.8 114.6Q620.8 115.1 620.6 115.5Q620.4 115.9 620.1 116.1Q619.8 116.3 619.4 116.4L619.4 116.4L619.4 116.5Q619.8 116.5 620.2 116.8Q620.6 117.0 620.9 117.5Q621.2 118.0 621.2 118.7L621.2 118.7Q621.2 119.3 620.9 119.9Q620.6 120.4 619.9 120.7Q619.3 121 618.2 121L618.2 121ZM616.2 117.0L616.2 120.0L618.2 120.0Q619.2 120.0 619.7 119.6Q620.1 119.2 620.1 118.7L620.1 118.7Q620.1 118.2 619.9 117.9Q619.7 117.5 619.2 117.3Q618.8 117.0 618.3 117.0L618.3 117.0L616.2 117.0ZM616.2 113.3L616.2 116.1L618.1 116.1Q618.6 116.1 618.9 115.9Q619.3 115.7 619.5 115.4Q619.8 115.1 619.8 114.6L619.8 114.6Q619.8 114.0 619.4 113.6Q619.0 113.3 618.1 113.3L618.1 113.3L616.2 113.3ZM623.3 112.3L624.3 112.3L624.3 121L623.3 121L623.3 112.3ZM628.5 121.2L628.5 121.2Q627.9 121.2 627.4 120.9Q626.9 120.7 626.6 120.2Q626.3 119.8 626.3 119.1L626.3 119.1Q626.3 118.6 626.5 118.2Q626.7 117.9 627.1 117.7Q627.5 117.5 627.9 117.4Q628.4 117.3 628.8 117.2L628.8 117.2Q629.4 117.1 629.8 117.1Q630.2 117.1 630.3 117.0Q630.5 116.9 630.5 116.6L630.5 116.6L630.5 116.6Q630.5 116.2 630.4 115.9Q630.2 115.6 629.9 115.4Q629.6 115.3 629.1 115.3L629.1 115.3Q628.7 115.3 628.3 115.4Q628.0 115.6 627.8 115.8Q627.6 116.0 627.5 116.3L627.5 116.3L626.5 115.9Q626.7 115.3 627.2 115.0Q627.6 114.6 628.1 114.5Q628.6 114.4 629.1 114.4L629.1 114.4Q629.4 114.4 629.9 114.4Q630.3 114.5 630.7 114.8Q631.1 115.0 631.3 115.5Q631.6 115.9 631.6 116.7L631.6 116.7L631.6 121L630.5 121L630.5 120.1L630.5 120.1Q630.4 120.3 630.1 120.6Q629.9 120.8 629.5 121.0Q629.1 121.2 628.5 121.2ZM628.7 120.2L628.7 120.2Q629.3 120.2 629.7 120.0Q630.1 119.8 630.3 119.4Q630.5 119.0 630.5 118.6L630.5 118.6L630.5 117.7Q630.5 117.8 630.2 117.9Q630.0 117.9 629.7 118.0Q629.5 118.0 629.2 118.0Q628.9 118.1 628.8 118.1L628.8 118.1Q628.4 118.1 628.1 118.3Q627.7 118.4 627.5 118.6Q627.3 118.8 627.3 119.2L627.3 119.2Q627.3 119.5 627.5 119.8Q627.7 120.0 628.0 120.1Q628.3 120.2 628.7 120.2ZM636.4 121.1L636.4 121.1Q635.6 121.1 634.9 120.7Q634.3 120.3 634.0 119.5Q633.6 118.8 633.6 117.7L633.6 117.7Q633.6 116.7 634.0 115.9Q634.3 115.2 634.9 114.8Q635.6 114.4 636.4 114.4L636.4 114.4Q637.0 114.4 637.4 114.6Q637.8 114.8 638.0 115.1Q638.2 115.3 638.3 115.5L638.3 115.5L638.4 115.5L638.4 112.3L639.4 112.3L639.4 121L638.4 121L638.4 120.0L638.3 120.0Q638.2 120.2 638.0 120.4Q637.8 120.7 637.4 120.9Q637.0 121.1 636.4 121.1ZM636.5 120.2L636.5 120.2Q637.1 120.2 637.5 119.9Q638.0 119.6 638.2 119.0Q638.4 118.5 638.4 117.7L638.4 117.7Q638.4 117.0 638.2 116.5Q638.0 115.9 637.5 115.6Q637.1 115.3 636.5 115.3L636.5 115.3Q635.9 115.3 635.5 115.6Q635.1 116.0 634.9 116.5Q634.7 117.1 634.7 117.7L634.7 117.7Q634.7 118.4 634.9 119.0Q635.1 119.5 635.5 119.9Q635.9 120.2 636.5 120.2ZM644.5 121.1L644.5 121.1Q643.6 121.1 642.9 120.7Q642.2 120.3 641.8 119.5Q641.5 118.8 641.5 117.8Q641.5 116.8 641.8 116.0Q642.2 115.2 642.8 114.8Q643.5 114.4 644.4 114.4L644.4 114.4Q644.9 114.4 645.4 114.5Q645.9 114.7 646.3 115.1Q646.8 115.5 647.0 116.1Q647.3 116.7 647.3 117.6L647.3 117.6L647.3 118.1L642.5 118.1Q642.5 118.7 642.8 119.2L642.8 119.2Q643.0 119.7 643.5 119.9Q643.9 120.2 644.5 120.2L644.5 120.2Q644.9 120.2 645.2 120.1Q645.5 120.0 645.8 119.8Q646.0 119.5 646.1 119.2L646.1 119.2L647.1 119.5Q647.0 120.0 646.6 120.3Q646.3 120.7 645.7 120.9Q645.2 121.1 644.5 121.1ZM642.5 117.2L642.5 117.2L646.2 117.2Q646.1 116.7 646.0 116.4L646.0 116.4Q645.8 115.9 645.4 115.6Q645.0 115.3 644.4 115.3Q643.8 115.3 643.4 115.6Q643.0 115.9 642.7 116.3L642.7 116.3Q642.6 116.7 642.5 117.2Z "/></g></svg>