<!-- Generated by readme-aura https://github.com/collectioneur/readme-aura -->
<svg width="800" height="360" viewBox="0 0 800 360" xmlns="http://www.w3.org/2000/svg"><clipPath id="satori_cp-id"><path x="0" y="0" width="800" height="360" d="M20,0 h760 a20,20 0 0 1 20,20 v320 a20,20 0 0 1 -20,20 h-760 a20,20 0 0 1 -20,-20 v-320 a20,20 0 0 1 20,-20"/></clipPath><mask id="satori_om-id"><rect x="0" y="0" width="800" height="360" fill="#fff"/></mask><path x="0" y="0" width="800" height="360" fill="#08080d" d="M20,0 h760 a20,20 0 0 1 20,20 v320 a20,20 0 0 1 -20,20 h-760 a20,20 0 0 1 -20,-20 v-320 a20,20 0 0 1 20,-20"/><clipPath id="satori_cp-id-0" clip-path="url(#satori_cp-id)"><rect x="0" y="0" width="800" height="360"/></clipPath><mask id="satori_om-id-0"><rect x="0" y="0" width="800" height="360" fill="#fff" mask="url(#satori_om-id)"/></mask><svg x="0" y="0" width="800" height="360" preserveAspectRatio="none" clip-path="url(#satori_cp-id-0)" mask="url(#satori_om-id-0)"><defs><radialGradient id="hg1" cx="50%" cy="50%" r="50%"><stop offset="0%" stop-color="rgba(108,195,130,0.55)"></stop><stop offset="100%" stop-color="rgba(108,195,130,0)"></stop></radialGradient><radialGradient id="hg2" cx="50%" cy="50%" r="50%"><stop offset="0%" stop-color="rgba(230,100,115,0.5)"></stop><stop offset="100%" stop-color="rgba(230,100,115,0)"></stop></radialGradient><radialGradient id="hg3" cx="50%" cy="50%" r="50%"><stop offset="0%" stop-color="rgba(195,155,255,0.35)"></stop><stop offset="100%" stop-color="rgba(195,155,255,0)"></stop></radialGradient><radialGradient id="hg4" cx="50%" cy="50%" r="50%"><stop offset="0%" stop-color="rgba(255,195,110,0.28)"></stop><stop offset="100%" stop-color="rgba(255,195,110,0)"></stop></radialGradient><radialGradient id="hg5" cx="50%" cy="50%" r="50%"><stop offset="0%" stop-color="rgba(80,160,220,0.3)"></stop><stop offset="100%" stop-color="rgba(80,160,220,0)"></stop></radialGradient></defs><ellipse id="hero-o1" cx="110" cy="310" rx="260" ry="200" fill="url(#hg1)"></ellipse><ellipse id="hero-o2" cx="710" cy="70" rx="230" ry="190" fill="url(#hg2)"></ellipse><ellipse id="hero-o3" cx="620" cy="330" rx="200" ry="160" fill="url(#hg3)"></ellipse><ellipse id="hero-o4" cx="200" cy="55" rx="190" ry="150" fill="url(#hg4)"></ellipse><ellipse id="hero-o5" cx="400" cy="340" rx="170" ry="130" fill="url(#hg5)"></ellipse><circle id="hr1" cx="400" cy="178" r="52" fill="none" stroke="rgba(255,255,255,0.9)" stroke-width="0.7"></circle><circle id="hr2" cx="400" cy="178" r="92" fill="none" stroke="rgba(255,255,255,0.9)" stroke-width="0.7"></circle><circle id="hr3" cx="400" cy="178" r="138" fill="none" stroke="rgba(255,255,255,0.9)" stroke-width="0.7"></circle><circle id="hr4" cx="400" cy="178" r="192" fill="none" stroke="rgba(255,255,255,0.9)" stroke-width="0.7"></circle><circle id="hr5" cx="400" cy="178" r="256" fill="none" stroke="rgba(255,255,255,0.9)" stroke-width="0.7"></circle><g id="hero-dot"><circle cx="400" cy="126" r="2.5" fill="rgba(255,255,255,0.5)"></circle></g><style>

    @keyframes orb-a { 0%, 100% { transform: translate(0, 0); opacity: 0.6; } 50% { transform: translate(28px, -22px); opacity: 0.9; } }
    @keyframes orb-b { 0%, 100% { transform: translate(0, 0); opacity: 0.5; } 50% { transform: translate(-22px, 18px); opacity: 0.75; } }
    @keyframes orb-c { 0%, 100% { transform: translate(0, 0); opacity: 0.35; } 50% { transform: translate(16px, -28px); opacity: 0.6; } }
    @keyframes ring-blink { 0%, 100% { opacity: 0.06; } 50% { opacity: 0.18; } }
    @keyframes ring-blink-b { 0%, 100% { opacity: 0.04; } 50% { opacity: 0.12; } }
    @keyframes dot-spin { 0% { transform: rotate(0deg); } 100% { transform: rotate(360deg); } }
    #hero-o1 { animation: orb-a 9s ease-in-out infinite; }
    #hero-o2 { animation: orb-b 11s ease-in-out infinite 0.8s; }
    #hero-o3 { animation: orb-a 8s ease-in-out infinite 2s; }
    #hero-o4 { animation: orb-b 13s ease-in-out infinite 0.4s; }
    #hero-o5 { animation: orb-c 7s ease-in-out infinite 1.2s; }
    #hr1 { animation: ring-blink 8s ease-in-out infinite; }
    #hr2 { animation: ring-blink 8s ease-in-out infinite 1.4s; }
    #hr3 { animation: ring-blink-b 8s ease-in-out infinite 2.8s; }
    #hr4 { animation: ring-blink-b 8s ease-in-out infinite 4.2s; }
    #hr5 { animation: ring-blink-b 10s ease-in-out infinite 5.6s; }
    #hero-dot { animation: dot-spin 20s linear infinite; }
  
</style>
</svg><mask id="satori_om-id-0-0"><rect x="0" y="0" width="0" height="360" fill="#fff" mask="url(#satori_om-id)"/></mask><mask id="satori_om-id-0-0-0"><rect x="0" y="0" width="0" height="360" fill="#fff" mask="url(#satori_om-id)"/></mask><mask id="satori_om-id-0-0-0-0"><rect x="0" y="0" width="0" height="360" fill="#fff" mask="url(#satori_om-id)"/></mask><mask id="satori_om-id-0-0-0-1"><rect x="0" y="0" width="0" height="360" fill="#fff" mask="url(#satori_om-id)"/></mask><mask id="satori_om-id-0-0-1"><rect x="0" y="0" width="0" height="360" fill="#fff" mask="url(#satori_om-id)"/></mask><mask id="satori_om-id-0-0-1-0"><rect x="0" y="0" width="0" height="360" fill="#fff" mask="url(#satori_om-id)"/></mask><mask id="satori_om-id-0-0-1-1"><rect x="0" y="0" width="0" height="360" fill="#fff" mask="url(#satori_om-id)"/></mask><mask id="satori_om-id-0-0-2"><rect x="0" y="0" width="0" height="360" fill="#fff" mask="url(#satori_om-id)"/></mask><mask id="satori_om-id-0-0-2-0"><rect x="0" y="0" width="0" height="360" fill="#fff" mask="url(#satori_om-id)"/></mask><mask id="satori_om-id-0-0-2-1"><rect x="0" y="0" width="0" height="360" fill="#fff" mask="url(#satori_om-id)"/></mask><mask id="satori_om-id-0-0-3"><rect x="0" y="0" width="0" height="360" fill="#fff" mask="url(#satori_om-id)"/></mask><mask id="satori_om-id-0-0-3-0"><rect x="0" y="0" width="0" height="360" fill="#fff" mask="url(#satori_om-id)"/></mask><mask id="satori_om-id-0-0-3-1"><rect x="0" y="0" width="0" height="360" fill="#fff" mask="url(#satori_om-id)"/></mask><mask id="satori_om-id-0-0-4"><rect x="0" y="0" width="0" height="360" fill="#fff" mask="url(#satori_om-id)"/></mask><mask id="satori_om-id-0-0-4-0"><rect x="0" y="0" width="0" height="360" fill="#fff" mask="url(#satori_om-id)"/></mask><mask id="satori_om-id-0-0-4-1"><rect x="0" y="0" width="0" height="360" fill="#fff" mask="url(#satori_om-id)"/></mask><mask id="satori_om-id-0-1"><rect x="0" y="0" width="0" height="360" fill="#fff" mask="url(#satori_om-id)"/></mask><mask id="satori_om-id-0-2"><rect x="0" y="0" width="0" height="360" fill="#fff" mask="url(#satori_om-id)"/></mask><mask id="satori_om-id-0-3"><rect x="0" y="0" width="0" height="360" fill="#fff" mask="url(#satori_om-id)"/></mask><mask id="satori_om-id-0-4"><rect x="0" y="0" width="0" height="360" fill="#fff" mask="url(#satori_om-id)"/></mask><mask id="satori_om-id-0-5"><rect x="0" y="0" width="0" height="360" fill="#fff" mask="url(#satori_om-id)"/></mask><mask id="satori_om-id-0-6"><rect x="0" y="0" width="0" height="360" fill="#fff" mask="url(#satori_om-id)"/></mask><mask id="satori_om-id-0-7"><rect x="0" y="0" width="0" height="360" fill="#fff" mask="url(#satori_om-id)"/></mask><mask id="satori_om-id-0-8"><rect x="0" y="0" width="0" height="360" fill="#fff" mask="url(#satori_om-id)"/></mask><mask id="satori_om-id-0-9"><rect x="0" y="0" width="0" height="360" fill="#fff" mask="url(#satori_om-id)"/></mask><mask id="satori_om-id-0-10"><rect x="0" y="0" width="0" height="360" fill="#fff" mask="url(#satori_om-id)"/></mask><mask id="satori_om-id-0-11"><rect x="0" y="0" width="0" height="360" fill="#fff" mask="url(#satori_om-id)"/></mask><mask id="satori_om-id-0-11-0"><rect x="0" y="0" width="0" height="360" fill="#fff" mask="url(#satori_om-id)"/></mask><mask id="satori_om-id-1"><rect x="207" y="107" width="386" height="147" fill="#fff" mask="url(#satori_om-id)"/></mask><mask id="satori_om-id-1-0"><rect x="207" y="107" width="386" height="60" fill="#fff" mask="url(#satori_om-id)"/></mask><g mask="url(#satori_om-id)" clip-path="url(#satori_cp-id)"><path fill="#ffffff" d="M225.4 159.6L225.4 159.6Q220.4 159.6 216.9 157.5Q213.3 155.4 211.3 151.6Q209.4 147.8 209.4 142.8L209.4 142.8Q209.4 137.7 211.3 133.9Q213.3 130.1 216.9 128.0Q220.4 125.8 225.4 125.8L225.4 125.8Q228.3 125.8 230.8 126.6Q233.2 127.4 235.1 128.8Q237.0 130.2 238.3 132.2Q239.5 134.2 240.0 136.7L240.0 136.7L231.8 138.3Q231.5 137.0 231.0 136.0Q230.4 134.9 229.6 134.2Q228.8 133.5 227.8 133.1Q226.7 132.8 225.5 132.8L225.5 132.8Q223.1 132.8 221.5 134.0Q219.9 135.3 219.1 137.5Q218.3 139.8 218.3 142.7L218.3 142.7Q218.3 145.6 219.1 147.9Q219.9 150.2 221.5 151.4Q223.1 152.7 225.5 152.7L225.5 152.7Q226.7 152.7 227.8 152.3Q228.9 151.9 229.7 151.2Q230.5 150.4 231.1 149.4Q231.6 148.3 231.8 147.0L231.8 147.0L240.0 148.5Q239.5 151.1 238.3 153.2Q237.1 155.2 235.2 156.7Q233.3 158.1 230.8 158.9Q228.3 159.6 225.4 159.6ZM258.7 159.6L258.7 159.6Q253.8 159.6 250.2 157.5Q246.6 155.4 244.6 151.6Q242.7 147.8 242.7 142.8L242.7 142.8Q242.7 137.7 244.6 133.9Q246.6 130.1 250.2 128.0Q253.8 125.8 258.7 125.8L258.7 125.8Q263.7 125.8 267.2 128.0Q270.8 130.1 272.8 133.9Q274.7 137.7 274.7 142.8L274.7 142.8Q274.7 147.8 272.8 151.6Q270.8 155.4 267.2 157.5Q263.7 159.6 258.7 159.6ZM258.7 152.7L258.7 152.7Q261.0 152.7 262.6 151.4Q264.2 150.1 265 147.9Q265.8 145.6 265.8 142.7L265.8 142.7Q265.8 139.8 265 137.6Q264.2 135.3 262.6 134.0Q261.0 132.8 258.7 132.8L258.7 132.8Q256.4 132.8 254.8 134.0Q253.2 135.3 252.4 137.6Q251.6 139.8 251.6 142.7L251.6 142.7Q251.6 145.6 252.4 147.9Q253.2 150.1 254.8 151.4Q256.4 152.7 258.7 152.7ZM290.8 159.6L290.8 159.6Q287.1 159.6 284.0 157.6Q281.0 155.7 279.2 151.9Q277.5 148.1 277.5 142.7L277.5 142.7Q277.5 137.1 279.3 133.3Q281.1 129.6 284.1 127.7Q287.1 125.8 290.8 125.8L290.8 125.8Q293.6 125.8 295.4 126.8Q297.2 127.7 298.4 129.1Q299.5 130.5 300.1 131.8L300.1 131.8L300.4 131.8L300.4 115.3L309.2 115.3L309.2 159L300.5 159L300.5 153.8L300.1 153.8Q299.5 155.1 298.3 156.4Q297.2 157.7 295.3 158.6Q293.5 159.6 290.8 159.6ZM293.5 152.5L293.5 152.5Q295.8 152.5 297.3 151.3Q298.9 150.0 299.7 147.8Q300.6 145.6 300.6 142.7L300.6 142.7Q300.6 139.7 299.8 137.5Q298.9 135.3 297.4 134.1Q295.8 132.9 293.5 132.9L293.5 132.9Q291.2 132.9 289.6 134.1Q288.1 135.4 287.3 137.6Q286.5 139.8 286.5 142.7L286.5 142.7Q286.5 145.5 287.3 147.8Q288.1 150.0 289.7 151.2Q291.2 152.5 293.5 152.5ZM329.5 159.6L329.5 159.6Q324.5 159.6 320.8 157.6Q317.2 155.5 315.2 151.8Q313.3 148.0 313.3 142.8L313.3 142.8Q313.3 137.7 315.2 133.9Q317.2 130.1 320.7 128.0Q324.3 125.8 329.0 125.8L329.0 125.8Q332.3 125.8 335.0 126.9Q337.8 127.9 339.9 130.0Q342.0 132.0 343.2 135.1Q344.4 138.2 344.4 142.4L344.4 142.4L344.4 144.9L322.0 144.9Q322.1 147.4 323.0 149.2L323.0 149.2Q323.9 151.1 325.6 152.1Q327.3 153.0 329.6 153.0L329.6 153.0Q331.2 153.0 332.4 152.6Q333.7 152.1 334.6 151.3Q335.5 150.4 335.9 149.2L335.9 149.2L343.9 150.7Q343.1 153.3 341.2 155.4Q339.2 157.4 336.2 158.5Q333.3 159.6 329.5 159.6ZM322.1 139.4L322.1 139.4L335.9 139.4Q335.8 137.8 335.2 136.4L335.2 136.4Q334.4 134.5 332.9 133.5Q331.4 132.5 329.1 132.5L329.1 132.5Q326.8 132.5 325.2 133.5Q323.6 134.6 322.8 136.4L322.8 136.4Q322.2 137.7 322.1 139.4ZM364.2 159L355.2 159L345.6 126.2L354.8 126.2L357.6 138.3Q358.4 141.6 359.2 145.4L359.2 145.4Q359.8 148.0 360.3 150.9L360.3 150.9Q360.8 148.1 361.5 145.5L361.5 145.5Q362.4 141.7 363.2 138.3L363.2 138.3L366.1 126.2L374.2 126.2L377.2 138.3Q377.9 141.7 378.8 145.5L378.8 145.5Q379.4 148.1 380.0 151.0L380.0 151.0Q380.5 148.1 381.0 145.5L381.0 145.5Q381.8 141.7 382.6 138.3L382.6 138.3L385.4 126.2L394.8 126.2L385.0 159L376.1 159L372.5 146.4Q371.9 144.5 371.4 142.2Q370.9 139.9 370.4 137.5L370.4 137.5Q370.3 136.9 370.2 136.4L370.2 136.4Q370.0 136.9 369.9 137.5L369.9 137.5Q369.4 139.9 368.9 142.2Q368.3 144.5 367.8 146.4L367.8 146.4L364.2 159ZM412.2 159.6L412.2 159.6Q407.2 159.6 403.6 157.6Q399.9 155.5 398.0 151.8Q396.0 148.0 396.0 142.8L396.0 142.8Q396.0 137.7 398.0 133.9Q399.9 130.1 403.5 128.0Q407 125.8 411.8 125.8L411.8 125.8Q415.0 125.8 417.8 126.9Q420.6 127.9 422.7 130.0Q424.8 132.0 426.0 135.1Q427.2 138.2 427.2 142.4L427.2 142.4L427.2 144.9L404.7 144.9Q404.8 147.4 405.7 149.2L405.7 149.2Q406.6 151.1 408.4 152.1Q410.1 153.0 412.4 153.0L412.4 153.0Q413.9 153.0 415.2 152.6Q416.4 152.1 417.3 151.3Q418.2 150.4 418.7 149.2L418.7 149.2L426.7 150.7Q425.9 153.3 423.9 155.4Q421.9 157.4 419.0 158.5Q416.1 159.6 412.2 159.6ZM404.8 139.4L404.8 139.4L418.7 139.4Q418.5 137.8 418.0 136.4L418.0 136.4Q417.2 134.5 415.7 133.5Q414.1 132.5 411.9 132.5L411.9 132.5Q409.6 132.5 408.0 133.5Q406.4 134.6 405.6 136.4L405.6 136.4Q404.9 137.7 404.8 139.4ZM449.5 159.6L449.5 159.6Q446.8 159.6 445.0 158.6Q443.1 157.7 442.0 156.4Q440.8 155.1 440.2 153.8L440.2 153.8L439.8 153.8L439.8 159L431.2 159L431.2 115.3L440.0 115.3L440.0 131.8L440.2 131.8Q440.8 130.5 442.0 129.1Q443.1 127.7 444.9 126.8Q446.8 125.8 449.6 125.8L449.6 125.8Q453.2 125.8 456.2 127.7Q459.2 129.6 461.0 133.3Q462.8 137.1 462.8 142.7L462.8 142.7Q462.8 148.1 461.1 151.9Q459.3 155.7 456.3 157.6Q453.3 159.6 449.5 159.6ZM446.8 152.5L446.8 152.5Q449.1 152.5 450.7 151.2Q452.2 150.0 453.0 147.8Q453.8 145.5 453.8 142.7L453.8 142.7Q453.8 139.8 453.0 137.6Q452.2 135.4 450.7 134.1Q449.1 132.9 446.8 132.9L446.8 132.9Q444.6 132.9 443.0 134.1Q441.4 135.3 440.6 137.5Q439.7 139.7 439.7 142.7L439.7 142.7Q439.7 145.6 440.6 147.8Q441.4 150.0 443.0 151.3Q444.6 152.5 446.8 152.5ZM467.3 137.5L487.2 137.5L487.2 144.6L467.3 144.6L467.3 137.5ZM505.0 159.6L505.0 159.6Q501.3 159.6 498.2 157.6Q495.2 155.7 493.4 151.9Q491.7 148.1 491.7 142.7L491.7 142.7Q491.7 137.1 493.5 133.3Q495.3 129.6 498.3 127.7Q501.3 125.8 505.0 125.8L505.0 125.8Q507.8 125.8 509.6 126.8Q511.4 127.7 512.6 129.1Q513.7 130.5 514.3 131.8L514.3 131.8L514.6 131.8L514.6 115.3L523.4 115.3L523.4 159L514.7 159L514.7 153.8L514.3 153.8Q513.7 155.1 512.5 156.4Q511.4 157.7 509.5 158.6Q507.7 159.6 505.0 159.6ZM507.7 152.5L507.7 152.5Q510.0 152.5 511.5 151.3Q513.1 150.0 513.9 147.8Q514.8 145.6 514.8 142.7L514.8 142.7Q514.8 139.7 514.0 137.5Q513.1 135.3 511.6 134.1Q510.0 132.9 507.7 132.9L507.7 132.9Q505.4 132.9 503.8 134.1Q502.3 135.4 501.5 137.6Q500.7 139.8 500.7 142.7L500.7 142.7Q500.7 145.5 501.5 147.8Q502.3 150.0 503.9 151.2Q505.4 152.5 507.7 152.5ZM543.7 159.6L543.7 159.6Q538.7 159.6 535.0 157.6Q531.4 155.5 529.4 151.8Q527.5 148.0 527.5 142.8L527.5 142.8Q527.5 137.7 529.4 133.9Q531.4 130.1 534.9 128.0Q538.5 125.8 543.2 125.8L543.2 125.8Q546.5 125.8 549.2 126.9Q552.0 127.9 554.1 130.0Q556.2 132.0 557.4 135.1Q558.6 138.2 558.6 142.4L558.6 142.4L558.6 144.9L536.2 144.9Q536.3 147.4 537.2 149.2L537.2 149.2Q538.1 151.1 539.8 152.1Q541.5 153.0 543.8 153.0L543.8 153.0Q545.4 153.0 546.6 152.6Q547.9 152.1 548.8 151.3Q549.7 150.4 550.1 149.2L550.1 149.2L558.1 150.7Q557.3 153.3 555.4 155.4Q553.4 157.4 550.5 158.5Q547.5 159.6 543.7 159.6ZM536.3 139.4L536.3 139.4L550.1 139.4Q550.0 137.8 549.4 136.4L549.4 136.4Q548.6 134.5 547.1 133.5Q545.6 132.5 543.3 132.5L543.3 132.5Q541.0 132.5 539.4 133.5Q537.8 134.6 537.0 136.4L537.0 136.4Q536.4 137.7 536.3 139.4ZM581.8 159L571.8 159L559.8 126.2L569.1 126.2L574.6 143.2Q575.6 146.4 576.4 149.7L576.4 149.7Q576.6 150.9 576.9 152.2L576.9 152.2Q577.2 150.9 577.5 149.7L577.5 149.7Q578.3 146.4 579.3 143.2L579.3 143.2L584.7 126.2L593.9 126.2L581.8 159Z "/></g><mask id="satori_om-id-1-1"><rect x="266" y="183" width="269" height="16" fill="#fff" mask="url(#satori_om-id)"/></mask><g mask="url(#satori_om-id)" clip-path="url(#satori_cp-id)"><path fill="rgba(255,255,255,0.4)" d="M270.1 196L270.1 196L267.1 196L267.1 186.5L270.2 186.5Q271.6 186.5 272.6 187.1Q273.6 187.7 274.1 188.7Q274.6 189.8 274.6 191.3L274.6 191.3Q274.6 192.7 274.1 193.8Q273.6 194.9 272.5 195.4Q271.5 196 270.1 196ZM268.3 187.6L268.3 194.9L270.0 194.9Q271.2 194.9 271.9 194.5Q272.7 194.1 273.1 193.2Q273.4 192.4 273.4 191.3L273.4 191.3Q273.4 190.1 273.1 189.3Q272.7 188.5 272.0 188.0Q271.2 187.6 270.1 187.6L270.1 187.6L268.3 187.6ZM287.3 196L281.5 196L281.5 186.5L287.3 186.5L287.3 187.6L282.7 187.6L282.7 190.7L287.0 190.7L287.0 191.8L282.7 191.8L282.7 194.9L287.3 194.9L287.3 196ZM297.4 196.2L297.4 196.2Q296.3 196.2 295.6 195.8Q294.8 195.5 294.4 194.9Q294.0 194.3 293.9 193.5L293.9 193.5L295.2 193.5Q295.2 194.1 295.5 194.4Q295.8 194.7 296.3 194.9Q296.8 195.1 297.4 195.1L297.4 195.1Q298.0 195.1 298.5 194.9Q299.0 194.7 299.3 194.3Q299.6 193.9 299.6 193.4L299.6 193.4Q299.6 192.9 299.4 192.7Q299.1 192.4 298.7 192.2Q298.3 192.0 297.8 191.9L297.8 191.9L296.6 191.5Q295.5 191.2 294.8 190.6Q294.2 190.0 294.2 189.1L294.2 189.1Q294.2 188.3 294.6 187.7Q295.1 187.1 295.8 186.7Q296.5 186.4 297.4 186.4L297.4 186.4Q298.4 186.4 299.1 186.7Q299.8 187.1 300.2 187.6Q300.6 188.2 300.7 188.9L300.7 188.9L299.5 188.9Q299.4 188.2 298.8 187.9Q298.3 187.5 297.4 187.5L297.4 187.5Q296.8 187.5 296.3 187.7Q295.9 187.9 295.6 188.2Q295.4 188.6 295.4 189.0L295.4 189.0Q295.4 189.5 295.7 189.8Q296.0 190.1 296.4 190.3Q296.8 190.5 297.2 190.5L297.2 190.5L298.1 190.8Q298.5 190.9 299.0 191.1Q299.4 191.3 299.8 191.6Q300.3 191.9 300.5 192.3Q300.8 192.8 300.8 193.4L300.8 193.4Q300.8 194.2 300.4 194.8Q300.0 195.4 299.2 195.8Q298.5 196.2 297.4 196.2ZM307.7 186.5L308.9 186.5L308.9 196L307.7 196L307.7 186.5ZM320.0 196.1L320.0 196.1Q318.8 196.1 317.8 195.5Q316.9 194.9 316.3 193.9Q315.8 192.8 315.8 191.3L315.8 191.3Q315.8 189.8 316.3 188.7Q316.9 187.6 317.8 187.0Q318.7 186.4 320.0 186.4L320.0 186.4Q320.7 186.4 321.4 186.6Q322.0 186.9 322.5 187.3Q323.0 187.7 323.4 188.3Q323.7 188.8 323.8 189.5L323.8 189.5L322.6 189.5Q322.5 189.0 322.2 188.7Q322.0 188.3 321.6 188.1Q321.3 187.8 320.9 187.7Q320.5 187.5 320.0 187.5L320.0 187.5Q319.1 187.5 318.5 188.0Q317.8 188.4 317.4 189.2Q317.0 190.1 317.0 191.3L317.0 191.3Q317.0 192.5 317.4 193.3Q317.8 194.1 318.5 194.6Q319.2 195.0 320.0 195.0L320.0 195.0Q320.8 195.0 321.4 194.7Q322.1 194.3 322.4 193.7L322.4 193.7Q322.7 193.1 322.7 192.3L322.7 192.3L320.3 192.3L320.3 191.2L323.9 191.2L323.9 192.3Q323.9 193.5 323.4 194.3Q322.9 195.2 322.0 195.7Q321.2 196.1 320.0 196.1ZM332.1 196L330.9 196L330.9 186.5L332.3 186.5L336.1 192.6Q336.3 192.8 336.5 193.2Q336.7 193.6 337.0 194.0L337.0 194.0Q337.1 194.3 337.2 194.6L337.2 194.6Q337.2 194.3 337.2 194.0L337.2 194.0Q337.2 193.5 337.2 193.1Q337.2 192.6 337.2 192.3L337.2 192.3L337.2 186.5L338.4 186.5L338.4 196L336.9 196L333.5 190.6Q333.3 190.2 333.0 189.8Q332.8 189.4 332.5 188.9L332.5 188.9Q332.3 188.5 332.0 188.0L332.0 188.0Q332.0 188.5 332.0 188.9L332.0 188.9Q332.1 189.5 332.1 189.9Q332.1 190.4 332.1 190.6L332.1 190.6L332.1 196Z M355.1 192.4L355.1 192.4Q354.7 192.4 354.4 192.1Q354.2 191.9 354.2 191.5L354.2 191.5Q354.2 191.2 354.4 190.9Q354.7 190.6 355.1 190.6L355.1 190.6Q355.4 190.6 355.7 190.9Q355.9 191.2 355.9 191.5L355.9 191.5Q355.9 191.9 355.7 192.1Q355.4 192.4 355.1 192.4Z M375.5 196.1L375.5 196.1Q374.3 196.1 373.4 195.5Q372.4 195.0 371.9 193.9Q371.4 192.8 371.4 191.3L371.4 191.3Q371.4 189.8 371.9 188.7Q372.4 187.6 373.4 187.0Q374.3 186.4 375.5 186.4L375.5 186.4Q376.3 186.4 376.9 186.6Q377.5 186.8 378.1 187.2Q378.6 187.6 378.9 188.2Q379.2 188.8 379.4 189.5L379.4 189.5L378.2 189.5Q378.1 189.0 377.8 188.7Q377.6 188.3 377.2 188.0Q376.9 187.8 376.4 187.7Q376.0 187.5 375.5 187.5L375.5 187.5Q374.7 187.5 374.0 188.0Q373.3 188.4 372.9 189.2Q372.5 190.1 372.5 191.3L372.5 191.3Q372.5 192.5 372.9 193.3Q373.3 194.2 374.0 194.6Q374.7 195.0 375.5 195.0L375.5 195.0Q376.0 195.0 376.4 194.9Q376.9 194.7 377.2 194.5Q377.6 194.2 377.8 193.9Q378.1 193.5 378.2 193.0L378.2 193.0L379.4 193.0Q379.2 193.7 378.9 194.3Q378.6 194.9 378.1 195.3Q377.5 195.7 376.9 195.9Q376.3 196.1 375.5 196.1ZM390.1 196.1L390.1 196.1Q388.8 196.1 387.9 195.5Q386.9 195.0 386.4 193.9Q385.8 192.8 385.8 191.3L385.8 191.3Q385.8 189.8 386.4 188.7Q386.9 187.6 387.9 187.0Q388.8 186.4 390.1 186.4L390.1 186.4Q391.3 186.4 392.2 187.0Q393.2 187.6 393.7 188.7Q394.2 189.8 394.2 191.3L394.2 191.3Q394.2 192.8 393.7 193.9Q393.2 195.0 392.2 195.5Q391.3 196.1 390.1 196.1ZM390.1 195.0L390.1 195.0Q390.9 195.0 391.6 194.6Q392.3 194.2 392.7 193.3Q393.1 192.5 393.1 191.3L393.1 191.3Q393.1 190.1 392.7 189.2Q392.3 188.4 391.6 188.0Q390.9 187.5 390.1 187.5L390.1 187.5Q389.2 187.5 388.5 188.0Q387.8 188.4 387.4 189.2Q387.0 190.1 387.0 191.3L387.0 191.3Q387.0 192.5 387.4 193.3Q387.8 194.1 388.5 194.6Q389.2 195.0 390.1 195.0ZM404.1 196L404.1 196L401.2 196L401.2 186.5L404.2 186.5Q405.6 186.5 406.6 187.1Q407.6 187.7 408.1 188.7Q408.6 189.8 408.6 191.3L408.6 191.3Q408.6 192.7 408.1 193.8Q407.6 194.9 406.6 195.4Q405.6 196 404.1 196ZM402.4 187.6L402.4 194.9L404.0 194.9Q405.2 194.9 405.9 194.5Q406.7 194.1 407.1 193.2Q407.5 192.4 407.5 191.3L407.5 191.3Q407.5 190.1 407.1 189.3Q406.7 188.5 406.0 188.0Q405.2 187.6 404.1 187.6L404.1 187.6L402.4 187.6ZM421.4 196L415.5 196L415.5 186.5L421.3 186.5L421.3 187.6L416.7 187.6L416.7 190.7L421.0 190.7L421.0 191.8L416.7 191.8L416.7 194.9L421.4 194.9L421.4 196Z M437.7 192.4L437.7 192.4Q437.4 192.4 437.1 192.1Q436.9 191.9 436.9 191.5L436.9 191.5Q436.9 191.2 437.1 190.9Q437.4 190.6 437.7 190.6L437.7 190.6Q438.1 190.6 438.3 190.9Q438.6 191.2 438.6 191.5L438.6 191.5Q438.6 191.9 438.3 192.1Q438.1 192.4 437.7 192.4Z M458.2 196.1L458.2 196.1Q457.0 196.1 456.1 195.5Q455.1 195.0 454.6 193.9Q454.0 192.8 454.0 191.3L454.0 191.3Q454.0 189.8 454.6 188.7Q455.1 187.6 456.1 187.0Q457.0 186.4 458.2 186.4L458.2 186.4Q459.0 186.4 459.6 186.6Q460.2 186.8 460.7 187.2Q461.2 187.6 461.6 188.2Q461.9 188.8 462.1 189.5L462.1 189.5L460.8 189.5Q460.7 189.0 460.5 188.7Q460.3 188.3 459.9 188.0Q459.6 187.8 459.1 187.7Q458.7 187.5 458.2 187.5L458.2 187.5Q457.4 187.5 456.7 188.0Q456.0 188.4 455.6 189.2Q455.2 190.1 455.2 191.3L455.2 191.3Q455.2 192.5 455.6 193.3Q456.0 194.2 456.7 194.6Q457.4 195.0 458.2 195.0L458.2 195.0Q458.7 195.0 459.1 194.9Q459.6 194.7 459.9 194.5Q460.3 194.2 460.5 193.9Q460.7 193.5 460.8 193.0L460.8 193.0L462.1 193.0Q461.9 193.7 461.6 194.3Q461.3 194.9 460.7 195.3Q460.2 195.7 459.6 195.9Q459.0 196.1 458.2 196.1ZM470.1 196L468.9 196L468.9 186.5L472.1 186.5Q473.2 186.5 474.0 186.9Q474.7 187.3 475.0 188.0Q475.4 188.6 475.4 189.5Q475.4 190.3 475.0 191.0Q474.7 191.6 474.0 192.0L474.0 192.0Q473.8 192.1 473.6 192.1L473.6 192.1L475.7 196L474.3 196L472.4 192.3Q472.3 192.3 472.2 192.3L472.2 192.3L470.1 192.3L470.1 196ZM470.1 187.6L470.1 191.3L472.1 191.3Q472.8 191.3 473.3 191.0Q473.8 190.8 474.0 190.4Q474.2 190.0 474.2 189.5L474.2 189.5Q474.2 188.9 474.0 188.5Q473.8 188.1 473.3 187.8Q472.8 187.6 472.1 187.6L472.1 187.6L470.1 187.6ZM488.1 196L482.3 196L482.3 186.5L488.0 186.5L488.0 187.6L483.5 187.6L483.5 190.7L487.7 190.7L487.7 191.8L483.5 191.8L483.5 194.9L488.1 194.9L488.1 196ZM495.6 196L494.3 196L497.7 186.5L499.1 186.5L502.6 196L501.3 196L500.4 193.4L496.5 193.4L495.6 196ZM496.8 192.3L500.0 192.3L499.3 190.4Q499.1 189.9 498.9 189.1L498.9 189.1Q498.7 188.4 498.4 187.5L498.4 187.5Q498.1 188.5 497.9 189.1L497.9 189.1Q497.7 189.9 497.5 190.4L497.5 190.4L496.8 192.3ZM511.5 187.6L508.5 187.6L508.5 186.5L515.7 186.5L515.7 187.6L512.7 187.6L512.7 196L511.5 196L511.5 187.6ZM528.3 196L522.4 196L522.4 186.5L528.2 186.5L528.2 187.6L523.7 187.6L523.7 190.7L527.9 190.7L527.9 191.8L523.7 191.8L523.7 194.9L528.3 194.9L528.3 196Z "/></g><mask id="satori_om-id-1-2"><rect x="255" y="229" width="290" height="25" fill="#fff" mask="url(#satori_om-id)"/></mask><defs><clipPath id="satori_bc-id-1-2-0" clip-path="url(#satori_cp-id)"><path x="255" y="229" width="103" height="25" d="M267.5,229 h78 a12.5,12.5 0 0 1 12.5,12.5 v0 a12.5,12.5 0 0 1 -12.5,12.5 h-78 a12.5,12.5 0 0 1 -12.5,-12.5 v0 a12.5,12.5 0 0 1 12.5,-12.5"/></clipPath></defs><mask id="satori_om-id-1-2-0"><rect x="256" y="230" width="101" height="23" fill="#fff" mask="url(#satori_om-id)"/><path width="103" height="25" fill="none" stroke="#000" stroke-width="2" d="M258.661,232.661 A12.5,12.5 0 0 1 267.5,229 h78 a12.5,12.5 0 0 1 12.5,12.5 v0 a12.5,12.5 0 0 1 -12.5,12.5 h-78 a12.5,12.5 0 0 1 -12.5,-12.5 v0 A12.5,12.5 0 0 1 258.661,232.661"/></mask><path x="255" y="229" width="103" height="25" fill="rgba(255,255,255,0.04)" d="M267.5,229 h78 a12.5,12.5 0 0 1 12.5,12.5 v0 a12.5,12.5 0 0 1 -12.5,12.5 h-78 a12.5,12.5 0 0 1 -12.5,-12.5 v0 a12.5,12.5 0 0 1 12.5,-12.5" clip-path="url(#satori_cp-id)" mask="url(#satori_om-id)"/><path width="103" height="25" clip-path="url(#satori_bc-id-1-2-0)" fill="none" stroke="rgba(255,255,255,0.09)" stroke-width="2" d="M258.661,232.661 A12.5,12.5 0 0 1 267.5,229 h78 a12.5,12.5 0 0 1 12.5,12.5 v0 a12.5,12.5 0 0 1 -12.5,12.5 h-78 a12.5,12.5 0 0 1 -12.5,-12.5 v0 A12.5,12.5 0 0 1 258.661,232.661"/><g mask="url(#satori_om-id)" clip-path="url(#satori_cp-id)"><path fill="rgba(255,255,255,0.55)" d="M273.8 246L272.8 246L272.8 240.0L273.8 240.0L273.8 241.1Q273.9 240.8 274.1 240.5L274.1 240.5Q274.4 240.2 274.7 240.0Q275.1 239.9 275.5 239.9L275.5 239.9Q276.1 239.9 276.5 240.3L276.5 240.3Q276.9 240.6 277.0 241.1L277.0 241.1Q277.1 240.8 277.3 240.6L277.3 240.6Q277.6 240.2 278.0 240.1Q278.4 239.9 278.9 239.9L278.9 239.9Q279.4 239.9 279.8 240.1Q280.3 240.3 280.5 240.8Q280.8 241.3 280.8 242.0L280.8 242.0L280.8 246L279.8 246L279.8 242.0Q279.8 241.3 279.5 241.0Q279.1 240.8 278.6 240.8L278.6 240.8Q278.2 240.8 277.9 240.9Q277.6 241.1 277.5 241.4Q277.3 241.7 277.3 242.1L277.3 242.1L277.3 246L276.3 246L276.3 241.9Q276.3 241.4 276.0 241.1Q275.7 240.8 275.2 240.8L275.2 240.8Q274.8 240.8 274.5 240.9Q274.2 241.1 274.0 241.4Q273.8 241.7 273.8 242.2L273.8 242.2L273.8 246ZM284.5 246L283.5 246L283.5 240.0L284.5 240.0L284.5 246ZM284.0 239.0L284.0 239.0Q283.7 239.0 283.5 238.8Q283.3 238.6 283.3 238.4L283.3 238.4Q283.3 238.1 283.5 237.9Q283.7 237.7 284.0 237.7L284.0 237.7Q284.3 237.7 284.5 237.9Q284.6 238.1 284.6 238.4L284.6 238.4Q284.6 238.6 284.5 238.8Q284.3 239.0 284.0 239.0ZM288.1 242.4L288.1 242.4L288.1 246L287.1 246L287.1 240.0L288.1 240.0L288.1 241.1Q288.3 240.5 288.7 240.3L288.7 240.3Q289.2 239.9 289.9 239.9L289.9 239.9Q290.5 239.9 291.0 240.2Q291.4 240.4 291.7 240.9Q292.0 241.4 292.0 242.2L292.0 242.2L292.0 246L291.0 246L291.0 242.3Q291.0 241.6 290.6 241.2Q290.3 240.8 289.6 240.8L289.6 240.8Q289.2 240.8 288.9 241.0Q288.5 241.2 288.3 241.5Q288.1 241.9 288.1 242.4ZM295.6 246L294.6 246L294.6 240.0L295.6 240.0L295.6 246ZM295.1 239.0L295.1 239.0Q294.9 239.0 294.7 238.8Q294.5 238.6 294.5 238.4L294.5 238.4Q294.5 238.1 294.7 237.9Q294.9 237.7 295.1 237.7L295.1 237.7Q295.4 237.7 295.6 237.9Q295.8 238.1 295.8 238.4L295.8 238.4Q295.8 238.6 295.6 238.8Q295.4 239.0 295.1 239.0ZM299.3 246L298.3 246L298.3 240.0L299.3 240.0L299.3 241.1Q299.4 240.8 299.6 240.5L299.6 240.5Q299.8 240.2 300.2 240.0Q300.6 239.9 300.9 239.9L300.9 239.9Q301.6 239.9 302.0 240.3L302.0 240.3Q302.3 240.6 302.5 241.1L302.5 241.1Q302.6 240.8 302.8 240.6L302.8 240.6Q303.1 240.2 303.5 240.1Q303.9 239.9 304.4 239.9L304.4 239.9Q304.9 239.9 305.3 240.1Q305.7 240.3 306.0 240.8Q306.3 241.3 306.3 242.0L306.3 242.0L306.3 246L305.3 246L305.3 242.0Q305.3 241.3 304.9 241.0Q304.6 240.8 304.1 240.8L304.1 240.8Q303.7 240.8 303.4 240.9Q303.1 241.1 302.9 241.4Q302.8 241.7 302.8 242.1L302.8 242.1L302.8 246L301.8 246L301.8 241.9Q301.8 241.4 301.5 241.1Q301.1 240.8 300.6 240.8L300.6 240.8Q300.3 240.8 300.0 240.9Q299.7 241.1 299.5 241.4Q299.3 241.7 299.3 242.2L299.3 242.2L299.3 246ZM310.6 246.1L310.6 246.1Q310.1 246.1 309.6 245.9Q309.1 245.7 308.9 245.3Q308.6 244.9 308.6 244.3L308.6 244.3Q308.6 243.8 308.8 243.5Q309.0 243.1 309.3 242.9Q309.7 242.8 310.1 242.7Q310.5 242.6 310.9 242.5L310.9 242.5Q311.5 242.5 311.8 242.4Q312.1 242.4 312.3 242.3Q312.5 242.2 312.5 242.0L312.5 242.0L312.5 241.9Q312.5 241.6 312.3 241.3Q312.2 241.0 311.9 240.9Q311.6 240.8 311.2 240.8L311.2 240.8Q310.8 240.8 310.5 240.9Q310.2 241.0 310.0 241.2Q309.8 241.4 309.7 241.6L309.7 241.6L308.8 241.3Q309.0 240.8 309.4 240.5Q309.8 240.2 310.2 240.0Q310.7 239.9 311.2 239.9L311.2 239.9Q311.5 239.9 311.9 240.0Q312.2 240.1 312.6 240.3Q313.0 240.5 313.2 240.9Q313.4 241.3 313.4 242.0L313.4 242.0L313.4 246L312.5 246L312.5 245.2L312.4 245.2Q312.3 245.4 312.1 245.6Q311.9 245.8 311.5 246.0Q311.1 246.1 310.6 246.1ZM310.8 245.3L310.8 245.3Q311.3 245.3 311.7 245.1Q312.1 244.9 312.3 244.5Q312.5 244.2 312.5 243.8L312.5 243.8L312.5 243.0Q312.4 243.1 312.2 243.1Q312.0 243.2 311.7 243.2Q311.5 243.3 311.3 243.3Q311.0 243.3 310.9 243.3L310.9 243.3Q310.5 243.4 310.2 243.5Q309.9 243.6 309.7 243.8Q309.6 244.0 309.6 244.3L309.6 244.3Q309.6 244.7 309.7 244.9Q309.9 245.1 310.2 245.2Q310.4 245.3 310.8 245.3ZM316.1 238.0L317.1 238.0L317.1 246L316.1 246L316.1 238.0ZM320.8 246L319.8 246L319.8 240.0L320.8 240.0L320.8 246ZM320.3 239.0L320.3 239.0Q320.0 239.0 319.8 238.8Q319.6 238.6 319.6 238.4L319.6 238.4Q319.6 238.1 319.8 237.9Q320.0 237.7 320.3 237.7L320.3 237.7Q320.6 237.7 320.8 237.9Q321.0 238.1 321.0 238.4L321.0 238.4Q321.0 238.6 320.8 238.8Q320.6 239.0 320.3 239.0ZM325.5 246.1L325.5 246.1Q324.9 246.1 324.4 245.9Q323.9 245.8 323.6 245.4Q323.3 245.1 323.2 244.5L323.2 244.5L324.1 244.3Q324.2 244.8 324.6 245.0Q324.9 245.3 325.5 245.3L325.5 245.3Q326.1 245.3 326.5 245.0Q326.9 244.7 326.9 244.4L326.9 244.4Q326.9 244.1 326.6 243.9Q326.4 243.6 326.0 243.5L326.0 243.5L325.0 243.3Q324.2 243.1 323.8 242.7Q323.4 242.3 323.4 241.7L323.4 241.7Q323.4 241.2 323.7 240.8Q323.9 240.4 324.4 240.1Q325.0 239.9 325.6 239.9L325.6 239.9Q326.2 239.9 326.6 240.1Q327.1 240.3 327.3 240.6Q327.6 240.9 327.7 241.4L327.7 241.4L326.9 241.6Q326.8 241.3 326.5 241.0Q326.2 240.7 325.6 240.7L325.6 240.7Q325.1 240.7 324.7 241.0Q324.3 241.2 324.3 241.6L324.3 241.6Q324.3 241.9 324.6 242.1Q324.8 242.3 325.4 242.5L325.4 242.5L326.3 242.7Q327.1 242.9 327.5 243.3Q327.9 243.7 327.9 244.3L327.9 244.3Q327.9 244.8 327.6 245.2Q327.3 245.7 326.7 245.9Q326.2 246.1 325.5 246.1ZM331.2 246L330.3 246L330.3 240.0L331.2 240.0L331.2 241.1Q331.3 240.8 331.5 240.5L331.5 240.5Q331.8 240.2 332.1 240.0Q332.5 239.9 332.9 239.9L332.9 239.9Q333.5 239.9 333.9 240.3L333.9 240.3Q334.3 240.6 334.4 241.1L334.4 241.1Q334.5 240.8 334.7 240.6L334.7 240.6Q335.0 240.2 335.4 240.1Q335.8 239.9 336.3 239.9L336.3 239.9Q336.8 239.9 337.3 240.1Q337.7 240.3 337.9 240.8Q338.2 241.3 338.2 242.0L338.2 242.0L338.2 246L337.2 246L337.2 242.0Q337.2 241.3 336.9 241.0Q336.5 240.8 336.0 240.8L336.0 240.8Q335.6 240.8 335.3 240.9Q335.0 241.1 334.9 241.4Q334.7 241.7 334.7 242.1L334.7 242.1L334.7 246L333.7 246L333.7 241.9Q333.7 241.4 333.4 241.1Q333.1 240.8 332.6 240.8L332.6 240.8Q332.2 240.8 331.9 240.9Q331.6 241.1 331.4 241.4Q331.2 241.7 331.2 242.2L331.2 242.2L331.2 246Z "/></g><defs><clipPath id="satori_bc-id-1-2-1" clip-path="url(#satori_cp-id)"><path x="366" y="229" width="111" height="25" d="M378.5,229 h86 a12.5,12.5 0 0 1 12.5,12.5 v0 a12.5,12.5 0 0 1 -12.5,12.5 h-86 a12.5,12.5 0 0 1 -12.5,-12.5 v0 a12.5,12.5 0 0 1 12.5,-12.5"/></clipPath></defs><mask id="satori_om-id-1-2-1"><rect x="367" y="230" width="109" height="23" fill="#fff" mask="url(#satori_om-id)"/><path width="111" height="25" fill="none" stroke="#000" stroke-width="2" d="M369.661,232.661 A12.5,12.5 0 0 1 378.5,229 h86 a12.5,12.5 0 0 1 12.5,12.5 v0 a12.5,12.5 0 0 1 -12.5,12.5 h-86 a12.5,12.5 0 0 1 -12.5,-12.5 v0 A12.5,12.5 0 0 1 369.661,232.661"/></mask><path x="366" y="229" width="111" height="25" fill="rgba(255,255,255,0.04)" d="M378.5,229 h86 a12.5,12.5 0 0 1 12.5,12.5 v0 a12.5,12.5 0 0 1 -12.5,12.5 h-86 a12.5,12.5 0 0 1 -12.5,-12.5 v0 a12.5,12.5 0 0 1 12.5,-12.5" clip-path="url(#satori_cp-id)" mask="url(#satori_om-id)"/><path width="111" height="25" clip-path="url(#satori_bc-id-1-2-1)" fill="none" stroke="rgba(255,255,255,0.09)" stroke-width="2" d="M369.661,232.661 A12.5,12.5 0 0 1 378.5,229 h86 a12.5,12.5 0 0 1 12.5,12.5 v0 a12.5,12.5 0 0 1 -12.5,12.5 h-86 a12.5,12.5 0 0 1 -12.5,-12.5 v0 A12.5,12.5 0 0 1 369.661,232.661"/><g mask="url(#satori_om-id)" clip-path="url(#satori_cp-id)"><path fill="rgba(255,255,255,0.55)" d="M386.3 246.1L386.3 246.1Q385.5 246.1 384.9 245.7Q384.2 245.4 383.9 244.7Q383.6 244.0 383.6 243.0L383.6 243.0Q383.6 242.1 383.9 241.4Q384.2 240.7 384.9 240.3Q385.5 239.9 386.3 239.9L386.3 239.9Q387.1 239.9 387.7 240.3Q388.3 240.7 388.7 241.4Q389.0 242.1 389.0 243.0L389.0 243.0Q389.0 244.0 388.7 244.7Q388.3 245.4 387.7 245.7Q387.1 246.1 386.3 246.1ZM386.3 245.3L386.3 245.3Q386.9 245.3 387.3 245.0Q387.7 244.6 387.9 244.1Q388.1 243.6 388.1 243.0L388.1 243.0Q388.1 242.4 387.9 241.9Q387.7 241.4 387.3 241.1Q386.9 240.8 386.3 240.8L386.3 240.8Q385.7 240.8 385.3 241.1Q384.9 241.4 384.7 241.9Q384.5 242.4 384.5 243.0L384.5 243.0Q384.5 243.6 384.7 244.1Q384.9 244.6 385.3 245.0Q385.7 245.3 386.3 245.3ZM392.4 248.2L391.4 248.2L391.4 240.0L392.4 240.0L392.4 241.0L392.5 241.0Q392.6 240.8 392.8 240.6Q393.0 240.3 393.3 240.1Q393.6 239.9 394.2 239.9L394.2 239.9Q395.0 239.9 395.6 240.3Q396.1 240.7 396.4 241.4Q396.8 242.1 396.8 243.0L396.8 243.0Q396.8 244.0 396.5 244.7Q396.1 245.4 395.6 245.7Q395.0 246.1 394.2 246.1L394.2 246.1Q393.7 246.1 393.3 245.9Q393.0 245.7 392.8 245.5Q392.6 245.2 392.5 245.1L392.5 245.1L392.4 245.1L392.4 248.2ZM394.1 245.3L394.1 245.3Q394.7 245.3 395.0 245.0Q395.4 244.7 395.6 244.1Q395.8 243.6 395.8 243.0L395.8 243.0Q395.8 242.4 395.6 241.9Q395.4 241.4 395.0 241.1Q394.7 240.8 394.1 240.8L394.1 240.8Q393.5 240.8 393.2 241.1Q392.8 241.3 392.6 241.8Q392.4 242.3 392.4 243.0L392.4 243.0Q392.4 243.7 392.6 244.2Q392.8 244.7 393.2 245.0Q393.5 245.3 394.1 245.3ZM401.7 246.1L401.7 246.1Q400.8 246.1 400.2 245.7Q399.6 245.4 399.2 244.7Q398.9 244.0 398.9 243.0Q398.9 242.1 399.2 241.4Q399.6 240.7 400.2 240.3Q400.8 239.9 401.6 239.9L401.6 239.9Q402.1 239.9 402.5 240.1Q403.0 240.2 403.4 240.6Q403.8 240.9 404.0 241.5Q404.2 242.1 404.2 242.9L404.2 242.9L404.2 243.3L399.9 243.3Q399.9 243.9 400.1 244.3L400.1 244.3Q400.3 244.8 400.7 245.0Q401.2 245.3 401.7 245.3L401.7 245.3Q402.1 245.3 402.4 245.2Q402.6 245.1 402.9 244.9Q403.1 244.7 403.2 244.3L403.2 244.3L404.1 244.6Q404.0 245.1 403.6 245.4Q403.3 245.7 402.8 245.9Q402.3 246.1 401.7 246.1ZM399.9 242.5L399.9 242.5L403.2 242.5Q403.2 242.1 403.1 241.8L403.1 241.8Q402.9 241.3 402.5 241.0Q402.1 240.8 401.6 240.8Q401.0 240.8 400.7 241.0Q400.3 241.3 400.1 241.7L400.1 241.7Q399.9 242.1 399.9 242.5ZM407.6 242.4L407.6 242.4L407.6 246L406.6 246L406.6 240.0L407.5 240.0L407.5 241.1Q407.8 240.5 408.2 240.3L408.2 240.3Q408.7 239.9 409.4 239.9L409.4 239.9Q410.0 239.9 410.4 240.2Q410.9 240.4 411.1 240.9Q411.4 241.4 411.4 242.2L411.4 242.2L411.4 246L410.4 246L410.4 242.3Q410.4 241.6 410.1 241.2Q409.7 240.8 409.1 240.8L409.1 240.8Q408.6 240.8 408.3 241.0Q408.0 241.2 407.8 241.5Q407.6 241.9 407.6 242.4Z M420.2 246.1L420.2 246.1Q419.6 246.1 419.1 245.9Q418.6 245.8 418.3 245.4Q418.0 245.1 417.9 244.5L417.9 244.5L418.8 244.3Q419.0 244.8 419.3 245.0Q419.7 245.3 420.2 245.3L420.2 245.3Q420.8 245.3 421.2 245.0Q421.6 244.7 421.6 244.4L421.6 244.4Q421.6 244.1 421.4 243.9Q421.2 243.6 420.7 243.5L420.7 243.5L419.7 243.3Q418.9 243.1 418.5 242.7Q418.1 242.3 418.1 241.7L418.1 241.7Q418.1 241.2 418.4 240.8Q418.7 240.4 419.2 240.1Q419.7 239.9 420.3 239.9L420.3 239.9Q420.9 239.9 421.4 240.1Q421.8 240.3 422.1 240.6Q422.3 240.9 422.5 241.4L422.5 241.4L421.6 241.6Q421.5 241.3 421.2 241.0Q420.9 240.7 420.3 240.7L420.3 240.7Q419.8 240.7 419.4 241.0Q419.1 241.2 419.1 241.6L419.1 241.6Q419.1 241.9 419.3 242.1Q419.6 242.3 420.1 242.5L420.1 242.5L421.0 242.7Q421.8 242.9 422.2 243.3Q422.6 243.7 422.6 244.3L422.6 244.3Q422.6 244.8 422.3 245.2Q422.0 245.7 421.5 245.9Q420.9 246.1 420.2 246.1ZM427.4 246.1L427.4 246.1Q426.6 246.1 426.0 245.7Q425.4 245.4 425.0 244.7Q424.7 244.0 424.7 243.0L424.7 243.0Q424.7 242.1 425.0 241.4Q425.4 240.7 426.0 240.3Q426.6 239.9 427.4 239.9L427.4 239.9Q428.3 239.9 428.9 240.3Q429.5 240.7 429.8 241.4Q430.2 242.1 430.2 243.0L430.2 243.0Q430.2 244.0 429.8 244.7Q429.5 245.4 428.9 245.7Q428.3 246.1 427.4 246.1ZM427.4 245.3L427.4 245.3Q428.0 245.3 428.4 245.0Q428.8 244.6 429.0 244.1Q429.2 243.6 429.2 243.0L429.2 243.0Q429.2 242.4 429.0 241.9Q428.8 241.4 428.4 241.1Q428.0 240.8 427.4 240.8L427.4 240.8Q426.8 240.8 426.4 241.1Q426.1 241.4 425.9 241.9Q425.7 242.4 425.7 243.0L425.7 243.0Q425.7 243.6 425.9 244.1Q426.1 244.6 426.4 245.0Q426.8 245.3 427.4 245.3ZM434.6 246.1L434.6 246.1Q434.0 246.1 433.6 245.8Q433.1 245.6 432.8 245.1Q432.6 244.6 432.6 243.8L432.6 243.8L432.6 240.0L433.6 240.0L433.6 243.7Q433.6 244.4 433.9 244.8Q434.3 245.2 434.9 245.2L434.9 245.2Q435.3 245.2 435.7 245.0Q436.0 244.8 436.2 244.5Q436.4 244.1 436.4 243.6L436.4 243.6L436.4 240.0L437.4 240.0L437.4 246L436.5 246L436.5 244.9Q436.2 245.5 435.8 245.7L435.8 245.7Q435.3 246.1 434.6 246.1ZM441.1 246L440.1 246L440.1 240.0L441.0 240.0L441.0 240.9L441.1 240.9Q441.3 240.5 441.7 240.2Q442.1 239.9 442.6 239.9L442.6 239.9Q442.8 239.9 442.9 239.9Q443.1 239.9 443.1 239.9L443.1 239.9L443.1 240.9Q443.1 240.9 442.9 240.9Q442.8 240.8 442.6 240.8L442.6 240.8Q442.1 240.8 441.8 241.0Q441.4 241.2 441.3 241.5Q441.1 241.8 441.1 242.2L441.1 242.2L441.1 246ZM447.7 246.1L447.7 246.1Q446.9 246.1 446.2 245.7Q445.6 245.4 445.3 244.7Q444.9 244.0 444.9 243.0L444.9 243.0Q444.9 242.1 445.3 241.4Q445.6 240.7 446.2 240.3Q446.9 239.9 447.7 239.9L447.7 239.9Q448.1 239.9 448.5 240.0Q448.9 240.1 449.2 240.4Q449.5 240.6 449.8 240.9Q450.0 241.2 450.1 241.6L450.1 241.6L449.2 241.8Q449.1 241.6 449.0 241.4Q448.8 241.2 448.7 241.1Q448.5 240.9 448.2 240.9Q448.0 240.8 447.7 240.8L447.7 240.8Q447.1 240.8 446.7 241.1Q446.3 241.4 446.1 241.9Q445.9 242.4 445.9 243.0L445.9 243.0Q445.9 243.6 446.1 244.1Q446.3 244.6 446.7 245.0Q447.1 245.3 447.7 245.3L447.7 245.3Q448.0 245.3 448.2 245.2Q448.5 245.1 448.7 245.0Q448.9 244.8 449.0 244.6Q449.1 244.4 449.2 244.2L449.2 244.2L450.1 244.4Q450.0 244.8 449.8 245.1Q449.5 245.5 449.2 245.7Q448.9 245.9 448.5 246.0Q448.1 246.1 447.7 246.1ZM455.0 246.1L455.0 246.1Q454.2 246.1 453.5 245.7Q452.9 245.4 452.6 244.7Q452.2 244.0 452.2 243.0Q452.2 242.1 452.6 241.4Q452.9 240.7 453.5 240.3Q454.1 239.9 454.9 239.9L454.9 239.9Q455.4 239.9 455.9 240.1Q456.3 240.2 456.7 240.6Q457.1 240.9 457.3 241.5Q457.5 242.1 457.5 242.9L457.5 242.9L457.5 243.3L453.2 243.3Q453.2 243.9 453.4 244.3L453.4 244.3Q453.7 244.8 454.1 245.0Q454.5 245.3 455.0 245.3L455.0 245.3Q455.4 245.3 455.7 245.2Q456.0 245.1 456.2 244.9Q456.4 244.7 456.5 244.3L456.5 244.3L457.4 244.6Q457.3 245.1 457.0 245.4Q456.6 245.7 456.2 245.9Q455.7 246.1 455.0 246.1ZM453.2 242.5L453.2 242.5L456.6 242.5Q456.5 242.1 456.4 241.8L456.4 241.8Q456.2 241.3 455.8 241.0Q455.5 240.8 454.9 240.8Q454.4 240.8 454.0 241.0Q453.6 241.3 453.4 241.7L453.4 241.7Q453.2 242.1 453.2 242.5Z "/></g><defs><clipPath id="satori_bc-id-1-2-2" clip-path="url(#satori_cp-id)"><path x="485" y="229" width="60" height="25" d="M497.5,229 h35 a12.5,12.5 0 0 1 12.5,12.5 v0 a12.5,12.5 0 0 1 -12.5,12.5 h-35 a12.5,12.5 0 0 1 -12.5,-12.5 v0 a12.5,12.5 0 0 1 12.5,-12.5"/></clipPath></defs><mask id="satori_om-id-1-2-2"><rect x="486" y="230" width="58" height="23" fill="#fff" mask="url(#satori_om-id)"/><path width="60" height="25" fill="none" stroke="#000" stroke-width="2" d="M488.661,232.661 A12.5,12.5 0 0 1 497.5,229 h35 a12.5,12.5 0 0 1 12.5,12.5 v0 a12.5,12.5 0 0 1 -12.5,12.5 h-35 a12.5,12.5 0 0 1 -12.5,-12.5 v0 A12.5,12.5 0 0 1 488.661,232.661"/></mask><path x="485" y="229" width="60" height="25" fill="rgba(255,255,255,0.04)" d="M497.5,229 h35 a12.5,12.5 0 0 1 12.5,12.5 v0 a12.5,12.5 0 0 1 -12.5,12.5 h-35 a12.5,12.5 0 0 1 -12.5,-12.5 v0 a12.5,12.5 0 0 1 12.5,-12.5" clip-path="url(#satori_cp-id)" mask="url(#satori_om-id)"/><path width="60" height="25" clip-path="url(#satori_bc-id-1-2-2)" fill="none" stroke="rgba(255,255,255,0.09)" stroke-width="2" d="M488.661,232.661 A12.5,12.5 0 0 1 497.5,229 h35 a12.5,12.5 0 0 1 12.5,12.5 v0 a12.5,12.5 0 0 1 -12.5,12.5 h-35 a12.5,12.5 0 0 1 -12.5,-12.5 v0 A12.5,12.5 0 0 1 488.661,232.661"/><g mask="url(#satori_om-id)" clip-path="url(#satori_cp-id)"><path fill="rgba(255,255,255,0.55)" d="M505.2 246L504.2 246L502.4 240.0L503.4 240.0L504.1 242.6Q504.3 243.2 504.5 243.8L504.5 243.8Q504.6 244.3 504.7 245.0L504.7 245.0Q504.8 244.4 505.0 243.9L505.0 243.9Q505.1 243.2 505.3 242.6L505.3 242.6L506.0 240.0L507.0 240.0L507.7 242.6Q507.9 243.2 508.1 243.8L508.1 243.8Q508.2 244.4 508.3 244.9L508.3 244.9Q508.4 244.4 508.5 243.9L508.5 243.9Q508.7 243.2 508.9 242.6L508.9 242.6L509.6 240.0L510.6 240.0L508.8 246L507.8 246L507.1 243.3Q506.9 242.9 506.8 242.4Q506.7 242.0 506.6 241.6L506.6 241.6Q506.6 241.3 506.5 241.1L506.5 241.1Q506.4 241.3 506.4 241.6L506.4 241.6Q506.3 242.0 506.2 242.4Q506.1 242.9 505.9 243.3L505.9 243.3L505.2 246ZM515.4 246.1L515.4 246.1Q514.5 246.1 513.9 245.7Q513.2 245.4 512.9 244.7Q512.6 244.0 512.6 243.0Q512.6 242.1 512.9 241.4Q513.2 240.7 513.8 240.3Q514.4 239.9 515.3 239.9L515.3 239.9Q515.7 239.9 516.2 240.1Q516.7 240.2 517.0 240.6Q517.4 240.9 517.7 241.5Q517.9 242.1 517.9 242.9L517.9 242.9L517.9 243.3L513.5 243.3Q513.6 243.9 513.8 244.3L513.8 244.3Q514 244.8 514.4 245.0Q514.8 245.3 515.4 245.3L515.4 245.3Q515.7 245.3 516.0 245.2Q516.3 245.1 516.5 244.9Q516.7 244.7 516.8 244.3L516.8 244.3L517.8 244.6Q517.6 245.1 517.3 245.4Q517.0 245.7 516.5 245.9Q516.0 246.1 515.4 246.1ZM513.5 242.5L513.5 242.5L516.9 242.5Q516.9 242.1 516.7 241.8L516.7 241.8Q516.5 241.3 516.2 241.0Q515.8 240.8 515.3 240.8Q514.7 240.8 514.3 241.0Q513.9 241.3 513.7 241.7L513.7 241.7Q513.6 242.1 513.5 242.5ZM523.1 246.1L523.1 246.1Q522.5 246.1 522.1 245.9Q521.8 245.7 521.6 245.5Q521.4 245.2 521.3 245.1L521.3 245.1L521.2 245.1L521.2 246L520.3 246L520.3 238.0L521.2 238.0L521.2 241.0L521.3 241.0Q521.4 240.8 521.6 240.6Q521.8 240.3 522.1 240.1Q522.5 239.9 523.0 239.9L523.0 239.9Q523.8 239.9 524.4 240.3Q524.9 240.7 525.3 241.4Q525.6 242.1 525.6 243.0L525.6 243.0Q525.6 244.0 525.3 244.7Q524.9 245.4 524.4 245.7Q523.8 246.1 523.1 246.1ZM522.9 245.3L522.9 245.3Q523.5 245.3 523.8 245.0Q524.2 244.7 524.4 244.1Q524.6 243.6 524.6 243.0L524.6 243.0Q524.6 242.4 524.4 241.9Q524.2 241.4 523.9 241.1Q523.5 240.8 522.9 240.8L522.9 240.8Q522.4 240.8 522.0 241.1Q521.6 241.3 521.4 241.8Q521.2 242.3 521.2 243.0L521.2 243.0Q521.2 243.7 521.4 244.2Q521.6 244.7 522.0 245.0Q522.4 245.3 522.9 245.3Z "/></g></svg>