<!-- Generated by readme-aura https://github.com/collectioneur/readme-aura -->
<svg width="800" height="28" viewBox="0 0 800 28" xmlns="http://www.w3.org/2000/svg"><mask id="satori_om-id"><rect x="0" y="0" width="340" height="15" fill="#fff"/></mask><mask id="satori_om-id-0"><rect x="0" y="0" width="96" height="15" fill="#fff"/></mask><g  ><path fill="rgba(255,255,255,.45)" d="M3.2 12.1L3.2 12.1Q2.5 12.1 2.0 11.9Q1.4 11.7 1.1 11.4Q0.8 11.0 0.6 10.4L0.6 10.4L1.6 10.2Q1.8 10.7 2.2 11.0Q2.6 11.2 3.1 11.2L3.1 11.2Q3.8 11.2 4.2 10.9Q4.6 10.6 4.6 10.2L4.6 10.2Q4.6 9.9 4.4 9.7Q4.2 9.4 3.7 9.3L3.7 9.3L2.6 9.1Q1.7 8.9 1.3 8.4Q0.8 8.0 0.8 7.3L0.8 7.3Q0.8 6.7 1.1 6.3Q1.5 5.9 2.0 5.6Q2.6 5.4 3.3 5.4L3.3 5.4Q3.9 5.4 4.4 5.6Q4.9 5.8 5.2 6.1Q5.5 6.5 5.6 6.9L5.6 6.9L4.7 7.2Q4.5 6.8 4.2 6.6Q3.9 6.3 3.3 6.3L3.3 6.3Q2.7 6.3 2.3 6.5Q1.9 6.8 1.9 7.2L1.9 7.2Q1.9 7.6 2.2 7.8Q2.4 8.0 3 8.2L3 8.2L4.0 8.4Q4.9 8.6 5.3 9.0Q5.7 9.5 5.7 10.2L5.7 10.2Q5.7 10.7 5.4 11.2Q5.1 11.6 4.5 11.9Q3.9 12.1 3.2 12.1ZM8.3 14.4L7.3 14.4L7.3 5.4L8.3 5.4L8.3 6.5L8.4 6.5Q8.5 6.3 8.7 6.1Q8.9 5.8 9.3 5.6Q9.7 5.4 10.3 5.4L10.3 5.4Q11.1 5.4 11.7 5.8Q12.4 6.2 12.7 6.9Q13.1 7.7 13.1 8.7L13.1 8.7Q13.1 9.8 12.7 10.5Q12.4 11.3 11.7 11.7Q11.1 12.1 10.3 12.1L10.3 12.1Q9.7 12.1 9.3 11.9Q8.9 11.7 8.7 11.4Q8.5 11.2 8.4 11.0L8.4 11.0L8.3 11.0L8.3 14.4ZM10.1 11.2L10.1 11.2Q10.8 11.2 11.2 10.9Q11.6 10.5 11.8 10.0Q12 9.4 12 8.7L12 8.7Q12 8.1 11.8 7.5Q11.6 7.0 11.2 6.6Q10.8 6.3 10.1 6.3L10.1 6.3Q9.5 6.3 9.1 6.6Q8.7 6.9 8.5 7.5Q8.3 8.0 8.3 8.7L8.3 8.7Q8.3 9.5 8.5 10.0Q8.7 10.6 9.1 10.9Q9.6 11.2 10.1 11.2ZM17.4 12.1L17.4 12.1Q16.4 12.1 15.7 11.7Q15.0 11.3 14.7 10.5Q14.3 9.8 14.3 8.8Q14.3 7.8 14.7 7.0Q15.0 6.2 15.7 5.8Q16.3 5.4 17.2 5.4L17.2 5.4Q17.8 5.4 18.3 5.5Q18.8 5.7 19.2 6.1Q19.6 6.5 19.8 7.1Q20.1 7.7 20.1 8.6L20.1 8.6L20.1 9.1L15.4 9.1Q15.4 9.7 15.6 10.2L15.6 10.2Q15.9 10.7 16.3 10.9Q16.8 11.2 17.4 11.2L17.4 11.2Q17.8 11.2 18.1 11.1Q18.4 11.0 18.6 10.8Q18.8 10.5 19.0 10.2L19.0 10.2L20.0 10.5Q19.8 11.0 19.5 11.3Q19.1 11.7 18.6 11.9Q18.0 12.1 17.4 12.1ZM15.4 8.2L15.4 8.2L19.0 8.2Q19.0 7.7 18.8 7.4L18.8 7.4Q18.6 6.9 18.2 6.6Q17.8 6.3 17.2 6.3Q16.6 6.3 16.2 6.6Q15.8 6.9 15.6 7.3L15.6 7.3Q15.4 7.7 15.4 8.2ZM24.3 12.1L24.3 12.1Q23.4 12.1 22.7 11.7Q22.0 11.3 21.7 10.5Q21.3 9.8 21.3 8.8L21.3 8.8Q21.3 7.7 21.7 7.0Q22.0 6.2 22.7 5.8Q23.4 5.4 24.3 5.4L24.3 5.4Q24.7 5.4 25.2 5.5Q25.6 5.6 25.9 5.8Q26.3 6.1 26.5 6.4Q26.8 6.8 26.9 7.2L26.9 7.2L25.9 7.5Q25.8 7.2 25.7 7.0Q25.5 6.8 25.3 6.6Q25.1 6.5 24.9 6.4Q24.6 6.3 24.3 6.3L24.3 6.3Q23.6 6.3 23.2 6.7Q22.8 7.0 22.6 7.6Q22.4 8.1 22.4 8.8L22.4 8.8Q22.4 9.4 22.6 10.0Q22.8 10.5 23.2 10.9Q23.6 11.2 24.3 11.2L24.3 11.2Q24.6 11.2 24.9 11.1Q25.1 11.0 25.4 10.9Q25.6 10.7 25.7 10.5Q25.9 10.3 25.9 10.0L25.9 10.0L26.9 10.3Q26.8 10.7 26.6 11.1Q26.3 11.4 26.0 11.6Q25.6 11.9 25.2 12.0Q24.8 12.1 24.3 12.1ZM29.5 12L28.5 12L28.5 5.4L29.5 5.4L29.5 12ZM29.0 4.4L29.0 4.4Q28.7 4.4 28.5 4.2Q28.3 4.0 28.3 3.7L28.3 3.7Q28.3 3.4 28.5 3.2Q28.7 3.0 29.0 3.0L29.0 3.0Q29.3 3.0 29.5 3.2Q29.7 3.4 29.7 3.7L29.7 3.7Q29.7 4.0 29.5 4.2Q29.3 4.4 29.0 4.4ZM33.2 12.2L33.2 12.2Q32.6 12.2 32.1 11.9Q31.6 11.7 31.3 11.2Q31.0 10.8 31.0 10.1L31.0 10.1Q31.0 9.6 31.2 9.2Q31.4 8.9 31.8 8.7Q32.2 8.5 32.6 8.4Q33.1 8.3 33.5 8.2L33.5 8.2Q34.1 8.1 34.5 8.1Q34.8 8.1 35.0 8.0Q35.2 7.9 35.2 7.6L35.2 7.6L35.2 7.6Q35.2 7.2 35.0 6.9Q34.9 6.6 34.6 6.4Q34.3 6.3 33.8 6.3L33.8 6.3Q33.4 6.3 33.0 6.4Q32.7 6.6 32.5 6.8Q32.3 7.0 32.2 7.3L32.2 7.3L31.2 6.9Q31.4 6.3 31.8 6.0Q32.3 5.6 32.8 5.5Q33.3 5.4 33.8 5.4L33.8 5.4Q34.1 5.4 34.5 5.4Q35.0 5.5 35.4 5.8Q35.7 6.0 36.0 6.5Q36.3 6.9 36.3 7.7L36.3 7.7L36.3 12L35.2 12L35.2 11.1L35.1 11.1Q35.0 11.3 34.8 11.6Q34.5 11.8 34.1 12.0Q33.8 12.2 33.2 12.2ZM33.4 11.2L33.4 11.2Q34.0 11.2 34.4 11.0Q34.8 10.8 35.0 10.4Q35.2 10.0 35.2 9.6L35.2 9.6L35.2 8.7Q35.1 8.8 34.9 8.9Q34.7 8.9 34.4 9.0Q34.1 9.0 33.9 9.0Q33.6 9.1 33.5 9.1L33.5 9.1Q33.1 9.1 32.8 9.3Q32.4 9.4 32.2 9.6Q32.0 9.8 32.0 10.2L32.0 10.2Q32.0 10.5 32.2 10.8Q32.4 11.0 32.7 11.1Q33.0 11.2 33.4 11.2ZM38.1 3.3L39.2 3.3L39.2 12L38.1 12L38.1 3.3Z M45.6 5.4L47.0 5.4L47.0 6.4L45.6 6.4L45.6 10.3Q45.6 10.7 45.8 10.9Q46.0 11.1 46.4 11.1L46.4 11.1Q46.5 11.1 46.6 11.1Q46.8 11.1 46.9 11.1L46.9 11.1L47.1 12.0Q47.0 12.0 46.8 12.1Q46.6 12.1 46.4 12.1L46.4 12.1Q45.5 12.1 45.0 11.6Q44.6 11.2 44.6 10.4L44.6 10.4L44.6 6.4L43.6 6.4L43.6 5.4L44.6 5.4L44.6 3.9L45.6 3.9L45.6 5.4ZM49.4 8.1L49.4 8.1L49.4 12L48.3 12L48.3 3.3L49.4 3.3L49.4 6.6Q49.6 6.0 50.0 5.7L50.0 5.7Q50.6 5.4 51.3 5.4L51.3 5.4Q52.0 5.4 52.5 5.6Q53.0 5.9 53.3 6.5Q53.6 7.0 53.6 7.8L53.6 7.8L53.6 12L52.5 12L52.5 7.9Q52.5 7.2 52.1 6.7Q51.7 6.3 51.0 6.3L51.0 6.3Q50.5 6.3 50.2 6.5Q49.8 6.7 49.6 7.1Q49.4 7.5 49.4 8.1ZM57.2 12.2L57.2 12.2Q56.6 12.2 56.1 11.9Q55.6 11.7 55.3 11.2Q55.0 10.8 55.0 10.1L55.0 10.1Q55.0 9.6 55.2 9.2Q55.5 8.9 55.8 8.7Q56.2 8.5 56.6 8.4Q57.1 8.3 57.6 8.2L57.6 8.2Q58.1 8.1 58.5 8.1Q58.9 8.1 59.1 8.0Q59.2 7.9 59.2 7.6L59.2 7.6L59.2 7.6Q59.2 7.2 59.1 6.9Q58.9 6.6 58.6 6.4Q58.3 6.3 57.9 6.3L57.9 6.3Q57.4 6.3 57.1 6.4Q56.7 6.6 56.5 6.8Q56.3 7.0 56.2 7.3L56.2 7.3L55.2 6.9Q55.4 6.3 55.9 6.0Q56.3 5.6 56.8 5.5Q57.3 5.4 57.8 5.4L57.8 5.4Q58.2 5.4 58.6 5.4Q59.0 5.5 59.4 5.8Q59.8 6.0 60.0 6.5Q60.3 6.9 60.3 7.7L60.3 7.7L60.3 12L59.3 12L59.3 11.1L59.2 11.1Q59.1 11.3 58.8 11.6Q58.6 11.8 58.2 12.0Q57.8 12.2 57.2 12.2ZM57.4 11.2L57.4 11.2Q58.0 11.2 58.4 11.0Q58.8 10.8 59.0 10.4Q59.2 10.0 59.2 9.6L59.2 9.6L59.2 8.7Q59.2 8.8 59.0 8.9Q58.7 8.9 58.5 9.0Q58.2 9.0 57.9 9.0Q57.7 9.1 57.5 9.1L57.5 9.1Q57.1 9.1 56.8 9.3Q56.5 9.4 56.3 9.6Q56.1 9.8 56.1 10.2L56.1 10.2Q56.1 10.5 56.2 10.8Q56.4 11.0 56.7 11.1Q57.0 11.2 57.4 11.2ZM63.2 8.1L63.2 8.1L63.2 12L62.1 12L62.1 5.4L63.2 5.4L63.2 6.7Q63.4 6.0 63.9 5.7L63.9 5.7Q64.4 5.4 65.2 5.4L65.2 5.4Q65.8 5.4 66.3 5.6Q66.8 5.9 67.1 6.5Q67.4 7.0 67.4 7.8L67.4 7.8L67.4 12L66.3 12L66.3 7.9Q66.3 7.2 65.9 6.7Q65.5 6.3 64.9 6.3L64.9 6.3Q64.4 6.3 64.0 6.5Q63.6 6.7 63.4 7.1Q63.2 7.5 63.2 8.1ZM70.3 12L69.2 12L69.2 3.3L70.3 3.3L70.3 8.3L70.4 8.3L73.2 5.4L74.5 5.4L71.8 8.3L74.7 12L73.4 12L71.0 8.9L70.3 9.6L70.3 12ZM78.0 12.1L78.0 12.1Q77.4 12.1 76.8 11.9Q76.3 11.7 76.0 11.4Q75.6 11.0 75.5 10.4L75.5 10.4L76.5 10.2Q76.7 10.7 77.1 11.0Q77.4 11.2 78.0 11.2L78.0 11.2Q78.7 11.2 79.1 10.9Q79.5 10.6 79.5 10.2L79.5 10.2Q79.5 9.9 79.3 9.7Q79.1 9.4 78.6 9.3L78.6 9.3L77.5 9.1Q76.6 8.9 76.2 8.4Q75.7 8.0 75.7 7.3L75.7 7.3Q75.7 6.7 76.0 6.3Q76.4 5.9 76.9 5.6Q77.5 5.4 78.2 5.4L78.2 5.4Q78.8 5.4 79.3 5.6Q79.8 5.8 80.1 6.1Q80.4 6.5 80.5 6.9L80.5 6.9L79.6 7.2Q79.4 6.8 79.1 6.6Q78.8 6.3 78.2 6.3L78.2 6.3Q77.6 6.3 77.2 6.5Q76.8 6.8 76.8 7.2L76.8 7.2Q76.8 7.6 77.1 7.8Q77.3 8.0 77.9 8.2L77.9 8.2L78.9 8.4Q79.8 8.6 80.2 9.0Q80.6 9.5 80.6 10.2L80.6 10.2Q80.6 10.7 80.3 11.2Q80.0 11.6 79.4 11.9Q78.8 12.1 78.0 12.1Z M86.8 5.4L88.1 5.4L88.1 6.4L86.8 6.4L86.8 10.3Q86.8 10.7 86.9 10.9Q87.1 11.1 87.5 11.1L87.5 11.1Q87.6 11.1 87.8 11.1Q87.9 11.1 88.1 11.1L88.1 11.1L88.3 12.0Q88.1 12.0 87.9 12.1Q87.7 12.1 87.5 12.1L87.5 12.1Q86.7 12.1 86.2 11.6Q85.7 11.2 85.7 10.4L85.7 10.4L85.7 6.4L84.7 6.4L84.7 5.4L85.7 5.4L85.7 3.9L86.8 3.9L86.8 5.4ZM92.1 12.1L92.1 12.1Q91.2 12.1 90.6 11.7Q89.9 11.3 89.5 10.5Q89.1 9.8 89.1 8.8L89.1 8.8Q89.1 7.7 89.5 7.0Q89.9 6.2 90.6 5.8Q91.2 5.4 92.1 5.4L92.1 5.4Q93.0 5.4 93.7 5.8Q94.4 6.2 94.7 7.0Q95.1 7.7 95.1 8.8L95.1 8.8Q95.1 9.8 94.7 10.5Q94.4 11.3 93.7 11.7Q93.0 12.1 92.1 12.1ZM92.1 11.2L92.1 11.2Q92.8 11.2 93.2 10.9Q93.6 10.5 93.8 10.0Q94.0 9.4 94.0 8.8L94.0 8.8Q94.0 8.1 93.8 7.6Q93.6 7.0 93.2 6.7Q92.8 6.3 92.1 6.3L92.1 6.3Q91.5 6.3 91.0 6.7Q90.6 7.0 90.4 7.6Q90.2 8.1 90.2 8.8L90.2 8.8Q90.2 9.4 90.4 10.0Q90.6 10.5 91.0 10.9Q91.5 11.2 92.1 11.2Z "/></g><mask id="satori_om-id-1"><rect x="102" y="0" width="74" height="15" fill="#fff"/></mask><g  ><path fill="#fff" d="M105.6 12.1L105.6 12.1Q104.7 12.1 104.0 11.7Q103.4 11.3 103.0 10.5Q102.6 9.8 102.6 8.8L102.6 8.8Q102.6 7.7 103.0 7.0Q103.4 6.2 104.0 5.8Q104.7 5.4 105.6 5.4L105.6 5.4Q106.1 5.4 106.5 5.5Q106.9 5.6 107.3 5.8Q107.6 6.1 107.9 6.4Q108.1 6.8 108.2 7.2L108.2 7.2L107.2 7.5Q107.2 7.2 107.0 7.0Q106.9 6.8 106.7 6.6Q106.5 6.5 106.2 6.4Q105.9 6.3 105.6 6.3L105.6 6.3Q104.9 6.3 104.5 6.7Q104.1 7.0 103.9 7.6Q103.7 8.1 103.7 8.8L103.7 8.8Q103.7 9.4 103.9 10.0Q104.1 10.5 104.5 10.9Q104.9 11.2 105.6 11.2L105.6 11.2Q105.9 11.2 106.2 11.1Q106.5 11.0 106.7 10.9Q106.9 10.7 107.0 10.5Q107.2 10.3 107.3 10.0L107.3 10.0L108.3 10.3Q108.1 10.7 107.9 11.1Q107.6 11.4 107.3 11.6Q106.9 11.9 106.5 12.0Q106.1 12.1 105.6 12.1ZM112.4 12.1L112.4 12.1Q111.6 12.1 110.9 11.7Q110.2 11.3 109.8 10.5Q109.5 9.8 109.5 8.8L109.5 8.8Q109.5 7.7 109.8 7.0Q110.2 6.2 110.9 5.8Q111.6 5.4 112.4 5.4L112.4 5.4Q113.3 5.4 114.0 5.8Q114.7 6.2 115.1 7.0Q115.4 7.7 115.4 8.8L115.4 8.8Q115.4 9.8 115.1 10.5Q114.7 11.3 114.0 11.7Q113.3 12.1 112.4 12.1ZM112.4 11.2L112.4 11.2Q113.1 11.2 113.5 10.9Q114.0 10.5 114.2 10.0Q114.4 9.4 114.4 8.8L114.4 8.8Q114.4 8.1 114.2 7.6Q114.0 7.0 113.5 6.7Q113.1 6.3 112.4 6.3L112.4 6.3Q111.8 6.3 111.4 6.7Q110.9 7.0 110.7 7.6Q110.5 8.1 110.5 8.8L110.5 8.8Q110.5 9.4 110.7 10.0Q110.9 10.5 111.4 10.9Q111.8 11.2 112.4 11.2ZM117.0 3.3L118.0 3.3L118.0 12L117.0 12L117.0 3.3ZM119.9 3.3L120.9 3.3L120.9 12L119.9 12L119.9 3.3ZM125.5 12.1L125.5 12.1Q124.6 12.1 123.9 11.7Q123.2 11.3 122.8 10.5Q122.5 9.8 122.5 8.8Q122.5 7.8 122.8 7.0Q123.2 6.2 123.9 5.8Q124.5 5.4 125.4 5.4L125.4 5.4Q125.9 5.4 126.4 5.5Q127.0 5.7 127.4 6.1Q127.8 6.5 128.0 7.1Q128.3 7.7 128.3 8.6L128.3 8.6L128.3 9.1L123.5 9.1Q123.6 9.7 123.8 10.2L123.8 10.2Q124.0 10.7 124.5 10.9Q125.0 11.2 125.5 11.2L125.5 11.2Q125.9 11.2 126.3 11.1Q126.6 11.0 126.8 10.8Q127.0 10.5 127.1 10.2L127.1 10.2L128.2 10.5Q128.0 11.0 127.7 11.3Q127.3 11.7 126.8 11.9Q126.2 12.1 125.5 12.1ZM123.5 8.2L123.5 8.2L127.2 8.2Q127.2 7.7 127.0 7.4L127.0 7.4Q126.8 6.9 126.4 6.6Q126.0 6.3 125.4 6.3Q124.8 6.3 124.4 6.6Q124.0 6.9 123.8 7.3L123.8 7.3Q123.6 7.7 123.5 8.2ZM132.5 12.1L132.5 12.1Q131.6 12.1 130.9 11.7Q130.2 11.3 129.8 10.5Q129.5 9.8 129.5 8.8L129.5 8.8Q129.5 7.7 129.8 7.0Q130.2 6.2 130.9 5.8Q131.6 5.4 132.5 5.4L132.5 5.4Q132.9 5.4 133.3 5.5Q133.8 5.6 134.1 5.8Q134.5 6.1 134.7 6.4Q135.0 6.8 135.1 7.2L135.1 7.2L134.1 7.5Q134.0 7.2 133.9 7.0Q133.7 6.8 133.5 6.6Q133.3 6.5 133.0 6.4Q132.8 6.3 132.5 6.3L132.5 6.3Q131.8 6.3 131.4 6.7Q131.0 7.0 130.7 7.6Q130.5 8.1 130.5 8.8L130.5 8.8Q130.5 9.4 130.7 10.0Q131.0 10.5 131.4 10.9Q131.8 11.2 132.5 11.2L132.5 11.2Q132.8 11.2 133.1 11.1Q133.3 11.0 133.5 10.9Q133.8 10.7 133.9 10.5Q134.1 10.3 134.1 10.0L134.1 10.0L135.1 10.3Q135 10.7 134.7 11.1Q134.5 11.4 134.1 11.6Q133.8 11.9 133.4 12.0Q132.9 12.1 132.5 12.1ZM137.9 5.4L139.2 5.4L139.2 6.4L137.9 6.4L137.9 10.3Q137.9 10.7 138.0 10.9Q138.2 11.1 138.6 11.1L138.6 11.1Q138.7 11.1 138.9 11.1Q139.1 11.1 139.2 11.1L139.2 11.1L139.4 12.0Q139.2 12.0 139.0 12.1Q138.8 12.1 138.6 12.1L138.6 12.1Q137.8 12.1 137.3 11.6Q136.8 11.2 136.8 10.4L136.8 10.4L136.8 6.4L135.8 6.4L135.8 5.4L136.8 5.4L136.8 3.9L137.9 3.9L137.9 5.4ZM141.6 12L140.6 12L140.6 5.4L141.6 5.4L141.6 12ZM141.1 4.4L141.1 4.4Q140.8 4.4 140.6 4.2Q140.4 4.0 140.4 3.7L140.4 3.7Q140.4 3.4 140.6 3.2Q140.8 3.0 141.1 3.0L141.1 3.0Q141.4 3.0 141.6 3.2Q141.8 3.4 141.8 3.7L141.8 3.7Q141.8 4.0 141.6 4.2Q141.4 4.4 141.1 4.4ZM146.1 12.1L146.1 12.1Q145.2 12.1 144.6 11.7Q143.9 11.3 143.5 10.5Q143.2 9.8 143.2 8.8L143.2 8.8Q143.2 7.7 143.5 7.0Q143.9 6.2 144.6 5.8Q145.2 5.4 146.1 5.4L146.1 5.4Q147.0 5.4 147.7 5.8Q148.4 6.2 148.8 7.0Q149.1 7.7 149.1 8.8L149.1 8.8Q149.1 9.8 148.8 10.5Q148.4 11.3 147.7 11.7Q147.0 12.1 146.1 12.1ZM146.1 11.2L146.1 11.2Q146.8 11.2 147.2 10.9Q147.7 10.5 147.9 10.0Q148.1 9.4 148.1 8.8L148.1 8.8Q148.1 8.1 147.9 7.6Q147.7 7.0 147.2 6.7Q146.8 6.3 146.1 6.3L146.1 6.3Q145.5 6.3 145.1 6.7Q144.6 7.0 144.4 7.6Q144.2 8.1 144.2 8.8L144.2 8.8Q144.2 9.4 144.4 10.0Q144.6 10.5 145.1 10.9Q145.5 11.2 146.1 11.2ZM151.7 8.1L151.7 8.1L151.7 12L150.7 12L150.7 5.4L151.7 5.4L151.7 6.7Q152.0 6.0 152.4 5.7L152.4 5.7Q152.9 5.4 153.7 5.4L153.7 5.4Q154.4 5.4 154.9 5.6Q155.3 5.9 155.6 6.5Q155.9 7.0 155.9 7.8L155.9 7.8L155.9 12L154.9 12L154.9 7.9Q154.9 7.2 154.5 6.7Q154.1 6.3 153.4 6.3L153.4 6.3Q152.9 6.3 152.5 6.5Q152.2 6.7 151.9 7.1Q151.7 7.5 151.7 8.1ZM160.5 12.1L160.5 12.1Q159.6 12.1 158.9 11.7Q158.2 11.3 157.8 10.5Q157.4 9.8 157.4 8.8Q157.4 7.8 157.8 7.0Q158.2 6.2 158.8 5.8Q159.5 5.4 160.4 5.4L160.4 5.4Q160.9 5.4 161.4 5.5Q161.9 5.7 162.3 6.1Q162.8 6.5 163.0 7.1Q163.2 7.7 163.2 8.6L163.2 8.6L163.2 9.1L158.5 9.1Q158.5 9.7 158.8 10.2L158.8 10.2Q159.0 10.7 159.5 10.9Q159.9 11.2 160.5 11.2L160.5 11.2Q160.9 11.2 161.2 11.1Q161.5 11.0 161.8 10.8Q162.0 10.5 162.1 10.2L162.1 10.2L163.1 10.5Q163.0 11.0 162.6 11.3Q162.3 11.7 161.7 11.9Q161.2 12.1 160.5 12.1ZM158.5 8.2L158.5 8.2L162.2 8.2Q162.1 7.7 162.0 7.4L162.0 7.4Q161.8 6.9 161.4 6.6Q161.0 6.3 160.4 6.3Q159.8 6.3 159.4 6.6Q159.0 6.9 158.7 7.3L158.7 7.3Q158.5 7.7 158.5 8.2ZM167.0 12.1L167.0 12.1Q166.3 12.1 165.8 11.8Q165.3 11.5 165.0 11.0Q164.8 10.4 164.8 9.6L164.8 9.6L164.8 5.4L165.8 5.4L165.8 9.5Q165.8 10.3 166.2 10.7Q166.6 11.1 167.3 11.1L167.3 11.1Q167.8 11.1 168.1 10.9Q168.5 10.7 168.7 10.3Q168.9 9.9 168.9 9.4L168.9 9.4L168.9 5.4L170.0 5.4L170.0 12L169.0 12L169.0 10.8Q168.7 11.4 168.3 11.7L168.3 11.7Q167.7 12.1 167.0 12.1ZM172.9 12L171.8 12L171.8 5.4L172.9 5.4L172.9 6.5L172.9 6.5Q173.1 6.0 173.6 5.7Q174.1 5.4 174.6 5.4L174.6 5.4Q174.8 5.4 174.9 5.4Q175.1 5.4 175.2 5.4L175.2 5.4L175.2 6.4Q175.1 6.4 174.9 6.4Q174.8 6.4 174.5 6.4L174.5 6.4Q174.1 6.4 173.7 6.6Q173.3 6.8 173.1 7.1Q172.9 7.5 172.9 7.9L172.9 7.9L172.9 12Z "/></g><mask id="satori_om-id-2"><rect x="182" y="0" width="78" height="15" fill="#fff"/></mask><g  ><path fill="rgba(255,255,255,.45)" d="M185.4 10.4L185.4 10.4Q184.9 10.4 184.4 10.1Q184.0 9.9 183.8 9.5Q183.5 9.0 183.5 8.5L183.5 8.5Q183.5 8.0 183.8 7.6Q184.0 7.1 184.4 6.9Q184.9 6.6 185.4 6.6L185.4 6.6Q185.9 6.6 186.3 6.9Q186.7 7.1 187.0 7.6Q187.3 8.0 187.3 8.5L187.3 8.5Q187.3 9.0 187.0 9.5Q186.7 9.9 186.3 10.1Q185.9 10.4 185.4 10.4Z M194.1 14.4L193.1 14.4L193.1 5.4L194.1 5.4L194.1 6.5L194.2 6.5Q194.3 6.3 194.5 6.1Q194.7 5.8 195.1 5.6Q195.4 5.4 196.1 5.4L196.1 5.4Q196.9 5.4 197.5 5.8Q198.2 6.2 198.5 6.9Q198.9 7.7 198.9 8.7L198.9 8.7Q198.9 9.8 198.5 10.5Q198.2 11.3 197.5 11.7Q196.9 12.1 196.1 12.1L196.1 12.1Q195.5 12.1 195.1 11.9Q194.7 11.7 194.5 11.4Q194.3 11.2 194.2 11.0L194.2 11.0L194.1 11.0L194.1 14.4ZM195.9 11.2L195.9 11.2Q196.5 11.2 197.0 10.9Q197.4 10.5 197.6 10.0Q197.8 9.4 197.8 8.7L197.8 8.7Q197.8 8.1 197.6 7.5Q197.4 7.0 197.0 6.6Q196.6 6.3 195.9 6.3L195.9 6.3Q195.3 6.3 194.9 6.6Q194.5 6.9 194.3 7.5Q194.1 8.0 194.1 8.7L194.1 8.7Q194.1 9.5 194.3 10.0Q194.5 10.6 194.9 10.9Q195.3 11.2 195.9 11.2ZM203.1 12.1L203.1 12.1Q202.2 12.1 201.5 11.7Q200.8 11.3 200.5 10.5Q200.1 9.8 200.1 8.8L200.1 8.8Q200.1 7.7 200.5 7.0Q200.8 6.2 201.5 5.8Q202.2 5.4 203.1 5.4L203.1 5.4Q204.0 5.4 204.6 5.8Q205.3 6.2 205.7 7.0Q206.1 7.7 206.1 8.8L206.1 8.8Q206.1 9.8 205.7 10.5Q205.3 11.3 204.6 11.7Q204.0 12.1 203.1 12.1ZM203.1 11.2L203.1 11.2Q203.7 11.2 204.2 10.9Q204.6 10.5 204.8 10.0Q205.0 9.4 205.0 8.8L205.0 8.8Q205.0 8.1 204.8 7.6Q204.6 7.0 204.2 6.7Q203.7 6.3 203.1 6.3L203.1 6.3Q202.4 6.3 202.0 6.7Q201.6 7.0 201.4 7.6Q201.2 8.1 201.2 8.8L201.2 8.8Q201.2 9.4 201.4 10.0Q201.6 10.5 202.0 10.9Q202.4 11.2 203.1 11.2ZM210.1 12L209.1 12L207.1 5.4L208.2 5.4L209.0 8.3Q209.2 8.9 209.3 9.6L209.3 9.6Q209.5 10.2 209.6 10.9L209.6 10.9Q209.8 10.2 209.9 9.7L209.9 9.7Q210.1 8.9 210.2 8.3L210.2 8.3L211.0 5.4L212.2 5.4L212.9 8.3Q213.1 8.9 213.3 9.7L213.3 9.7Q213.4 10.2 213.5 10.9L213.5 10.9Q213.7 10.2 213.8 9.7L213.8 9.7Q214.0 8.9 214.2 8.3L214.2 8.3L215.0 5.4L216.1 5.4L214.1 12L213.0 12L212.2 9.0Q212.1 8.6 211.9 8.1Q211.8 7.6 211.7 7.2L211.7 7.2Q211.6 6.9 211.6 6.6L211.6 6.6Q211.5 6.9 211.5 7.1L211.5 7.1Q211.3 7.6 211.2 8.1Q211.1 8.6 211.0 9.0L211.0 9.0L210.1 12ZM220.2 12.1L220.2 12.1Q219.2 12.1 218.5 11.7Q217.8 11.3 217.5 10.5Q217.1 9.8 217.1 8.8Q217.1 7.8 217.5 7.0Q217.8 6.2 218.5 5.8Q219.2 5.4 220.0 5.4L220.0 5.4Q220.6 5.4 221.1 5.5Q221.6 5.7 222.0 6.1Q222.4 6.5 222.7 7.1Q222.9 7.7 222.9 8.6L222.9 8.6L222.9 9.1L218.2 9.1Q218.2 9.7 218.4 10.2L218.4 10.2Q218.7 10.7 219.1 10.9Q219.6 11.2 220.2 11.2L220.2 11.2Q220.6 11.2 220.9 11.1Q221.2 11.0 221.4 10.8Q221.7 10.5 221.8 10.2L221.8 10.2L222.8 10.5Q222.6 11.0 222.3 11.3Q221.9 11.7 221.4 11.9Q220.8 12.1 220.2 12.1ZM218.2 8.2L218.2 8.2L221.8 8.2Q221.8 7.7 221.6 7.4L221.6 7.4Q221.4 6.9 221.0 6.6Q220.6 6.3 220.0 6.3Q219.5 6.3 219.0 6.6Q218.6 6.9 218.4 7.3L218.4 7.3Q218.2 7.7 218.2 8.2ZM225.5 12L224.4 12L224.4 5.4L225.4 5.4L225.4 6.5L225.5 6.5Q225.7 6.0 226.1 5.7Q226.6 5.4 227.2 5.4L227.2 5.4Q227.3 5.4 227.5 5.4Q227.6 5.4 227.7 5.4L227.7 5.4L227.7 6.4Q227.7 6.4 227.5 6.4Q227.3 6.4 227.1 6.4L227.1 6.4Q226.6 6.4 226.3 6.6Q225.9 6.8 225.7 7.1Q225.5 7.5 225.5 7.9L225.5 7.9L225.5 12ZM231.7 12.1L231.7 12.1Q230.7 12.1 230.0 11.7Q229.4 11.3 229.0 10.5Q228.6 9.8 228.6 8.8Q228.6 7.8 229.0 7.0Q229.3 6.2 230.0 5.8Q230.7 5.4 231.6 5.4L231.6 5.4Q232.1 5.4 232.6 5.5Q233.1 5.7 233.5 6.1Q233.9 6.5 234.2 7.1Q234.4 7.7 234.4 8.6L234.4 8.6L234.4 9.1L229.7 9.1Q229.7 9.7 229.9 10.2L229.9 10.2Q230.2 10.7 230.6 10.9Q231.1 11.2 231.7 11.2L231.7 11.2Q232.1 11.2 232.4 11.1Q232.7 11.0 232.9 10.8Q233.2 10.5 233.3 10.2L233.3 10.2L234.3 10.5Q234.2 11.0 233.8 11.3Q233.4 11.7 232.9 11.9Q232.4 12.1 231.7 12.1ZM229.7 8.2L229.7 8.2L233.3 8.2Q233.3 7.7 233.2 7.4L233.2 7.4Q232.9 6.9 232.5 6.6Q232.2 6.3 231.6 6.3Q231.0 6.3 230.5 6.6Q230.1 6.9 229.9 7.3L229.9 7.3Q229.7 7.7 229.7 8.2ZM238.4 12.1L238.4 12.1Q237.6 12.1 236.9 11.7Q236.3 11.3 236.0 10.5Q235.6 9.8 235.6 8.7L235.6 8.7Q235.6 7.7 236.0 6.9Q236.3 6.2 236.9 5.8Q237.6 5.4 238.4 5.4L238.4 5.4Q239.0 5.4 239.4 5.6Q239.8 5.8 240.0 6.1Q240.2 6.3 240.3 6.5L240.3 6.5L240.4 6.5L240.4 3.3L241.4 3.3L241.4 12L240.4 12L240.4 11.0L240.3 11.0Q240.2 11.2 240.0 11.4Q239.8 11.7 239.4 11.9Q239.0 12.1 238.4 12.1ZM238.5 11.2L238.5 11.2Q239.1 11.2 239.5 10.9Q240.0 10.6 240.2 10.0Q240.4 9.5 240.4 8.7L240.4 8.7Q240.4 8.0 240.2 7.5Q240.0 6.9 239.6 6.6Q239.1 6.3 238.5 6.3L238.5 6.3Q237.9 6.3 237.5 6.6Q237.1 7.0 236.9 7.5Q236.7 8.1 236.7 8.7L236.7 8.7Q236.7 9.4 236.9 10.0Q237.1 10.5 237.5 10.9Q237.9 11.2 238.5 11.2Z M249.7 12.1L249.7 12.1Q249.1 12.1 248.7 11.9Q248.3 11.7 248.1 11.4Q247.9 11.2 247.8 11.0L247.8 11.0L247.7 11.0L247.7 12L246.6 12L246.6 3.3L247.7 3.3L247.7 6.5L247.8 6.5Q247.9 6.3 248.1 6.1Q248.3 5.8 248.7 5.6Q249.0 5.4 249.7 5.4L249.7 5.4Q250.5 5.4 251.1 5.8Q251.8 6.2 252.1 6.9Q252.5 7.7 252.5 8.7L252.5 8.7Q252.5 9.8 252.1 10.5Q251.8 11.3 251.1 11.7Q250.5 12.1 249.7 12.1ZM249.5 11.2L249.5 11.2Q250.1 11.2 250.6 10.9Q251.0 10.5 251.2 10.0Q251.4 9.4 251.4 8.7L251.4 8.7Q251.4 8.1 251.2 7.5Q251.0 7.0 250.6 6.6Q250.2 6.3 249.5 6.3L249.5 6.3Q248.9 6.3 248.5 6.6Q248.1 6.9 247.9 7.5Q247.7 8.0 247.7 8.7L247.7 8.7Q247.7 9.5 247.9 10.0Q248.1 10.6 248.5 10.9Q248.9 11.2 249.5 11.2ZM253.9 14.4L253.9 14.4L254.2 13.5L254.3 13.5Q254.6 13.6 254.9 13.5Q255.1 13.5 255.3 13.3Q255.5 13.0 255.7 12.6L255.7 12.6L255.9 12.0L253.4 5.4L254.5 5.4L255.9 9.3Q256.2 9.9 256.3 10.5L256.3 10.5Q256.4 10.8 256.4 11.0L256.4 11.0Q256.5 10.8 256.6 10.5L256.6 10.5Q256.7 9.9 256.9 9.3L256.9 9.3L258.3 5.4L259.5 5.4L256.6 13.0Q256.4 13.5 256.1 13.8Q255.9 14.2 255.5 14.3Q255.1 14.5 254.7 14.5L254.7 14.5Q254.4 14.5 254.2 14.5Q254.0 14.4 253.9 14.4Z "/></g><mask id="satori_om-id-3"><rect x="266" y="0" width="74" height="15" fill="#fff"/></mask><g  ><path fill="#fff" d="M268.0 12L266.9 12L266.9 5.4L267.9 5.4L267.9 6.5L268.0 6.5Q268.2 6.0 268.7 5.7Q269.1 5.4 269.7 5.4L269.7 5.4Q269.8 5.4 270.0 5.4Q270.2 5.4 270.2 5.4L270.2 5.4L270.2 6.4Q270.2 6.4 270.0 6.4Q269.8 6.4 269.6 6.4L269.6 6.4Q269.1 6.4 268.8 6.6Q268.4 6.8 268.2 7.1Q268.0 7.5 268.0 7.9L268.0 7.9L268.0 12ZM274.2 12.1L274.2 12.1Q273.2 12.1 272.6 11.7Q271.9 11.3 271.5 10.5Q271.1 9.8 271.1 8.8Q271.1 7.8 271.5 7.0Q271.9 6.2 272.5 5.8Q273.2 5.4 274.1 5.4L274.1 5.4Q274.6 5.4 275.1 5.5Q275.6 5.7 276.0 6.1Q276.4 6.5 276.7 7.1Q276.9 7.7 276.9 8.6L276.9 8.6L276.9 9.1L272.2 9.1Q272.2 9.7 272.4 10.2L272.4 10.2Q272.7 10.7 273.2 10.9Q273.6 11.2 274.2 11.2L274.2 11.2Q274.6 11.2 274.9 11.1Q275.2 11.0 275.5 10.8Q275.7 10.5 275.8 10.2L275.8 10.2L276.8 10.5Q276.7 11.0 276.3 11.3Q275.9 11.7 275.4 11.9Q274.9 12.1 274.2 12.1ZM272.2 8.2L272.2 8.2L275.9 8.2Q275.8 7.7 275.7 7.4L275.7 7.4Q275.5 6.9 275.1 6.6Q274.7 6.3 274.1 6.3Q273.5 6.3 273.1 6.6Q272.6 6.9 272.4 7.3L272.4 7.3Q272.2 7.7 272.2 8.2ZM280.3 12.2L280.3 12.2Q279.7 12.2 279.1 11.9Q278.6 11.7 278.3 11.2Q278.0 10.8 278.0 10.1L278.0 10.1Q278.0 9.6 278.3 9.2Q278.5 8.9 278.9 8.7Q279.2 8.5 279.7 8.4Q280.1 8.3 280.6 8.2L280.6 8.2Q281.2 8.1 281.5 8.1Q281.9 8.1 282.1 8.0Q282.3 7.9 282.3 7.6L282.3 7.6L282.3 7.6Q282.3 7.2 282.1 6.9Q282.0 6.6 281.7 6.4Q281.4 6.3 280.9 6.3L280.9 6.3Q280.4 6.3 280.1 6.4Q279.8 6.6 279.6 6.8Q279.3 7.0 279.2 7.3L279.2 7.3L278.2 6.9Q278.5 6.3 278.9 6.0Q279.3 5.6 279.9 5.5Q280.4 5.4 280.9 5.4L280.9 5.4Q281.2 5.4 281.6 5.4Q282.0 5.5 282.4 5.8Q282.8 6.0 283.1 6.5Q283.3 6.9 283.3 7.7L283.3 7.7L283.3 12L282.3 12L282.3 11.1L282.2 11.1Q282.1 11.3 281.9 11.6Q281.6 11.8 281.2 12.0Q280.8 12.2 280.3 12.2ZM280.5 11.2L280.5 11.2Q281.0 11.2 281.4 11.0Q281.8 10.8 282.1 10.4Q282.3 10.0 282.3 9.6L282.3 9.6L282.3 8.7Q282.2 8.8 282.0 8.9Q281.8 8.9 281.5 9.0Q281.2 9.0 281.0 9.0Q280.7 9.1 280.5 9.1L280.5 9.1Q280.2 9.1 279.8 9.3Q279.5 9.4 279.3 9.6Q279.1 9.8 279.1 10.2L279.1 10.2Q279.1 10.5 279.3 10.8Q279.5 11.0 279.8 11.1Q280.1 11.2 280.5 11.2ZM287.6 12.1L287.6 12.1Q286.8 12.1 286.2 11.7Q285.6 11.3 285.2 10.5Q284.9 9.8 284.9 8.7L284.9 8.7Q284.9 7.7 285.2 6.9Q285.6 6.2 286.2 5.8Q286.8 5.4 287.6 5.4L287.6 5.4Q288.3 5.4 288.7 5.6Q289.0 5.8 289.2 6.1Q289.4 6.3 289.5 6.5L289.5 6.5L289.6 6.5L289.6 3.3L290.7 3.3L290.7 12L289.7 12L289.7 11.0L289.5 11.0Q289.4 11.2 289.2 11.4Q289.0 11.7 288.6 11.9Q288.3 12.1 287.6 12.1ZM287.8 11.2L287.8 11.2Q288.4 11.2 288.8 10.9Q289.2 10.6 289.4 10.0Q289.6 9.5 289.6 8.7L289.6 8.7Q289.6 8.0 289.4 7.5Q289.2 6.9 288.8 6.6Q288.4 6.3 287.8 6.3L287.8 6.3Q287.2 6.3 286.8 6.6Q286.3 7.0 286.1 7.5Q285.9 8.1 285.9 8.7L285.9 8.7Q285.9 9.4 286.1 10.0Q286.3 10.5 286.8 10.9Q287.2 11.2 287.8 11.2ZM293.6 12L292.5 12L292.5 5.4L293.6 5.4L293.6 6.7Q293.7 6.3 293.9 6.0L293.9 6.0Q294.2 5.7 294.6 5.5Q295.0 5.3 295.4 5.3L295.4 5.3Q296.1 5.3 296.6 5.8L296.6 5.8Q296.9 6.1 297.1 6.7L297.1 6.7Q297.2 6.3 297.4 6.1L297.4 6.1Q297.7 5.7 298.2 5.5Q298.6 5.3 299.1 5.3L299.1 5.3Q299.7 5.3 300.2 5.6Q300.6 5.8 300.9 6.3Q301.2 6.8 301.2 7.6L301.2 7.6L301.2 12L300.1 12L300.1 7.6Q300.1 6.9 299.7 6.6Q299.3 6.3 298.8 6.3L298.8 6.3Q298.4 6.3 298.0 6.5Q297.7 6.7 297.6 7.0Q297.4 7.3 297.4 7.7L297.4 7.7L297.4 12L296.3 12L296.3 7.5Q296.3 7.0 296.0 6.6Q295.6 6.3 295.0 6.3L295.0 6.3Q294.7 6.3 294.3 6.5Q294.0 6.7 293.8 7.0Q293.6 7.4 293.6 7.9L293.6 7.9L293.6 12ZM305.8 12.1L305.8 12.1Q304.8 12.1 304.2 11.7Q303.5 11.3 303.1 10.5Q302.7 9.8 302.7 8.8Q302.7 7.8 303.1 7.0Q303.4 6.2 304.1 5.8Q304.8 5.4 305.7 5.4L305.7 5.4Q306.2 5.4 306.7 5.5Q307.2 5.7 307.6 6.1Q308.0 6.5 308.3 7.1Q308.5 7.7 308.5 8.6L308.5 8.6L308.5 9.1L303.8 9.1Q303.8 9.7 304.0 10.2L304.0 10.2Q304.3 10.7 304.7 10.9Q305.2 11.2 305.8 11.2L305.8 11.2Q306.2 11.2 306.5 11.1Q306.8 11.0 307.0 10.8Q307.3 10.5 307.4 10.2L307.4 10.2L308.4 10.5Q308.3 11.0 307.9 11.3Q307.5 11.7 307.0 11.9Q306.5 12.1 305.8 12.1ZM303.8 8.2L303.8 8.2L307.4 8.2Q307.4 7.7 307.3 7.4L307.3 7.4Q307.1 6.9 306.7 6.6Q306.3 6.3 305.7 6.3Q305.1 6.3 304.7 6.6Q304.2 6.9 304.0 7.3L304.0 7.3Q303.8 7.7 303.8 8.2ZM310.0 7.8L313.8 7.8L313.8 8.8L310.0 8.8L310.0 7.8ZM317.4 12.2L317.4 12.2Q316.8 12.2 316.3 11.9Q315.8 11.7 315.5 11.2Q315.2 10.8 315.2 10.1L315.2 10.1Q315.2 9.6 315.4 9.2Q315.6 8.9 316.0 8.7Q316.3 8.5 316.8 8.4Q317.2 8.3 317.7 8.2L317.7 8.2Q318.3 8.1 318.7 8.1Q319.0 8.1 319.2 8.0Q319.4 7.9 319.4 7.6L319.4 7.6L319.4 7.6Q319.4 7.2 319.2 6.9Q319.1 6.6 318.8 6.4Q318.5 6.3 318.0 6.3L318.0 6.3Q317.5 6.3 317.2 6.4Q316.9 6.6 316.7 6.8Q316.5 7.0 316.4 7.3L316.4 7.3L315.3 6.9Q315.6 6.3 316.0 6.0Q316.4 5.6 317.0 5.5Q317.5 5.4 318.0 5.4L318.0 5.4Q318.3 5.4 318.7 5.4Q319.2 5.5 319.5 5.8Q319.9 6.0 320.2 6.5Q320.4 6.9 320.4 7.7L320.4 7.7L320.4 12L319.4 12L319.4 11.1L319.3 11.1Q319.2 11.3 319.0 11.6Q318.7 11.8 318.3 12.0Q317.9 12.2 317.4 12.2ZM317.6 11.2L317.6 11.2Q318.2 11.2 318.6 11.0Q319.0 10.8 319.2 10.4Q319.4 10.0 319.4 9.6L319.4 9.6L319.4 8.7Q319.3 8.8 319.1 8.9Q318.9 8.9 318.6 9.0Q318.3 9.0 318.1 9.0Q317.8 9.1 317.7 9.1L317.7 9.1Q317.3 9.1 316.9 9.3Q316.6 9.4 316.4 9.6Q316.2 9.8 316.2 10.2L316.2 10.2Q316.2 10.5 316.4 10.8Q316.6 11.0 316.9 11.1Q317.2 11.2 317.6 11.2ZM324.5 12.1L324.5 12.1Q323.8 12.1 323.3 11.8Q322.8 11.5 322.6 11.0Q322.3 10.4 322.3 9.6L322.3 9.6L322.3 5.4L323.3 5.4L323.3 9.5Q323.3 10.3 323.7 10.7Q324.1 11.1 324.8 11.1L324.8 11.1Q325.3 11.1 325.7 10.9Q326.0 10.7 326.3 10.3Q326.5 9.9 326.5 9.4L326.5 9.4L326.5 5.4L327.5 5.4L327.5 12L326.5 12L326.5 10.8Q326.2 11.4 325.8 11.7L325.8 11.7Q325.2 12.1 324.5 12.1ZM330.4 12L329.4 12L329.4 5.4L330.4 5.4L330.4 6.5L330.5 6.5Q330.7 6.0 331.1 5.7Q331.6 5.4 332.2 5.4L332.2 5.4Q332.3 5.4 332.5 5.4Q332.6 5.4 332.7 5.4L332.7 5.4L332.7 6.4Q332.7 6.4 332.5 6.4Q332.3 6.4 332.1 6.4L332.1 6.4Q331.6 6.4 331.2 6.6Q330.9 6.8 330.7 7.1Q330.4 7.5 330.4 7.9L330.4 7.9L330.4 12ZM335.7 12.2L335.7 12.2Q335.1 12.2 334.6 11.9Q334.1 11.7 333.8 11.2Q333.5 10.8 333.5 10.1L333.5 10.1Q333.5 9.6 333.7 9.2Q334.0 8.9 334.3 8.7Q334.7 8.5 335.1 8.4Q335.6 8.3 336.1 8.2L336.1 8.2Q336.6 8.1 337.0 8.1Q337.4 8.1 337.6 8.0Q337.7 7.9 337.7 7.6L337.7 7.6L337.7 7.6Q337.7 7.2 337.6 6.9Q337.4 6.6 337.1 6.4Q336.8 6.3 336.4 6.3L336.4 6.3Q335.9 6.3 335.6 6.4Q335.2 6.6 335.0 6.8Q334.8 7.0 334.7 7.3L334.7 7.3L333.7 6.9Q333.9 6.3 334.4 6.0Q334.8 5.6 335.3 5.5Q335.8 5.4 336.3 5.4L336.3 5.4Q336.7 5.4 337.1 5.4Q337.5 5.5 337.9 5.8Q338.3 6.0 338.5 6.5Q338.8 6.9 338.8 7.7L338.8 7.7L338.8 12L337.8 12L337.8 11.1L337.7 11.1Q337.6 11.3 337.3 11.6Q337.1 11.8 336.7 12.0Q336.3 12.2 335.7 12.2ZM335.9 11.2L335.9 11.2Q336.5 11.2 336.9 11.0Q337.3 10.8 337.5 10.4Q337.7 10.0 337.7 9.6L337.7 9.6L337.7 8.7Q337.7 8.8 337.5 8.9Q337.2 8.9 337.0 9.0Q336.7 9.0 336.4 9.0Q336.2 9.1 336.0 9.1L336.0 9.1Q335.6 9.1 335.3 9.3Q335.0 9.4 334.8 9.6Q334.6 9.8 334.6 10.2L334.6 10.2Q334.6 10.5 334.7 10.8Q334.9 11.0 335.2 11.1Q335.5 11.2 335.9 11.2Z "/></g></svg>