<!-- Generated by readme-aura https://github.com/collectioneur/readme-aura -->
<svg width="800" height="200" viewBox="0 0 800 200" xmlns="http://www.w3.org/2000/svg"><clipPath id="satori_cp-id"><path x="0" y="0" width="800" height="200" d="M20,0 h760 a20,20 0 0 1 20,20 v160 a20,20 0 0 1 -20,20 h-760 a20,20 0 0 1 -20,-20 v-160 a20,20 0 0 1 20,-20"/></clipPath><mask id="satori_om-id"><rect x="0" y="0" width="800" height="200" fill="#fff"/></mask><path x="0" y="0" width="800" height="200" fill="#08080d" d="M20,0 h760 a20,20 0 0 1 20,20 v160 a20,20 0 0 1 -20,20 h-760 a20,20 0 0 1 -20,-20 v-160 a20,20 0 0 1 20,-20"/><clipPath id="satori_cp-id-0" clip-path="url(#satori_cp-id)"><rect x="0" y="0" width="800" height="200"/></clipPath><mask id="satori_om-id-0"><rect x="0" y="0" width="800" height="200" fill="#fff" mask="url(#satori_om-id)"/></mask><svg x="0" y="0" width="800" height="200" preserveAspectRatio="none" clip-path="url(#satori_cp-id-0)" mask="url(#satori_om-id-0)"><defs><radialGradient id="sg1" cx="50%" cy="50%" r="50%"><stop offset="0%" stop-color="rgba(108,195,130,0.4)"></stop><stop offset="100%" stop-color="rgba(108,195,130,0)"></stop></radialGradient><radialGradient id="sg2" cx="50%" cy="50%" r="50%"><stop offset="0%" stop-color="rgba(230,100,115,0.35)"></stop><stop offset="100%" stop-color="rgba(230,100,115,0)"></stop></radialGradient><radialGradient id="sg3" cx="50%" cy="50%" r="50%"><stop offset="0%" stop-color="rgba(80,160,220,0.3)"></stop><stop offset="100%" stop-color="rgba(80,160,220,0)"></stop></radialGradient><radialGradient id="sg4" cx="50%" cy="50%" r="50%"><stop offset="0%" stop-color="rgba(195,155,255,0.3)"></stop><stop offset="100%" stop-color="rgba(195,155,255,0)"></stop></radialGradient></defs><ellipse id="st-o1" cx="80" cy="160" rx="160" ry="120" fill="url(#sg1)"></ellipse><ellipse id="st-o2" cx="730" cy="50" rx="150" ry="120" fill="url(#sg2)"></ellipse><ellipse id="st-o3" cx="640" cy="170" rx="140" ry="110" fill="url(#sg3)"></ellipse><ellipse id="st-o4" cx="180" cy="40" rx="130" ry="100" fill="url(#sg4)"></ellipse><style>

    @keyframes stack-orb { 0%, 100% { transform: translate(0,0); opacity: 0.45; } 50% { transform: translate(18px,-14px); opacity: 0.7; } }
    @keyframes stack-orb-b { 0%, 100% { transform: translate(0,0); opacity: 0.4; } 50% { transform: translate(-14px,10px); opacity: 0.65; } }
    @keyframes chip-appear { 0% { opacity: 0; transform: translateY(8px); } 100% { opacity: 1; transform: translateY(0); } }
    #st-o1 { animation: stack-orb 10s ease-in-out infinite; }
    #st-o2 { animation: stack-orb-b 12s ease-in-out infinite 1s; }
    #st-o3 { animation: stack-orb 9s ease-in-out infinite 2.5s; }
    #st-o4 { animation: stack-orb-b 11s ease-in-out infinite 0.5s; }
  
</style>
</svg><mask id="satori_om-id-0-0"><rect x="0" y="0" width="0" height="200" fill="#fff" mask="url(#satori_om-id)"/></mask><mask id="satori_om-id-0-0-0"><rect x="0" y="0" width="0" height="200" fill="#fff" mask="url(#satori_om-id)"/></mask><mask id="satori_om-id-0-0-0-0"><rect x="0" y="0" width="0" height="200" fill="#fff" mask="url(#satori_om-id)"/></mask><mask id="satori_om-id-0-0-0-1"><rect x="0" y="0" width="0" height="200" fill="#fff" mask="url(#satori_om-id)"/></mask><mask id="satori_om-id-0-0-1"><rect x="0" y="0" width="0" height="200" fill="#fff" mask="url(#satori_om-id)"/></mask><mask id="satori_om-id-0-0-1-0"><rect x="0" y="0" width="0" height="200" fill="#fff" mask="url(#satori_om-id)"/></mask><mask id="satori_om-id-0-0-1-1"><rect x="0" y="0" width="0" height="200" fill="#fff" mask="url(#satori_om-id)"/></mask><mask id="satori_om-id-0-0-2"><rect x="0" y="0" width="0" height="200" fill="#fff" mask="url(#satori_om-id)"/></mask><mask id="satori_om-id-0-0-2-0"><rect x="0" y="0" width="0" height="200" fill="#fff" mask="url(#satori_om-id)"/></mask><mask id="satori_om-id-0-0-2-1"><rect x="0" y="0" width="0" height="200" fill="#fff" mask="url(#satori_om-id)"/></mask><mask id="satori_om-id-0-0-3"><rect x="0" y="0" width="0" height="200" fill="#fff" mask="url(#satori_om-id)"/></mask><mask id="satori_om-id-0-0-3-0"><rect x="0" y="0" width="0" height="200" fill="#fff" mask="url(#satori_om-id)"/></mask><mask id="satori_om-id-0-0-3-1"><rect x="0" y="0" width="0" height="200" fill="#fff" mask="url(#satori_om-id)"/></mask><mask id="satori_om-id-0-1"><rect x="0" y="0" width="0" height="200" fill="#fff" mask="url(#satori_om-id)"/></mask><mask id="satori_om-id-0-2"><rect x="0" y="0" width="0" height="200" fill="#fff" mask="url(#satori_om-id)"/></mask><mask id="satori_om-id-0-3"><rect x="0" y="0" width="0" height="200" fill="#fff" mask="url(#satori_om-id)"/></mask><mask id="satori_om-id-0-4"><rect x="0" y="0" width="0" height="200" fill="#fff" mask="url(#satori_om-id)"/></mask><mask id="satori_om-id-1"><rect x="371" y="27" width="58" height="13" fill="#fff" mask="url(#satori_om-id)"/></mask><g mask="url(#satori_om-id)" clip-path="url(#satori_cp-id)"><path fill="rgba(255,255,255,0.3)" d="M374.5 38.1L374.5 38.1Q373.7 38.1 373.0 37.9Q372.4 37.6 372.0 37.1Q371.7 36.6 371.6 35.9L371.6 35.9L372.7 35.9Q372.7 36.4 373.0 36.6Q373.2 36.9 373.7 37.1Q374.1 37.2 374.5 37.2L374.5 37.2Q375.1 37.2 375.5 37.0Q375.9 36.9 376.2 36.5Q376.4 36.2 376.4 35.8L376.4 35.8Q376.4 35.4 376.2 35.2Q376.0 34.9 375.6 34.8Q375.3 34.6 374.9 34.5L374.9 34.5L373.9 34.2Q372.9 34.0 372.4 33.4Q371.8 32.9 371.8 32.1L371.8 32.1Q371.8 31.5 372.2 31.0Q372.6 30.4 373.2 30.2Q373.8 29.9 374.6 29.9L374.6 29.9Q375.4 29.9 376.0 30.2Q376.6 30.4 377.0 30.9Q377.3 31.4 377.3 32.0L377.3 32.0L376.3 32.0Q376.3 31.4 375.8 31.1Q375.3 30.8 374.6 30.8L374.6 30.8Q374.1 30.8 373.7 31.0Q373.3 31.1 373.1 31.4Q372.8 31.7 372.8 32.1L372.8 32.1Q372.8 32.5 373.1 32.8Q373.4 33.0 373.7 33.2Q374.1 33.3 374.4 33.4L374.4 33.4L375.2 33.6Q375.5 33.7 375.9 33.8Q376.3 34.0 376.6 34.2Q377.0 34.5 377.2 34.9Q377.4 35.3 377.4 35.8L377.4 35.8Q377.4 36.5 377.1 37.0Q376.8 37.5 376.1 37.8Q375.5 38.1 374.5 38.1ZM385.1 30.9L382.6 30.9L382.6 30.0L388.6 30.0L388.6 30.9L386.1 30.9L386.1 38L385.1 38L385.1 30.9ZM394.5 38L393.4 38L396.3 30.0L397.5 30.0L400.5 38L399.4 38L398.6 35.8L395.3 35.8L394.5 38ZM395.6 34.9L398.3 34.9L397.7 33.3Q397.5 32.8 397.3 32.2L397.3 32.2Q397.2 31.6 396.9 30.8L396.9 30.8Q396.7 31.6 396.5 32.2L396.5 32.2Q396.3 32.8 396.2 33.3L396.2 33.3L395.6 34.9ZM409.0 38.1L409.0 38.1Q407.9 38.1 407.1 37.6Q406.3 37.1 405.9 36.2Q405.4 35.3 405.4 34.0L405.4 34.0Q405.4 32.7 405.9 31.8Q406.3 30.9 407.1 30.4Q407.9 29.9 409.0 29.9L409.0 29.9Q409.6 29.9 410.1 30.1Q410.6 30.2 411.1 30.6Q411.5 30.9 411.8 31.4Q412.1 31.9 412.2 32.5L412.2 32.5L411.2 32.5Q411.1 32.1 410.9 31.8Q410.7 31.5 410.4 31.3Q410.1 31.0 409.7 30.9Q409.3 30.8 409.0 30.8L409.0 30.8Q408.2 30.8 407.7 31.2Q407.1 31.6 406.7 32.3Q406.4 33.0 406.4 34.0L406.4 34.0Q406.4 35.0 406.7 35.7Q407.1 36.4 407.7 36.8Q408.2 37.2 409.0 37.2L409.0 37.2Q409.3 37.2 409.7 37.1Q410.1 36.9 410.4 36.7Q410.7 36.5 410.9 36.2Q411.1 35.9 411.2 35.5L411.2 35.5L412.2 35.5Q412.1 36.1 411.8 36.6Q411.5 37.1 411.1 37.4Q410.6 37.7 410.1 37.9Q409.6 38.1 409.0 38.1ZM418.8 38L417.7 38L417.7 30.0L418.8 30.0L418.8 32.7L418.8 34.2Q418.9 34.1 419.0 33.9L419.0 33.9Q419.3 33.6 419.5 33.2Q419.8 32.9 420.1 32.6L420.1 32.6L422.5 30.0L423.9 30.0L420.6 33.5L423.9 38L422.7 38L419.9 34.2L418.8 35.4L418.8 38Z "/></g><mask id="satori_om-id-2"><rect x="60" y="60" width="680" height="113" fill="#fff" mask="url(#satori_om-id)"/></mask><defs><clipPath id="satori_bc-id-2-0" clip-path="url(#satori_cp-id)"><path x="94" y="60" width="75" height="31" d="M109.5,60 h44 a15.5,15.5 0 0 1 15.5,15.5 v0 a15.5,15.5 0 0 1 -15.5,15.5 h-44 a15.5,15.5 0 0 1 -15.5,-15.5 v0 a15.5,15.5 0 0 1 15.5,-15.5"/></clipPath></defs><mask id="satori_om-id-2-0"><rect x="95" y="61" width="73" height="29" fill="#fff" mask="url(#satori_om-id)"/><path width="75" height="31" fill="none" stroke="#000" stroke-width="2" d="M98.53999999999999,64.53999999999999 A15.5,15.5 0 0 1 109.5,60 h44 a15.5,15.5 0 0 1 15.5,15.5 v0 a15.5,15.5 0 0 1 -15.5,15.5 h-44 a15.5,15.5 0 0 1 -15.5,-15.5 v0 A15.5,15.5 0 0 1 98.53999999999999,64.53999999999999"/></mask><path x="94" y="60" width="75" height="31" fill="rgba(255,255,255,0.04)" d="M109.5,60 h44 a15.5,15.5 0 0 1 15.5,15.5 v0 a15.5,15.5 0 0 1 -15.5,15.5 h-44 a15.5,15.5 0 0 1 -15.5,-15.5 v0 a15.5,15.5 0 0 1 15.5,-15.5" clip-path="url(#satori_cp-id)" mask="url(#satori_om-id)"/><path width="75" height="31" clip-path="url(#satori_bc-id-2-0)" fill="none" stroke="rgba(255,255,255,0.08)" stroke-width="2" d="M98.53999999999999,64.53999999999999 A15.5,15.5 0 0 1 109.5,60 h44 a15.5,15.5 0 0 1 15.5,15.5 v0 a15.5,15.5 0 0 1 -15.5,15.5 h-44 a15.5,15.5 0 0 1 -15.5,-15.5 v0 A15.5,15.5 0 0 1 98.53999999999999,64.53999999999999"/><g mask="url(#satori_om-id)" clip-path="url(#satori_cp-id)"><path fill="rgba(255,255,255,0.65)" d="M115.2 80L114.1 80L114.1 71.3L115.2 71.3L115.2 75.0L119.8 75.0L119.8 71.3L120.9 71.3L120.9 80L119.8 80L119.8 76.0L115.2 76.0L115.2 80ZM125.7 72.3L123.0 72.3L123.0 71.3L129.6 71.3L129.6 72.3L126.9 72.3L126.9 80L125.7 80L125.7 72.3ZM132.8 80L131.7 80L131.7 71.3L133.3 71.3L135.5 76.8Q135.5 77.0 135.6 77.3Q135.7 77.6 135.8 77.9Q135.9 78.2 136.0 78.6L136.0 78.6Q136.1 78.7 136.1 78.8L136.1 78.8Q136.1 78.7 136.1 78.6L136.1 78.6Q136.2 78.3 136.4 77.9Q136.5 77.6 136.6 77.3Q136.7 77.0 136.7 76.8L136.7 76.8L138.9 71.3L140.4 71.3L140.4 80L139.4 80L139.4 75.0Q139.4 74.7 139.4 74.4Q139.4 74.1 139.4 73.7Q139.4 73.3 139.4 72.9L139.4 72.9Q139.4 72.7 139.4 72.5L139.4 72.5Q139.3 72.7 139.2 73.0L139.2 73.0Q139.1 73.4 139.0 73.8Q138.8 74.2 138.7 74.5Q138.6 74.8 138.5 75.0L138.5 75.0L136.6 80L135.6 80L133.6 75.0Q133.5 74.8 133.4 74.5Q133.3 74.2 133.2 73.8Q133.0 73.4 132.9 73.0L132.9 73.0Q132.8 72.7 132.7 72.5L132.7 72.5Q132.7 72.7 132.8 72.8L132.8 72.8Q132.8 73.2 132.8 73.6Q132.8 74.0 132.8 74.4Q132.8 74.7 132.8 75.0L132.8 75.0L132.8 80ZM148.2 80L143.1 80L143.1 71.3L144.2 71.3L144.2 79.0L148.2 79.0L148.2 80Z "/></g><defs><clipPath id="satori_bc-id-2-1" clip-path="url(#satori_cp-id)"><path x="179" y="60" width="64" height="31" d="M194.5,60 h33 a15.5,15.5 0 0 1 15.5,15.5 v0 a15.5,15.5 0 0 1 -15.5,15.5 h-33 a15.5,15.5 0 0 1 -15.5,-15.5 v0 a15.5,15.5 0 0 1 15.5,-15.5"/></clipPath></defs><mask id="satori_om-id-2-1"><rect x="180" y="61" width="62" height="29" fill="#fff" mask="url(#satori_om-id)"/><path width="64" height="31" fill="none" stroke="#000" stroke-width="2" d="M183.54,64.53999999999999 A15.5,15.5 0 0 1 194.5,60 h33 a15.5,15.5 0 0 1 15.5,15.5 v0 a15.5,15.5 0 0 1 -15.5,15.5 h-33 a15.5,15.5 0 0 1 -15.5,-15.5 v0 A15.5,15.5 0 0 1 183.54,64.53999999999999"/></mask><path x="179" y="60" width="64" height="31" fill="rgba(255,255,255,0.04)" d="M194.5,60 h33 a15.5,15.5 0 0 1 15.5,15.5 v0 a15.5,15.5 0 0 1 -15.5,15.5 h-33 a15.5,15.5 0 0 1 -15.5,-15.5 v0 a15.5,15.5 0 0 1 15.5,-15.5" clip-path="url(#satori_cp-id)" mask="url(#satori_om-id)"/><path width="64" height="31" clip-path="url(#satori_bc-id-2-1)" fill="none" stroke="rgba(255,255,255,0.08)" stroke-width="2" d="M183.54,64.53999999999999 A15.5,15.5 0 0 1 194.5,60 h33 a15.5,15.5 0 0 1 15.5,15.5 v0 a15.5,15.5 0 0 1 -15.5,15.5 h-33 a15.5,15.5 0 0 1 -15.5,-15.5 v0 A15.5,15.5 0 0 1 183.54,64.53999999999999"/><g mask="url(#satori_om-id)" clip-path="url(#satori_cp-id)"><path fill="rgba(255,255,255,0.65)" d="M202.6 80.1L202.6 80.1Q201.5 80.1 200.6 79.6Q199.7 79.0 199.2 78.0Q198.7 77.0 198.7 75.6L198.7 75.6Q198.7 74.3 199.2 73.2Q199.7 72.2 200.6 71.7Q201.5 71.2 202.6 71.2L202.6 71.2Q203.3 71.2 203.8 71.3Q204.4 71.5 204.9 71.9Q205.4 72.3 205.7 72.8Q206.0 73.3 206.1 74.0L206.1 74.0L205.0 74.0Q204.9 73.6 204.7 73.2Q204.5 72.9 204.1 72.7Q203.8 72.4 203.4 72.3Q203.0 72.2 202.6 72.2L202.6 72.2Q201.8 72.2 201.2 72.6Q200.5 73.0 200.2 73.8Q199.8 74.5 199.8 75.6L199.8 75.6Q199.8 76.8 200.2 77.5Q200.5 78.3 201.2 78.7Q201.8 79.1 202.6 79.1L202.6 79.1Q203.0 79.1 203.4 79.0Q203.8 78.8 204.1 78.6Q204.5 78.4 204.7 78.0Q204.9 77.7 205.0 77.3L205.0 77.3L206.1 77.3Q206.0 77.9 205.7 78.4Q205.4 79.0 204.9 79.3Q204.4 79.7 203.8 79.9Q203.3 80.1 202.6 80.1ZM211.1 80.2L211.1 80.2Q210.2 80.2 209.5 79.8Q208.8 79.5 208.4 79.0Q208.0 78.4 207.9 77.7L207.9 77.7L209.1 77.7Q209.1 78.2 209.4 78.5Q209.7 78.8 210.2 79.0Q210.6 79.2 211.1 79.2L211.1 79.2Q211.7 79.2 212.2 79.0Q212.7 78.8 212.9 78.4Q213.2 78.1 213.2 77.6L213.2 77.6Q213.2 77.2 213.0 76.9Q212.7 76.7 212.3 76.5Q211.9 76.3 211.5 76.2L211.5 76.2L210.4 75.9Q209.4 75.6 208.8 75.0Q208.2 74.5 208.2 73.6L208.2 73.6Q208.2 72.9 208.6 72.3Q209.0 71.8 209.7 71.5Q210.3 71.2 211.2 71.2L211.2 71.2Q212.1 71.2 212.7 71.5Q213.4 71.8 213.8 72.3Q214.1 72.8 214.2 73.5L214.2 73.5L213.1 73.5Q213.0 72.8 212.5 72.5Q211.9 72.1 211.2 72.1L211.2 72.1Q210.6 72.1 210.2 72.3Q209.7 72.5 209.5 72.8Q209.3 73.1 209.3 73.6L209.3 73.6Q209.3 74.0 209.6 74.3Q209.8 74.6 210.2 74.7Q210.6 74.9 210.9 75.0L210.9 75.0L211.8 75.2Q212.2 75.3 212.6 75.5Q213.0 75.6 213.4 75.9Q213.8 76.2 214.0 76.6Q214.3 77.0 214.3 77.6L214.3 77.6Q214.3 78.3 213.9 78.9Q213.5 79.5 212.8 79.8Q212.1 80.2 211.1 80.2ZM219.3 80.2L219.3 80.2Q218.4 80.2 217.7 79.8Q217.0 79.5 216.6 79.0Q216.2 78.4 216.1 77.7L216.1 77.7L217.3 77.7Q217.3 78.2 217.6 78.5Q217.9 78.8 218.4 79.0Q218.8 79.2 219.3 79.2L219.3 79.2Q219.9 79.2 220.4 79.0Q220.8 78.8 221.1 78.4Q221.4 78.1 221.4 77.6L221.4 77.6Q221.4 77.2 221.2 76.9Q220.9 76.7 220.5 76.5Q220.1 76.3 219.7 76.2L219.7 76.2L218.6 75.9Q217.6 75.6 217.0 75.0Q216.4 74.5 216.4 73.6L216.4 73.6Q216.4 72.9 216.8 72.3Q217.2 71.8 217.9 71.5Q218.5 71.2 219.4 71.2L219.4 71.2Q220.3 71.2 220.9 71.5Q221.6 71.8 222.0 72.3Q222.3 72.8 222.4 73.5L222.4 73.5L221.3 73.5Q221.2 72.8 220.7 72.5Q220.1 72.1 219.4 72.1L219.4 72.1Q218.8 72.1 218.4 72.3Q217.9 72.5 217.7 72.8Q217.5 73.1 217.5 73.6L217.5 73.6Q217.5 74.0 217.8 74.3Q218.0 74.6 218.4 74.7Q218.8 74.9 219.1 75.0L219.1 75.0L220.0 75.2Q220.4 75.3 220.8 75.5Q221.2 75.6 221.6 75.9Q222.0 76.2 222.2 76.6Q222.5 77.0 222.5 77.6L222.5 77.6Q222.5 78.3 222.1 78.9Q221.7 79.5 221.0 79.8Q220.3 80.2 219.3 80.2Z "/></g><defs><clipPath id="satori_bc-id-2-2" clip-path="url(#satori_cp-id)"><path x="253" y="60" width="116" height="31" d="M268.5,60 h85 a15.5,15.5 0 0 1 15.5,15.5 v0 a15.5,15.5 0 0 1 -15.5,15.5 h-85 a15.5,15.5 0 0 1 -15.5,-15.5 v0 a15.5,15.5 0 0 1 15.5,-15.5"/></clipPath></defs><mask id="satori_om-id-2-2"><rect x="254" y="61" width="114" height="29" fill="#fff" mask="url(#satori_om-id)"/><path width="116" height="31" fill="none" stroke="#000" stroke-width="2" d="M257.54,64.53999999999999 A15.5,15.5 0 0 1 268.5,60 h85 a15.5,15.5 0 0 1 15.5,15.5 v0 a15.5,15.5 0 0 1 -15.5,15.5 h-85 a15.5,15.5 0 0 1 -15.5,-15.5 v0 A15.5,15.5 0 0 1 257.54,64.53999999999999"/></mask><path x="253" y="60" width="116" height="31" fill="rgba(255,255,255,0.04)" d="M268.5,60 h85 a15.5,15.5 0 0 1 15.5,15.5 v0 a15.5,15.5 0 0 1 -15.5,15.5 h-85 a15.5,15.5 0 0 1 -15.5,-15.5 v0 a15.5,15.5 0 0 1 15.5,-15.5" clip-path="url(#satori_cp-id)" mask="url(#satori_om-id)"/><path width="116" height="31" clip-path="url(#satori_bc-id-2-2)" fill="none" stroke="rgba(255,255,255,0.08)" stroke-width="2" d="M257.54,64.53999999999999 A15.5,15.5 0 0 1 268.5,60 h85 a15.5,15.5 0 0 1 15.5,15.5 v0 a15.5,15.5 0 0 1 -15.5,15.5 h-85 a15.5,15.5 0 0 1 -15.5,-15.5 v0 A15.5,15.5 0 0 1 257.54,64.53999999999999"/><g mask="url(#satori_om-id)" clip-path="url(#satori_cp-id)"><path fill="rgba(255,255,255,0.65)" d="M275.3 72.3L272.6 72.3L272.6 71.3L279.2 71.3L279.2 72.3L276.4 72.3L276.4 80L275.3 80L275.3 72.3ZM283.0 80.2L283.0 80.2Q282.4 80.2 281.9 79.9Q281.4 79.7 281.1 79.2Q280.8 78.8 280.8 78.1L280.8 78.1Q280.8 77.6 281.0 77.2Q281.2 76.9 281.6 76.7Q282.0 76.5 282.4 76.4Q282.9 76.3 283.3 76.2L283.3 76.2Q283.9 76.1 284.3 76.1Q284.6 76.1 284.8 76.0Q285.0 75.9 285.0 75.6L285.0 75.6L285.0 75.6Q285.0 75.2 284.9 74.9Q284.7 74.6 284.4 74.4Q284.1 74.3 283.6 74.3L283.6 74.3Q283.2 74.3 282.8 74.4Q282.5 74.6 282.3 74.8Q282.1 75.0 282.0 75.3L282.0 75.3L281.0 74.9Q281.2 74.3 281.6 74.0Q282.1 73.6 282.6 73.5Q283.1 73.4 283.6 73.4L283.6 73.4Q283.9 73.4 284.4 73.4Q284.8 73.5 285.2 73.8Q285.5 74.0 285.8 74.5Q286.1 74.9 286.1 75.7L286.1 75.7L286.1 80L285.0 80L285.0 79.1L285.0 79.1Q284.8 79.3 284.6 79.6Q284.3 79.8 284.0 80.0Q283.6 80.2 283.0 80.2ZM283.2 79.2L283.2 79.2Q283.8 79.2 284.2 79.0Q284.6 78.8 284.8 78.4Q285.0 78.0 285.0 77.6L285.0 77.6L285.0 76.7Q284.9 76.8 284.7 76.9Q284.5 76.9 284.2 77.0Q283.9 77.0 283.7 77.0Q283.4 77.1 283.3 77.1L283.3 77.1Q282.9 77.1 282.6 77.3Q282.2 77.4 282.0 77.6Q281.8 77.8 281.8 78.2L281.8 78.2Q281.8 78.5 282.0 78.8Q282.2 79.0 282.5 79.1Q282.8 79.2 283.2 79.2ZM289.5 80L288.4 80L288.4 73.4L289.5 73.4L289.5 80ZM288.9 72.4L288.9 72.4Q288.6 72.4 288.4 72.2Q288.2 72.0 288.2 71.7L288.2 71.7Q288.2 71.4 288.4 71.2Q288.6 71.0 288.9 71.0L288.9 71.0Q289.2 71.0 289.5 71.2Q289.7 71.4 289.7 71.7L289.7 71.7Q289.7 72.0 289.5 72.2Q289.2 72.4 288.9 72.4ZM291.8 71.3L292.9 71.3L292.9 80L291.8 80L291.8 71.3ZM297.7 80L296.7 80L294.7 73.4L295.8 73.4L296.6 76.3Q296.8 76.9 297.0 77.6L297.0 77.6Q297.1 78.2 297.3 78.9L297.3 78.9Q297.4 78.2 297.5 77.7L297.5 77.7Q297.7 76.9 297.9 76.3L297.9 76.3L298.7 73.4L299.8 73.4L300.6 76.3Q300.7 76.9 300.9 77.7L300.9 77.7Q301.0 78.2 301.2 78.9L301.2 78.9Q301.3 78.2 301.4 77.7L301.4 77.7Q301.6 76.9 301.8 76.3L301.8 76.3L302.6 73.4L303.7 73.4L301.7 80L300.7 80L299.8 77.0Q299.7 76.6 299.6 76.1Q299.4 75.6 299.3 75.2L299.3 75.2Q299.3 74.9 299.2 74.6L299.2 74.6Q299.1 74.9 299.1 75.1L299.1 75.1Q299.0 75.6 298.8 76.1Q298.7 76.6 298.6 77.0L298.6 77.0L297.7 80ZM306.6 80L305.5 80L305.5 73.4L306.6 73.4L306.6 80ZM306.1 72.4L306.1 72.4Q305.8 72.4 305.6 72.2Q305.3 72.0 305.3 71.7L305.3 71.7Q305.3 71.4 305.6 71.2Q305.8 71.0 306.1 71.0L306.1 71.0Q306.4 71.0 306.6 71.2Q306.8 71.4 306.8 71.7L306.8 71.7Q306.8 72.0 306.6 72.2Q306.4 72.4 306.1 72.4ZM310.0 76.1L310.0 76.1L310.0 80L308.9 80L308.9 73.4L310.0 73.4L310.0 74.7Q310.2 74.0 310.7 73.7L310.7 73.7Q311.2 73.4 312.0 73.4L312.0 73.4Q312.6 73.4 313.1 73.6Q313.6 73.9 313.9 74.5Q314.2 75.0 314.2 75.8L314.2 75.8L314.2 80L313.1 80L313.1 75.9Q313.1 75.2 312.7 74.7Q312.3 74.3 311.7 74.3L311.7 74.3Q311.2 74.3 310.8 74.5Q310.4 74.7 310.2 75.1Q310.0 75.5 310.0 76.1ZM319.0 80.1L319.0 80.1Q318.2 80.1 317.6 79.7Q316.9 79.3 316.6 78.5Q316.2 77.8 316.2 76.7L316.2 76.7Q316.2 75.7 316.6 74.9Q316.9 74.2 317.6 73.8Q318.2 73.4 319 73.4L319 73.4Q319.6 73.4 320.0 73.6Q320.4 73.8 320.6 74.1Q320.8 74.3 320.9 74.5L320.9 74.5L321.0 74.5L321.0 71.3L322.0 71.3L322.0 80L321.0 80L321.0 79.0L320.9 79.0Q320.8 79.2 320.6 79.4Q320.4 79.7 320.0 79.9Q319.6 80.1 319.0 80.1ZM319.2 79.2L319.2 79.2Q319.8 79.2 320.2 78.9Q320.6 78.6 320.8 78.0Q321.0 77.5 321.0 76.7L321.0 76.7Q321.0 76.0 320.8 75.5Q320.6 74.9 320.2 74.6Q319.8 74.3 319.2 74.3L319.2 74.3Q318.5 74.3 318.1 74.6Q317.7 75.0 317.5 75.5Q317.3 76.1 317.3 76.7L317.3 76.7Q317.3 77.4 317.5 78.0Q317.7 78.5 318.1 78.9Q318.5 79.2 319.2 79.2ZM328.0 80.1L328.0 80.1Q326.9 80.1 326.1 79.6Q325.2 79.0 324.7 78.0Q324.2 77.0 324.2 75.6L324.2 75.6Q324.2 74.3 324.7 73.2Q325.2 72.2 326.1 71.7Q326.9 71.2 328.0 71.2L328.0 71.2Q328.7 71.2 329.3 71.3Q329.9 71.5 330.4 71.9Q330.8 72.3 331.1 72.8Q331.5 73.3 331.6 74.0L331.6 74.0L330.5 74.0Q330.4 73.6 330.1 73.2Q329.9 72.9 329.6 72.7Q329.3 72.4 328.9 72.3Q328.5 72.2 328.0 72.2L328.0 72.2Q327.3 72.2 326.6 72.6Q326.0 73.0 325.6 73.8Q325.3 74.5 325.3 75.6L325.3 75.6Q325.3 76.8 325.6 77.5Q326.0 78.3 326.6 78.7Q327.3 79.1 328.0 79.1L328.0 79.1Q328.5 79.1 328.9 79.0Q329.3 78.8 329.6 78.6Q329.9 78.4 330.1 78.0Q330.4 77.7 330.5 77.3L330.5 77.3L331.6 77.3Q331.5 77.9 331.1 78.4Q330.8 79.0 330.4 79.3Q329.9 79.7 329.3 79.9Q328.7 80.1 328.0 80.1ZM336.6 80.2L336.6 80.2Q335.6 80.2 334.9 79.8Q334.2 79.5 333.9 79.0Q333.5 78.4 333.4 77.7L333.4 77.7L334.5 77.7Q334.6 78.2 334.9 78.5Q335.2 78.8 335.6 79.0Q336.1 79.2 336.6 79.2L336.6 79.2Q337.2 79.2 337.6 79.0Q338.1 78.8 338.4 78.4Q338.7 78.1 338.7 77.6L338.7 77.6Q338.7 77.2 338.4 76.9Q338.2 76.7 337.8 76.5Q337.4 76.3 336.9 76.2L336.9 76.2L335.9 75.9Q334.8 75.6 334.2 75.0Q333.7 74.5 333.7 73.6L333.7 73.6Q333.7 72.9 334.1 72.3Q334.4 71.8 335.1 71.5Q335.8 71.2 336.7 71.2L336.7 71.2Q337.5 71.2 338.2 71.5Q338.8 71.8 339.2 72.3Q339.6 72.8 339.6 73.5L339.6 73.5L338.5 73.5Q338.5 72.8 337.9 72.5Q337.4 72.1 336.6 72.1L336.6 72.1Q336.1 72.1 335.6 72.3Q335.2 72.5 335.0 72.8Q334.7 73.1 334.7 73.6L334.7 73.6Q334.7 74.0 335.0 74.3Q335.3 74.6 335.7 74.7Q336.1 74.9 336.4 75.0L336.4 75.0L337.3 75.2Q337.6 75.3 338.0 75.5Q338.5 75.6 338.9 75.9Q339.2 76.2 339.5 76.6Q339.7 77.0 339.7 77.6L339.7 77.6Q339.7 78.3 339.4 78.9Q339.0 79.5 338.3 79.8Q337.6 80.2 336.6 80.2ZM344.8 80.2L344.8 80.2Q343.8 80.2 343.1 79.8Q342.4 79.5 342.1 79.0Q341.7 78.4 341.6 77.7L341.6 77.7L342.7 77.7Q342.8 78.2 343.1 78.5Q343.4 78.8 343.8 79.0Q344.3 79.2 344.8 79.2L344.8 79.2Q345.4 79.2 345.8 79.0Q346.3 78.8 346.6 78.4Q346.9 78.1 346.9 77.6L346.9 77.6Q346.9 77.2 346.6 76.9Q346.4 76.7 346.0 76.5Q345.6 76.3 345.1 76.2L345.1 76.2L344.1 75.9Q343.0 75.6 342.4 75.0Q341.9 74.5 341.9 73.6L341.9 73.6Q341.9 72.9 342.3 72.3Q342.6 71.8 343.3 71.5Q344.0 71.2 344.9 71.2L344.9 71.2Q345.7 71.2 346.4 71.5Q347.0 71.8 347.4 72.3Q347.8 72.8 347.8 73.5L347.8 73.5L346.7 73.5Q346.7 72.8 346.1 72.5Q345.6 72.1 344.8 72.1L344.8 72.1Q344.3 72.1 343.8 72.3Q343.4 72.5 343.2 72.8Q342.9 73.1 342.9 73.6L342.9 73.6Q342.9 74.0 343.2 74.3Q343.5 74.6 343.9 74.7Q344.3 74.9 344.6 75.0L344.6 75.0L345.5 75.2Q345.8 75.3 346.2 75.5Q346.7 75.6 347.1 75.9Q347.4 76.2 347.7 76.6Q347.9 77.0 347.9 77.6L347.9 77.6Q347.9 78.3 347.6 78.9Q347.2 79.5 346.5 79.8Q345.8 80.2 344.8 80.2Z "/></g><defs><clipPath id="satori_bc-id-2-3" clip-path="url(#satori_cp-id)"><path x="379" y="60" width="98" height="31" d="M394.5,60 h67 a15.5,15.5 0 0 1 15.5,15.5 v0 a15.5,15.5 0 0 1 -15.5,15.5 h-67 a15.5,15.5 0 0 1 -15.5,-15.5 v0 a15.5,15.5 0 0 1 15.5,-15.5"/></clipPath></defs><mask id="satori_om-id-2-3"><rect x="380" y="61" width="96" height="29" fill="#fff" mask="url(#satori_om-id)"/><path width="98" height="31" fill="none" stroke="#000" stroke-width="2" d="M383.54,64.53999999999999 A15.5,15.5 0 0 1 394.5,60 h67 a15.5,15.5 0 0 1 15.5,15.5 v0 a15.5,15.5 0 0 1 -15.5,15.5 h-67 a15.5,15.5 0 0 1 -15.5,-15.5 v0 A15.5,15.5 0 0 1 383.54,64.53999999999999"/></mask><path x="379" y="60" width="98" height="31" fill="rgba(255,255,255,0.04)" d="M394.5,60 h67 a15.5,15.5 0 0 1 15.5,15.5 v0 a15.5,15.5 0 0 1 -15.5,15.5 h-67 a15.5,15.5 0 0 1 -15.5,-15.5 v0 a15.5,15.5 0 0 1 15.5,-15.5" clip-path="url(#satori_cp-id)" mask="url(#satori_om-id)"/><path width="98" height="31" clip-path="url(#satori_bc-id-2-3)" fill="none" stroke="rgba(255,255,255,0.08)" stroke-width="2" d="M383.54,64.53999999999999 A15.5,15.5 0 0 1 394.5,60 h67 a15.5,15.5 0 0 1 15.5,15.5 v0 a15.5,15.5 0 0 1 -15.5,15.5 h-67 a15.5,15.5 0 0 1 -15.5,-15.5 v0 A15.5,15.5 0 0 1 383.54,64.53999999999999"/><g mask="url(#satori_om-id)" clip-path="url(#satori_cp-id)"><path fill="rgba(255,255,255,0.65)" d="M402.2 80L399.1 80L399.1 71.3L402.1 71.3Q403.1 71.3 403.7 71.6Q404.3 71.9 404.5 72.4Q404.8 72.9 404.8 73.6L404.8 73.6Q404.8 74.1 404.6 74.5Q404.4 74.9 404.1 75.1Q403.8 75.3 403.4 75.4L403.4 75.4L403.4 75.5Q403.8 75.5 404.2 75.8Q404.6 76.0 404.9 76.5Q405.2 77.0 405.2 77.7L405.2 77.7Q405.2 78.3 404.9 78.9Q404.6 79.4 403.9 79.7Q403.3 80 402.2 80L402.2 80ZM400.2 76.0L400.2 79.0L402.2 79.0Q403.2 79.0 403.7 78.6Q404.1 78.2 404.1 77.7L404.1 77.7Q404.1 77.2 403.9 76.9Q403.7 76.5 403.2 76.3Q402.8 76.0 402.3 76.0L402.3 76.0L400.2 76.0ZM400.2 72.3L400.2 75.1L402.1 75.1Q402.6 75.1 402.9 74.9Q403.3 74.7 403.5 74.4Q403.8 74.1 403.8 73.6L403.8 73.6Q403.8 73.0 403.4 72.6Q403.0 72.3 402.1 72.3L402.1 72.3L400.2 72.3ZM409.9 80.1L409.9 80.1Q409.1 80.1 408.4 79.7Q407.7 79.3 407.3 78.5Q407.0 77.8 407.0 76.8L407.0 76.8Q407.0 75.7 407.3 75.0Q407.7 74.2 408.4 73.8Q409.1 73.4 409.9 73.4L409.9 73.4Q410.8 73.4 411.5 73.8Q412.2 74.2 412.6 75.0Q412.9 75.7 412.9 76.8L412.9 76.8Q412.9 77.8 412.6 78.5Q412.2 79.3 411.5 79.7Q410.8 80.1 409.9 80.1ZM409.9 79.2L409.9 79.2Q410.6 79.2 411.0 78.9Q411.5 78.5 411.7 78.0Q411.9 77.4 411.9 76.8L411.9 76.8Q411.9 76.1 411.7 75.6Q411.5 75.0 411.0 74.7Q410.6 74.3 409.9 74.3L409.9 74.3Q409.3 74.3 408.9 74.7Q408.4 75.0 408.2 75.6Q408.0 76.1 408.0 76.8L408.0 76.8Q408.0 77.4 408.2 78.0Q408.4 78.5 408.9 78.9Q409.3 79.2 409.9 79.2ZM417.6 80.1L417.6 80.1Q416.7 80.1 416.1 79.7Q415.4 79.3 415.0 78.5Q414.7 77.8 414.7 76.8L414.7 76.8Q414.7 75.7 415.0 75.0Q415.4 74.2 416.1 73.8Q416.7 73.4 417.6 73.4L417.6 73.4Q418.5 73.4 419.2 73.8Q419.9 74.2 420.3 75.0Q420.6 75.7 420.6 76.8L420.6 76.8Q420.6 77.8 420.3 78.5Q419.9 79.3 419.2 79.7Q418.5 80.1 417.6 80.1ZM417.6 79.2L417.6 79.2Q418.3 79.2 418.7 78.9Q419.2 78.5 419.4 78.0Q419.6 77.4 419.6 76.8L419.6 76.8Q419.6 76.1 419.4 75.6Q419.2 75.0 418.7 74.7Q418.3 74.3 417.6 74.3L417.6 74.3Q417.0 74.3 416.6 74.7Q416.1 75.0 415.9 75.6Q415.7 76.1 415.7 76.8L415.7 76.8Q415.7 77.4 415.9 78.0Q416.1 78.5 416.6 78.9Q417.0 79.2 417.6 79.2ZM423.9 73.4L425.2 73.4L425.2 74.4L423.9 74.4L423.9 78.3Q423.9 78.7 424.1 78.9Q424.3 79.1 424.7 79.1L424.7 79.1Q424.8 79.1 424.9 79.1Q425.1 79.1 425.2 79.1L425.2 79.1L425.4 80.0Q425.3 80.0 425.1 80.1Q424.8 80.1 424.6 80.1L424.6 80.1Q423.8 80.1 423.3 79.6Q422.8 79.2 422.8 78.4L422.8 78.4L422.8 74.4L421.9 74.4L421.9 73.4L422.8 73.4L422.8 71.9L423.9 71.9L423.9 73.4ZM429.3 80.1L429.3 80.1Q428.6 80.1 428.1 79.9Q427.6 79.7 427.3 79.4Q426.9 79.0 426.8 78.4L426.8 78.4L427.8 78.2Q427.9 78.7 428.3 79.0Q428.7 79.2 429.3 79.2L429.3 79.2Q430.0 79.2 430.4 78.9Q430.8 78.6 430.8 78.2L430.8 78.2Q430.8 77.9 430.6 77.7Q430.3 77.4 429.8 77.3L429.8 77.3L428.8 77.1Q427.9 76.9 427.4 76.4Q427 76.0 427 75.3L427 75.3Q427 74.7 427.3 74.3Q427.6 73.9 428.2 73.6Q428.7 73.4 429.4 73.4L429.4 73.4Q430.1 73.4 430.6 73.6Q431.0 73.8 431.3 74.1Q431.6 74.5 431.8 74.9L431.8 74.9L430.8 75.2Q430.7 74.8 430.4 74.6Q430.1 74.3 429.4 74.3L429.4 74.3Q428.8 74.3 428.5 74.5Q428.1 74.8 428.1 75.2L428.1 75.2Q428.1 75.6 428.3 75.8Q428.6 76.0 429.2 76.2L429.2 76.2L430.2 76.4Q431.0 76.6 431.5 77.0Q431.9 77.5 431.9 78.2L431.9 78.2Q431.9 78.7 431.6 79.2Q431.3 79.6 430.7 79.9Q430.1 80.1 429.3 80.1ZM435.2 73.4L436.5 73.4L436.5 74.4L435.2 74.4L435.2 78.3Q435.2 78.7 435.3 78.9Q435.5 79.1 435.9 79.1L435.9 79.1Q436.0 79.1 436.2 79.1Q436.3 79.1 436.5 79.1L436.5 79.1L436.7 80.0Q436.5 80.0 436.3 80.1Q436.1 80.1 435.9 80.1L435.9 80.1Q435.1 80.1 434.6 79.6Q434.1 79.2 434.1 78.4L434.1 78.4L434.1 74.4L433.1 74.4L433.1 73.4L434.1 73.4L434.1 71.9L435.2 71.9L435.2 73.4ZM439.4 80L438.4 80L438.4 73.4L439.4 73.4L439.4 74.5L439.4 74.5Q439.6 74.0 440.1 73.7Q440.6 73.4 441.1 73.4L441.1 73.4Q441.3 73.4 441.4 73.4Q441.6 73.4 441.7 73.4L441.7 73.4L441.7 74.4Q441.6 74.4 441.4 74.4Q441.3 74.4 441.0 74.4L441.0 74.4Q440.6 74.4 440.2 74.6Q439.8 74.8 439.6 75.1Q439.4 75.5 439.4 75.9L439.4 75.9L439.4 80ZM445.2 80.2L445.2 80.2Q444.6 80.2 444.1 79.9Q443.6 79.7 443.3 79.2Q443.0 78.8 443.0 78.1L443.0 78.1Q443.0 77.6 443.2 77.2Q443.4 76.9 443.8 76.7Q444.2 76.5 444.6 76.4Q445.1 76.3 445.5 76.2L445.5 76.2Q446.1 76.1 446.5 76.1Q446.8 76.1 447.0 76.0Q447.2 75.9 447.2 75.6L447.2 75.6L447.2 75.6Q447.2 75.2 447.1 74.9Q446.9 74.6 446.6 74.4Q446.3 74.3 445.8 74.3L445.8 74.3Q445.4 74.3 445.0 74.4Q444.7 74.6 444.5 74.8Q444.3 75.0 444.2 75.3L444.2 75.3L443.2 74.9Q443.4 74.3 443.8 74.0Q444.3 73.6 444.8 73.5Q445.3 73.4 445.8 73.4L445.8 73.4Q446.1 73.4 446.5 73.4Q447.0 73.5 447.4 73.8Q447.7 74.0 448.0 74.5Q448.3 74.9 448.3 75.7L448.3 75.7L448.3 80L447.2 80L447.2 79.1L447.2 79.1Q447.0 79.3 446.8 79.6Q446.5 79.8 446.2 80.0Q445.8 80.2 445.2 80.2ZM445.4 79.2L445.4 79.2Q446.0 79.2 446.4 79.0Q446.8 78.8 447.0 78.4Q447.2 78.0 447.2 77.6L447.2 77.6L447.2 76.7Q447.1 76.8 446.9 76.9Q446.7 76.9 446.4 77.0Q446.1 77.0 445.9 77.0Q445.6 77.1 445.5 77.1L445.5 77.1Q445.1 77.1 444.8 77.3Q444.4 77.4 444.2 77.6Q444.0 77.8 444.0 78.2L444.0 78.2Q444.0 78.5 444.2 78.8Q444.4 79.0 444.7 79.1Q445.0 79.2 445.4 79.2ZM451.7 82.4L450.6 82.4L450.6 73.4L451.6 73.4L451.6 74.5L451.7 74.5Q451.9 74.3 452.1 74.1Q452.3 73.8 452.6 73.6Q453.0 73.4 453.6 73.4L453.6 73.4Q454.5 73.4 455.1 73.8Q455.7 74.2 456.1 74.9Q456.4 75.7 456.4 76.7L456.4 76.7Q456.4 77.8 456.1 78.5Q455.7 79.3 455.1 79.7Q454.5 80.1 453.7 80.1L453.7 80.1Q453.0 80.1 452.6 79.9Q452.3 79.7 452.1 79.4Q451.9 79.2 451.7 79.0L451.7 79.0L451.7 79.0L451.7 82.4ZM453.5 79.2L453.5 79.2Q454.1 79.2 454.5 78.9Q454.9 78.5 455.1 78.0Q455.3 77.4 455.3 76.7L455.3 76.7Q455.3 76.1 455.1 75.5Q454.9 75.0 454.5 74.6Q454.1 74.3 453.5 74.3L453.5 74.3Q452.9 74.3 452.5 74.6Q452.1 74.9 451.9 75.5Q451.7 76.0 451.7 76.7L451.7 76.7Q451.7 77.5 451.9 78.0Q452.1 78.6 452.5 78.9Q452.9 79.2 453.5 79.2Z "/></g><defs><clipPath id="satori_bc-id-2-4" clip-path="url(#satori_cp-id)"><path x="487" y="60" width="104" height="31" d="M502.5,60 h73 a15.5,15.5 0 0 1 15.5,15.5 v0 a15.5,15.5 0 0 1 -15.5,15.5 h-73 a15.5,15.5 0 0 1 -15.5,-15.5 v0 a15.5,15.5 0 0 1 15.5,-15.5"/></clipPath></defs><mask id="satori_om-id-2-4"><rect x="488" y="61" width="102" height="29" fill="#fff" mask="url(#satori_om-id)"/><path width="104" height="31" fill="none" stroke="#000" stroke-width="2" d="M491.54,64.53999999999999 A15.5,15.5 0 0 1 502.5,60 h73 a15.5,15.5 0 0 1 15.5,15.5 v0 a15.5,15.5 0 0 1 -15.5,15.5 h-73 a15.5,15.5 0 0 1 -15.5,-15.5 v0 A15.5,15.5 0 0 1 491.54,64.53999999999999"/></mask><path x="487" y="60" width="104" height="31" fill="rgba(255,255,255,0.04)" d="M502.5,60 h73 a15.5,15.5 0 0 1 15.5,15.5 v0 a15.5,15.5 0 0 1 -15.5,15.5 h-73 a15.5,15.5 0 0 1 -15.5,-15.5 v0 a15.5,15.5 0 0 1 15.5,-15.5" clip-path="url(#satori_cp-id)" mask="url(#satori_om-id)"/><path width="104" height="31" clip-path="url(#satori_bc-id-2-4)" fill="none" stroke="rgba(255,255,255,0.08)" stroke-width="2" d="M491.54,64.53999999999999 A15.5,15.5 0 0 1 502.5,60 h73 a15.5,15.5 0 0 1 15.5,15.5 v0 a15.5,15.5 0 0 1 -15.5,15.5 h-73 a15.5,15.5 0 0 1 -15.5,-15.5 v0 A15.5,15.5 0 0 1 491.54,64.53999999999999"/><g mask="url(#satori_om-id)" clip-path="url(#satori_cp-id)"><path fill="rgba(255,255,255,0.65)" d="M509.2 80.1L509.2 80.1Q508.0 80.1 507.3 79.4Q506.6 78.8 506.6 77.5L506.6 77.5L506.6 77.0L507.7 77.0L507.7 77.5Q507.7 78.3 508.1 78.7Q508.5 79.1 509.2 79.1L509.2 79.1Q509.9 79.1 510.3 78.7Q510.7 78.3 510.7 77.5L510.7 77.5L510.7 71.3L511.8 71.3L511.8 77.5Q511.8 78.8 511.1 79.4Q510.3 80.1 509.2 80.1ZM516.1 80.2L516.1 80.2Q515.5 80.2 515.0 79.9Q514.5 79.7 514.2 79.2Q513.9 78.8 513.9 78.1L513.9 78.1Q513.9 77.6 514.1 77.2Q514.3 76.9 514.7 76.7Q515.1 76.5 515.5 76.4Q516.0 76.3 516.4 76.2L516.4 76.2Q517.0 76.1 517.4 76.1Q517.8 76.1 517.9 76.0Q518.1 75.9 518.1 75.6L518.1 75.6L518.1 75.6Q518.1 75.2 518.0 74.9Q517.8 74.6 517.5 74.4Q517.2 74.3 516.7 74.3L516.7 74.3Q516.3 74.3 515.9 74.4Q515.6 74.6 515.4 74.8Q515.2 75.0 515.1 75.3L515.1 75.3L514.1 74.9Q514.3 74.3 514.7 74.0Q515.2 73.6 515.7 73.5Q516.2 73.4 516.7 73.4L516.7 73.4Q517.0 73.4 517.5 73.4Q517.9 73.5 518.3 73.8Q518.7 74.0 518.9 74.5Q519.2 74.9 519.2 75.7L519.2 75.7L519.2 80L518.1 80L518.1 79.1L518.1 79.1Q517.9 79.3 517.7 79.6Q517.5 79.8 517.1 80.0Q516.7 80.2 516.1 80.2ZM516.3 79.2L516.3 79.2Q516.9 79.2 517.3 79.0Q517.7 78.8 517.9 78.4Q518.1 78.0 518.1 77.6L518.1 77.6L518.1 76.7Q518.0 76.8 517.8 76.9Q517.6 76.9 517.3 77.0Q517.1 77.0 516.8 77.0Q516.5 77.1 516.4 77.1L516.4 77.1Q516.0 77.1 515.7 77.3Q515.3 77.4 515.1 77.6Q514.9 77.8 514.9 78.2L514.9 78.2Q514.9 78.5 515.1 78.8Q515.3 79.0 515.6 79.1Q515.9 79.2 516.3 79.2ZM524.5 80L523.4 80L520.9 73.4L522.1 73.4L523.5 77.3Q523.7 77.9 523.8 78.5L523.8 78.5Q523.9 78.8 524.0 79.0L524.0 79.0Q524.0 78.8 524.1 78.5L524.1 78.5Q524.3 77.9 524.5 77.3L524.5 77.3L525.9 73.4L527.0 73.4L524.5 80ZM530.6 80.2L530.6 80.2Q530.0 80.2 529.5 79.9Q529.0 79.7 528.7 79.2Q528.4 78.8 528.4 78.1L528.4 78.1Q528.4 77.6 528.6 77.2Q528.8 76.9 529.2 76.7Q529.5 76.5 530 76.4Q530.5 76.3 530.9 76.2L530.9 76.2Q531.5 76.1 531.9 76.1Q532.2 76.1 532.4 76.0Q532.6 75.9 532.6 75.6L532.6 75.6L532.6 75.6Q532.6 75.2 532.4 74.9Q532.3 74.6 532.0 74.4Q531.7 74.3 531.2 74.3L531.2 74.3Q530.8 74.3 530.4 74.4Q530.1 74.6 529.9 74.8Q529.7 75.0 529.6 75.3L529.6 75.3L528.5 74.9Q528.8 74.3 529.2 74.0Q529.7 73.6 530.2 73.5Q530.7 73.4 531.2 73.4L531.2 73.4Q531.5 73.4 531.9 73.4Q532.4 73.5 532.7 73.8Q533.1 74.0 533.4 74.5Q533.6 74.9 533.6 75.7L533.6 75.7L533.6 80L532.6 80L532.6 79.1L532.5 79.1Q532.4 79.3 532.2 79.6Q531.9 79.8 531.5 80.0Q531.1 80.2 530.6 80.2ZM530.8 79.2L530.8 79.2Q531.4 79.2 531.8 79.0Q532.2 78.8 532.4 78.4Q532.6 78.0 532.6 77.6L532.6 77.6L532.6 76.7Q532.5 76.8 532.3 76.9Q532.1 76.9 531.8 77.0Q531.5 77.0 531.3 77.0Q531.0 77.1 530.9 77.1L530.9 77.1Q530.5 77.1 530.1 77.3Q529.8 77.4 529.6 77.6Q529.4 77.8 529.4 78.2L529.4 78.2Q529.4 78.5 529.6 78.8Q529.8 79.0 530.1 79.1Q530.4 79.2 530.8 79.2ZM538.9 80.2L538.9 80.2Q538.0 80.2 537.3 79.8Q536.6 79.5 536.2 79.0Q535.8 78.4 535.8 77.7L535.8 77.7L536.9 77.7Q536.9 78.2 537.2 78.5Q537.5 78.8 538.0 79.0Q538.4 79.2 538.9 79.2L538.9 79.2Q539.5 79.2 540.0 79.0Q540.5 78.8 540.7 78.4Q541.0 78.1 541.0 77.6L541.0 77.6Q541.0 77.2 540.8 76.9Q540.5 76.7 540.1 76.5Q539.7 76.3 539.3 76.2L539.3 76.2L538.2 75.9Q537.2 75.6 536.6 75.0Q536.0 74.5 536.0 73.6L536.0 73.6Q536.0 72.9 536.4 72.3Q536.8 71.8 537.5 71.5Q538.2 71.2 539.0 71.2L539.0 71.2Q539.9 71.2 540.5 71.5Q541.2 71.8 541.6 72.3Q541.9 72.8 542.0 73.5L542.0 73.5L540.9 73.5Q540.8 72.8 540.3 72.5Q539.7 72.1 539.0 72.1L539.0 72.1Q538.4 72.1 538.0 72.3Q537.5 72.5 537.3 72.8Q537.1 73.1 537.1 73.6L537.1 73.6Q537.1 74.0 537.4 74.3Q537.6 74.6 538.0 74.7Q538.4 74.9 538.7 75.0L538.7 75.0L539.6 75.2Q540.0 75.3 540.4 75.5Q540.8 75.6 541.2 75.9Q541.6 76.2 541.8 76.6Q542.1 77.0 542.1 77.6L542.1 77.6Q542.1 78.3 541.7 78.9Q541.3 79.5 540.6 79.8Q539.9 80.2 538.9 80.2ZM546.9 80.1L546.9 80.1Q546.0 80.1 545.3 79.7Q544.6 79.3 544.3 78.5Q543.9 77.8 543.9 76.8L543.9 76.8Q543.9 75.7 544.3 75.0Q544.6 74.2 545.3 73.8Q546.0 73.4 546.9 73.4L546.9 73.4Q547.3 73.4 547.8 73.5Q548.2 73.6 548.5 73.8Q548.9 74.1 549.1 74.4Q549.4 74.8 549.5 75.2L549.5 75.2L548.5 75.5Q548.4 75.2 548.3 75.0Q548.1 74.8 547.9 74.6Q547.7 74.5 547.5 74.4Q547.2 74.3 546.9 74.3L546.9 74.3Q546.2 74.3 545.8 74.7Q545.4 75.0 545.2 75.6Q545.0 76.1 545.0 76.8L545.0 76.8Q545.0 77.4 545.2 78.0Q545.4 78.5 545.8 78.9Q546.2 79.2 546.9 79.2L546.9 79.2Q547.2 79.2 547.5 79.1Q547.7 79.0 548.0 78.9Q548.2 78.7 548.3 78.5Q548.5 78.3 548.5 78.0L548.5 78.0L549.5 78.3Q549.4 78.7 549.2 79.1Q548.9 79.4 548.5 79.6Q548.2 79.9 547.8 80.0Q547.3 80.1 546.9 80.1ZM552.6 80L551.6 80L551.6 73.4L552.6 73.4L552.6 74.5L552.6 74.5Q552.8 74.0 553.3 73.7Q553.8 73.4 554.3 73.4L554.3 73.4Q554.5 73.4 554.6 73.4Q554.8 73.4 554.9 73.4L554.9 73.4L554.9 74.4Q554.8 74.4 554.6 74.4Q554.5 74.4 554.2 74.4L554.2 74.4Q553.8 74.4 553.4 74.6Q553.0 74.8 552.8 75.1Q552.6 75.5 552.6 75.9L552.6 75.9L552.6 80ZM557.6 80L556.6 80L556.6 73.4L557.6 73.4L557.6 80ZM557.1 72.4L557.1 72.4Q556.8 72.4 556.6 72.2Q556.4 72.0 556.4 71.7L556.4 71.7Q556.4 71.4 556.6 71.2Q556.8 71.0 557.1 71.0L557.1 71.0Q557.4 71.0 557.6 71.2Q557.8 71.4 557.8 71.7L557.8 71.7Q557.8 72.0 557.6 72.2Q557.4 72.4 557.1 72.4ZM561.0 82.4L560.0 82.4L560.0 73.4L561.0 73.4L561.0 74.5L561.1 74.5Q561.2 74.3 561.4 74.1Q561.6 73.8 562.0 73.6Q562.4 73.4 563.0 73.4L563.0 73.4Q563.8 73.4 564.5 73.8Q565.1 74.2 565.4 74.9Q565.8 75.7 565.8 76.7L565.8 76.7Q565.8 77.8 565.4 78.5Q565.1 79.3 564.5 79.7Q563.8 80.1 563.0 80.1L563.0 80.1Q562.4 80.1 562.0 79.9Q561.6 79.7 561.4 79.4Q561.2 79.2 561.1 79.0L561.1 79.0L561.0 79.0L561.0 82.4ZM562.9 79.2L562.9 79.2Q563.5 79.2 563.9 78.9Q564.3 78.5 564.5 78.0Q564.7 77.4 564.7 76.7L564.7 76.7Q564.7 76.1 564.5 75.5Q564.3 75.0 563.9 74.6Q563.5 74.3 562.9 74.3L562.9 74.3Q562.3 74.3 561.8 74.6Q561.4 74.9 561.2 75.5Q561.0 76.0 561.0 76.7L561.0 76.7Q561.0 77.5 561.2 78.0Q561.4 78.6 561.9 78.9Q562.3 79.2 562.9 79.2ZM569.1 73.4L570.4 73.4L570.4 74.4L569.1 74.4L569.1 78.3Q569.1 78.7 569.2 78.9Q569.4 79.1 569.8 79.1L569.8 79.1Q569.9 79.1 570.1 79.1Q570.2 79.1 570.4 79.1L570.4 79.1L570.6 80.0Q570.4 80.0 570.2 80.1Q570.0 80.1 569.8 80.1L569.8 80.1Q568.9 80.1 568.5 79.6Q568.0 79.2 568.0 78.4L568.0 78.4L568.0 74.4L567.0 74.4L567.0 73.4L568.0 73.4L568.0 71.9L569.1 71.9L569.1 73.4Z "/></g><defs><clipPath id="satori_bc-id-2-5" clip-path="url(#satori_cp-id)"><path x="601" y="60" width="106" height="31" d="M616.5,60 h75 a15.5,15.5 0 0 1 15.5,15.5 v0 a15.5,15.5 0 0 1 -15.5,15.5 h-75 a15.5,15.5 0 0 1 -15.5,-15.5 v0 a15.5,15.5 0 0 1 15.5,-15.5"/></clipPath></defs><mask id="satori_om-id-2-5"><rect x="602" y="61" width="104" height="29" fill="#fff" mask="url(#satori_om-id)"/><path width="106" height="31" fill="none" stroke="#000" stroke-width="2" d="M605.54,64.53999999999999 A15.5,15.5 0 0 1 616.5,60 h75 a15.5,15.5 0 0 1 15.5,15.5 v0 a15.5,15.5 0 0 1 -15.5,15.5 h-75 a15.5,15.5 0 0 1 -15.5,-15.5 v0 A15.5,15.5 0 0 1 605.54,64.53999999999999"/></mask><path x="601" y="60" width="106" height="31" fill="rgba(255,255,255,0.04)" d="M616.5,60 h75 a15.5,15.5 0 0 1 15.5,15.5 v0 a15.5,15.5 0 0 1 -15.5,15.5 h-75 a15.5,15.5 0 0 1 -15.5,-15.5 v0 a15.5,15.5 0 0 1 15.5,-15.5" clip-path="url(#satori_cp-id)" mask="url(#satori_om-id)"/><path width="106" height="31" clip-path="url(#satori_bc-id-2-5)" fill="none" stroke="rgba(255,255,255,0.08)" stroke-width="2" d="M605.54,64.53999999999999 A15.5,15.5 0 0 1 616.5,60 h75 a15.5,15.5 0 0 1 15.5,15.5 v0 a15.5,15.5 0 0 1 -15.5,15.5 h-75 a15.5,15.5 0 0 1 -15.5,-15.5 v0 A15.5,15.5 0 0 1 605.54,64.53999999999999"/><g mask="url(#satori_om-id)" clip-path="url(#satori_cp-id)"><path fill="rgba(255,255,255,0.65)" d="M623.3 72.3L620.6 72.3L620.6 71.3L627.2 71.3L627.2 72.3L624.4 72.3L624.4 80L623.3 80L623.3 72.3ZM629.1 82.4L629.1 82.4L629.3 81.5L629.4 81.5Q629.8 81.6 630.0 81.5Q630.3 81.5 630.5 81.3Q630.7 81.0 630.9 80.6L630.9 80.6L631.1 80.0L628.6 73.4L629.7 73.4L631.1 77.3Q631.3 77.9 631.5 78.5L631.5 78.5Q631.6 78.8 631.6 79.0L631.6 79.0Q631.7 78.8 631.8 78.5L631.8 78.5Q631.9 77.9 632.1 77.3L632.1 77.3L633.5 73.4L634.7 73.4L631.8 81.0Q631.6 81.5 631.3 81.8Q631.0 82.2 630.7 82.3Q630.3 82.5 629.8 82.5L629.8 82.5Q629.6 82.5 629.4 82.5Q629.1 82.4 629.1 82.4ZM637.5 82.4L636.4 82.4L636.4 73.4L637.4 73.4L637.4 74.5L637.6 74.5Q637.7 74.3 637.9 74.1Q638.1 73.8 638.4 73.6Q638.8 73.4 639.5 73.4L639.5 73.4Q640.3 73.4 640.9 73.8Q641.5 74.2 641.9 74.9Q642.2 75.7 642.2 76.7L642.2 76.7Q642.2 77.8 641.9 78.5Q641.5 79.3 640.9 79.7Q640.3 80.1 639.5 80.1L639.5 80.1Q638.8 80.1 638.5 79.9Q638.1 79.7 637.9 79.4Q637.7 79.2 637.6 79.0L637.6 79.0L637.5 79.0L637.5 82.4ZM639.3 79.2L639.3 79.2Q639.9 79.2 640.3 78.9Q640.7 78.5 640.9 78.0Q641.2 77.4 641.2 76.7L641.2 76.7Q641.2 76.1 641.0 75.5Q640.7 75.0 640.3 74.6Q639.9 74.3 639.3 74.3L639.3 74.3Q638.7 74.3 638.3 74.6Q637.9 74.9 637.7 75.5Q637.5 76.0 637.5 76.7L637.5 76.7Q637.5 77.5 637.7 78.0Q637.9 78.6 638.3 78.9Q638.7 79.2 639.3 79.2ZM647.0 80.1L647.0 80.1Q646.1 80.1 645.4 79.7Q644.7 79.3 644.3 78.5Q643.9 77.8 643.9 76.8Q643.9 75.8 644.3 75.0Q644.7 74.2 645.3 73.8Q646.0 73.4 646.9 73.4L646.9 73.4Q647.4 73.4 647.9 73.5Q648.4 73.7 648.8 74.1Q649.3 74.5 649.5 75.1Q649.7 75.7 649.7 76.6L649.7 76.6L649.7 77.1L645.0 77.1Q645.0 77.7 645.3 78.2L645.3 78.2Q645.5 78.7 646.0 78.9Q646.4 79.2 647.0 79.2L647.0 79.2Q647.4 79.2 647.7 79.1Q648.0 79.0 648.3 78.8Q648.5 78.5 648.6 78.2L648.6 78.2L649.6 78.5Q649.5 79.0 649.1 79.3Q648.8 79.7 648.2 79.9Q647.7 80.1 647.0 80.1ZM645.0 76.2L645.0 76.2L648.7 76.2Q648.6 75.7 648.5 75.4L648.5 75.4Q648.3 74.9 647.9 74.6Q647.5 74.3 646.9 74.3Q646.3 74.3 645.9 74.6Q645.5 74.9 645.2 75.3L645.2 75.3Q645.0 75.7 645.0 76.2ZM654.7 80.2L654.7 80.2Q653.7 80.2 653.0 79.8Q652.4 79.5 652.0 79.0Q651.6 78.4 651.5 77.7L651.5 77.7L652.7 77.7Q652.7 78.2 653.0 78.5Q653.3 78.8 653.7 79.0Q654.2 79.2 654.7 79.2L654.7 79.2Q655.3 79.2 655.7 79.0Q656.2 78.8 656.5 78.4Q656.8 78.1 656.8 77.6L656.8 77.6Q656.8 77.2 656.5 76.9Q656.3 76.7 655.9 76.5Q655.5 76.3 655.0 76.2L655.0 76.2L654.0 75.9Q652.9 75.6 652.3 75.0Q651.8 74.5 651.8 73.6L651.8 73.6Q651.8 72.9 652.2 72.3Q652.6 71.8 653.2 71.5Q653.9 71.2 654.8 71.2L654.8 71.2Q655.6 71.2 656.3 71.5Q656.9 71.8 657.3 72.3Q657.7 72.8 657.7 73.5L657.7 73.5L656.6 73.5Q656.6 72.8 656.0 72.5Q655.5 72.1 654.7 72.1L654.7 72.1Q654.2 72.1 653.7 72.3Q653.3 72.5 653.1 72.8Q652.8 73.1 652.8 73.6L652.8 73.6Q652.8 74.0 653.1 74.3Q653.4 74.6 653.8 74.7Q654.2 74.9 654.5 75.0L654.5 75.0L655.4 75.2Q655.7 75.3 656.2 75.5Q656.6 75.6 657.0 75.9Q657.4 76.2 657.6 76.6Q657.9 77.0 657.9 77.6L657.9 77.6Q657.9 78.3 657.5 78.9Q657.1 79.5 656.4 79.8Q655.7 80.2 654.7 80.2ZM662.6 80.1L662.6 80.1Q661.7 80.1 661.1 79.7Q660.4 79.3 660.0 78.5Q659.6 77.8 659.6 76.8L659.6 76.8Q659.6 75.7 660.0 75.0Q660.4 74.2 661.1 73.8Q661.7 73.4 662.6 73.4L662.6 73.4Q663.1 73.4 663.5 73.5Q663.9 73.6 664.3 73.8Q664.6 74.1 664.9 74.4Q665.1 74.8 665.3 75.2L665.3 75.2L664.3 75.5Q664.2 75.2 664.0 75.0Q663.9 74.8 663.7 74.6Q663.5 74.5 663.2 74.4Q662.9 74.3 662.6 74.3L662.6 74.3Q662.0 74.3 661.5 74.7Q661.1 75.0 660.9 75.6Q660.7 76.1 660.7 76.8L660.7 76.8Q660.7 77.4 660.9 78.0Q661.1 78.5 661.5 78.9Q662.0 79.2 662.6 79.2L662.6 79.2Q663.0 79.2 663.2 79.1Q663.5 79.0 663.7 78.9Q663.9 78.7 664.1 78.5Q664.2 78.3 664.3 78.0L664.3 78.0L665.3 78.3Q665.2 78.7 664.9 79.1Q664.7 79.4 664.3 79.6Q664.0 79.9 663.5 80.0Q663.1 80.1 662.6 80.1ZM668.4 80L667.3 80L667.3 73.4L668.3 73.4L668.3 74.5L668.4 74.5Q668.6 74.0 669.1 73.7Q669.5 73.4 670.1 73.4L670.1 73.4Q670.2 73.4 670.4 73.4Q670.5 73.4 670.6 73.4L670.6 73.4L670.6 74.4Q670.6 74.4 670.4 74.4Q670.2 74.4 670.0 74.4L670.0 74.4Q669.5 74.4 669.2 74.6Q668.8 74.8 668.6 75.1Q668.4 75.5 668.4 75.9L668.4 75.9L668.4 80ZM673.4 80L672.3 80L672.3 73.4L673.4 73.4L673.4 80ZM672.9 72.4L672.9 72.4Q672.6 72.4 672.3 72.2Q672.1 72.0 672.1 71.7L672.1 71.7Q672.1 71.4 672.3 71.2Q672.6 71.0 672.9 71.0L672.9 71.0Q673.2 71.0 673.4 71.2Q673.6 71.4 673.6 71.7L673.6 71.7Q673.6 72.0 673.4 72.2Q673.2 72.4 672.9 72.4ZM676.8 82.4L675.7 82.4L675.7 73.4L676.8 73.4L676.8 74.5L676.9 74.5Q677.0 74.3 677.2 74.1Q677.4 73.8 677.8 73.6Q678.1 73.4 678.8 73.4L678.8 73.4Q679.6 73.4 680.2 73.8Q680.8 74.2 681.2 74.9Q681.6 75.7 681.6 76.7L681.6 76.7Q681.6 77.8 681.2 78.5Q680.8 79.3 680.2 79.7Q679.6 80.1 678.8 80.1L678.8 80.1Q678.2 80.1 677.8 79.9Q677.4 79.7 677.2 79.4Q677.0 79.2 676.9 79.0L676.9 79.0L676.8 79.0L676.8 82.4ZM678.6 79.2L678.6 79.2Q679.2 79.2 679.6 78.9Q680.1 78.5 680.3 78.0Q680.5 77.4 680.5 76.7L680.5 76.7Q680.5 76.1 680.3 75.5Q680.1 75.0 679.7 74.6Q679.2 74.3 678.6 74.3L678.6 74.3Q678.0 74.3 677.6 74.6Q677.2 74.9 677.0 75.5Q676.8 76.0 676.8 76.7L676.8 76.7Q676.8 77.5 677.0 78.0Q677.2 78.6 677.6 78.9Q678.0 79.2 678.6 79.2ZM684.8 73.4L686.2 73.4L686.2 74.4L684.8 74.4L684.8 78.3Q684.8 78.7 685.0 78.9Q685.2 79.1 685.6 79.1L685.6 79.1Q685.7 79.1 685.8 79.1Q686 79.1 686.1 79.1L686.1 79.1L686.3 80.0Q686.2 80.0 686.0 80.1Q685.8 80.1 685.6 80.1L685.6 80.1Q684.7 80.1 684.2 79.6Q683.8 79.2 683.8 78.4L683.8 78.4L683.8 74.4L682.8 74.4L682.8 73.4L683.8 73.4L683.8 71.9L684.8 71.9L684.8 73.4Z "/></g><defs><clipPath id="satori_bc-id-2-6" clip-path="url(#satori_cp-id)"><path x="76" y="101" width="73" height="31" d="M91.5,101 h42 a15.5,15.5 0 0 1 15.5,15.5 v0 a15.5,15.5 0 0 1 -15.5,15.5 h-42 a15.5,15.5 0 0 1 -15.5,-15.5 v0 a15.5,15.5 0 0 1 15.5,-15.5"/></clipPath></defs><mask id="satori_om-id-2-6"><rect x="77" y="102" width="71" height="29" fill="#fff" mask="url(#satori_om-id)"/><path width="73" height="31" fill="none" stroke="#000" stroke-width="2" d="M80.53999999999999,105.53999999999999 A15.5,15.5 0 0 1 91.5,101 h42 a15.5,15.5 0 0 1 15.5,15.5 v0 a15.5,15.5 0 0 1 -15.5,15.5 h-42 a15.5,15.5 0 0 1 -15.5,-15.5 v0 A15.5,15.5 0 0 1 80.53999999999999,105.53999999999999"/></mask><path x="76" y="101" width="73" height="31" fill="rgba(255,255,255,0.04)" d="M91.5,101 h42 a15.5,15.5 0 0 1 15.5,15.5 v0 a15.5,15.5 0 0 1 -15.5,15.5 h-42 a15.5,15.5 0 0 1 -15.5,-15.5 v0 a15.5,15.5 0 0 1 15.5,-15.5" clip-path="url(#satori_cp-id)" mask="url(#satori_om-id)"/><path width="73" height="31" clip-path="url(#satori_bc-id-2-6)" fill="none" stroke="rgba(255,255,255,0.08)" stroke-width="2" d="M80.53999999999999,105.53999999999999 A15.5,15.5 0 0 1 91.5,101 h42 a15.5,15.5 0 0 1 15.5,15.5 v0 a15.5,15.5 0 0 1 -15.5,15.5 h-42 a15.5,15.5 0 0 1 -15.5,-15.5 v0 A15.5,15.5 0 0 1 80.53999999999999,105.53999999999999"/><g mask="url(#satori_om-id)" clip-path="url(#satori_cp-id)"><path fill="rgba(255,255,255,0.65)" d="M97.2 121L96.1 121L96.1 112.3L99.0 112.3Q100.1 112.3 100.7 112.6Q101.4 113.0 101.7 113.6Q102.0 114.2 102.0 115.0Q102.0 115.7 101.7 116.3Q101.4 116.9 100.7 117.3L100.7 117.3Q100.6 117.4 100.4 117.4L100.4 117.4L102.4 121L101.1 121L99.3 117.6Q99.2 117.6 99.0 117.6L99.0 117.6L97.2 117.6L97.2 121ZM97.2 113.2L97.2 116.6L99.0 116.6Q99.7 116.6 100.1 116.4Q100.5 116.2 100.7 115.8Q100.9 115.5 100.9 115.0L100.9 115.0Q100.9 114.4 100.7 114.1Q100.5 113.7 100.1 113.5Q99.7 113.2 99.0 113.2L99.0 113.2L97.2 113.2ZM106.9 121.1L106.9 121.1Q106.0 121.1 105.3 120.7Q104.6 120.3 104.2 119.5Q103.8 118.8 103.8 117.8Q103.8 116.8 104.2 116.0Q104.6 115.2 105.2 114.8Q105.9 114.4 106.8 114.4L106.8 114.4Q107.3 114.4 107.8 114.5Q108.3 114.7 108.7 115.1Q109.1 115.5 109.4 116.1Q109.6 116.7 109.6 117.6L109.6 117.6L109.6 118.1L104.9 118.1Q104.9 118.7 105.2 119.2L105.2 119.2Q105.4 119.7 105.9 119.9Q106.3 120.2 106.9 120.2L106.9 120.2Q107.3 120.2 107.6 120.1Q107.9 120.0 108.2 119.8Q108.4 119.5 108.5 119.2L108.5 119.2L109.5 119.5Q109.4 120.0 109.0 120.3Q108.6 120.7 108.1 120.9Q107.6 121.1 106.9 121.1ZM104.9 117.2L104.9 117.2L108.6 117.2Q108.5 116.7 108.4 116.4L108.4 116.4Q108.2 115.9 107.8 115.6Q107.4 115.3 106.8 115.3Q106.2 115.3 105.8 115.6Q105.3 115.9 105.1 116.3L105.1 116.3Q104.9 116.7 104.9 117.2ZM113.5 121.2L113.5 121.2Q112.9 121.2 112.4 120.9Q111.8 120.7 111.5 120.2Q111.2 119.8 111.2 119.1L111.2 119.1Q111.2 118.6 111.5 118.2Q111.7 117.9 112.1 117.7Q112.4 117.5 112.9 117.4Q113.3 117.3 113.8 117.2L113.8 117.2Q114.4 117.1 114.8 117.1Q115.1 117.1 115.3 117.0Q115.5 116.9 115.5 116.6L115.5 116.6L115.5 116.6Q115.5 116.2 115.3 115.9Q115.2 115.6 114.9 115.4Q114.6 115.3 114.1 115.3L114.1 115.3Q113.6 115.3 113.3 115.4Q113.0 115.6 112.8 115.8Q112.6 116.0 112.4 116.3L112.4 116.3L111.4 115.9Q111.7 115.3 112.1 115.0Q112.5 114.6 113.1 114.5Q113.6 114.4 114.1 114.4L114.1 114.4Q114.4 114.4 114.8 114.4Q115.2 114.5 115.6 114.8Q116.0 115.0 116.3 115.5Q116.5 115.9 116.5 116.7L116.5 116.7L116.5 121L115.5 121L115.5 120.1L115.4 120.1Q115.3 120.3 115.1 120.6Q114.8 120.8 114.4 121.0Q114.0 121.2 113.5 121.2ZM113.7 120.2L113.7 120.2Q114.2 120.2 114.7 120.0Q115.1 119.8 115.3 119.4Q115.5 119.0 115.5 118.6L115.5 118.6L115.5 117.7Q115.4 117.8 115.2 117.9Q115.0 117.9 114.7 118.0Q114.4 118.0 114.2 118.0Q113.9 118.1 113.7 118.1L113.7 118.1Q113.4 118.1 113.0 118.3Q112.7 118.4 112.5 118.6Q112.3 118.8 112.3 119.2L112.3 119.2Q112.3 119.5 112.5 119.8Q112.7 120.0 113.0 120.1Q113.3 120.2 113.7 120.2ZM121.5 121.1L121.5 121.1Q120.7 121.1 120.0 120.7Q119.3 120.3 118.9 119.5Q118.6 118.8 118.6 117.8L118.6 117.8Q118.6 116.7 118.9 116.0Q119.3 115.2 120.0 114.8Q120.7 114.4 121.5 114.4L121.5 114.4Q122.0 114.4 122.4 114.5Q122.9 114.6 123.2 114.8Q123.6 115.1 123.8 115.4Q124.1 115.8 124.2 116.2L124.2 116.2L123.2 116.5Q123.1 116.2 123.0 116.0Q122.8 115.8 122.6 115.6Q122.4 115.5 122.1 115.4Q121.9 115.3 121.5 115.3L121.5 115.3Q120.9 115.3 120.5 115.7Q120.0 116.0 119.8 116.6Q119.6 117.1 119.6 117.8L119.6 117.8Q119.6 118.4 119.8 119.0Q120.0 119.5 120.5 119.9Q120.9 120.2 121.5 120.2L121.5 120.2Q121.9 120.2 122.2 120.1Q122.4 120.0 122.6 119.9Q122.9 119.7 123.0 119.5Q123.1 119.3 123.2 119.0L123.2 119.0L124.2 119.3Q124.1 119.7 123.8 120.1Q123.6 120.4 123.2 120.6Q122.9 120.9 122.5 121.0Q122.0 121.1 121.5 121.1ZM127.5 114.4L128.8 114.4L128.8 115.4L127.5 115.4L127.5 119.3Q127.5 119.7 127.6 119.9Q127.8 120.1 128.2 120.1L128.2 120.1Q128.3 120.1 128.5 120.1Q128.7 120.1 128.8 120.1L128.8 120.1L129.0 121.0Q128.8 121.0 128.6 121.1Q128.4 121.1 128.2 121.1L128.2 121.1Q127.4 121.1 126.9 120.6Q126.4 120.2 126.4 119.4L126.4 119.4L126.4 115.4L125.4 115.4L125.4 114.4L126.4 114.4L126.4 112.9L127.5 112.9L127.5 114.4Z "/></g><defs><clipPath id="satori_bc-id-2-7" clip-path="url(#satori_cp-id)"><path x="159" y="101" width="116" height="31" d="M174.5,101 h85 a15.5,15.5 0 0 1 15.5,15.5 v0 a15.5,15.5 0 0 1 -15.5,15.5 h-85 a15.5,15.5 0 0 1 -15.5,-15.5 v0 a15.5,15.5 0 0 1 15.5,-15.5"/></clipPath></defs><mask id="satori_om-id-2-7"><rect x="160" y="102" width="114" height="29" fill="#fff" mask="url(#satori_om-id)"/><path width="116" height="31" fill="none" stroke="#000" stroke-width="2" d="M163.54,105.53999999999999 A15.5,15.5 0 0 1 174.5,101 h85 a15.5,15.5 0 0 1 15.5,15.5 v0 a15.5,15.5 0 0 1 -15.5,15.5 h-85 a15.5,15.5 0 0 1 -15.5,-15.5 v0 A15.5,15.5 0 0 1 163.54,105.53999999999999"/></mask><path x="159" y="101" width="116" height="31" fill="rgba(255,255,255,0.04)" d="M174.5,101 h85 a15.5,15.5 0 0 1 15.5,15.5 v0 a15.5,15.5 0 0 1 -15.5,15.5 h-85 a15.5,15.5 0 0 1 -15.5,-15.5 v0 a15.5,15.5 0 0 1 15.5,-15.5" clip-path="url(#satori_cp-id)" mask="url(#satori_om-id)"/><path width="116" height="31" clip-path="url(#satori_bc-id-2-7)" fill="none" stroke="rgba(255,255,255,0.08)" stroke-width="2" d="M163.54,105.53999999999999 A15.5,15.5 0 0 1 174.5,101 h85 a15.5,15.5 0 0 1 15.5,15.5 v0 a15.5,15.5 0 0 1 -15.5,15.5 h-85 a15.5,15.5 0 0 1 -15.5,-15.5 v0 A15.5,15.5 0 0 1 163.54,105.53999999999999"/><g mask="url(#satori_om-id)" clip-path="url(#satori_cp-id)"><path fill="rgba(255,255,255,0.65)" d="M180.2 121L179.1 121L179.1 112.3L182.0 112.3Q183.1 112.3 183.7 112.6Q184.4 113.0 184.7 113.6Q185.0 114.2 185.0 115.0Q185.0 115.7 184.7 116.3Q184.4 116.9 183.7 117.3L183.7 117.3Q183.6 117.4 183.4 117.4L183.4 117.4L185.4 121L184.1 121L182.3 117.6Q182.2 117.6 182.0 117.6L182.0 117.6L180.2 117.6L180.2 121ZM180.2 113.2L180.2 116.6L182.0 116.6Q182.7 116.6 183.1 116.4Q183.5 116.2 183.7 115.8Q183.9 115.5 183.9 115.0L183.9 115.0Q183.9 114.4 183.7 114.1Q183.5 113.7 183.1 113.5Q182.7 113.2 182.0 113.2L182.0 113.2L180.2 113.2ZM189.9 121.1L189.9 121.1Q189.0 121.1 188.3 120.7Q187.6 120.3 187.2 119.5Q186.8 118.8 186.8 117.8Q186.8 116.8 187.2 116.0Q187.6 115.2 188.2 114.8Q188.9 114.4 189.8 114.4L189.8 114.4Q190.3 114.4 190.8 114.5Q191.3 114.7 191.7 115.1Q192.1 115.5 192.4 116.1Q192.6 116.7 192.6 117.6L192.6 117.6L192.6 118.1L187.9 118.1Q187.9 118.7 188.2 119.2L188.2 119.2Q188.4 119.7 188.9 119.9Q189.3 120.2 189.9 120.2L189.9 120.2Q190.3 120.2 190.6 120.1Q190.9 120.0 191.2 119.8Q191.4 119.5 191.5 119.2L191.5 119.2L192.5 119.5Q192.4 120.0 192.0 120.3Q191.6 120.7 191.1 120.9Q190.6 121.1 189.9 121.1ZM187.9 117.2L187.9 117.2L191.6 117.2Q191.5 116.7 191.4 116.4L191.4 116.4Q191.2 115.9 190.8 115.6Q190.4 115.3 189.8 115.3Q189.2 115.3 188.8 115.6Q188.3 115.9 188.1 116.3L188.1 116.3Q187.9 116.7 187.9 117.2ZM196.5 121.2L196.5 121.2Q195.9 121.2 195.4 120.9Q194.8 120.7 194.5 120.2Q194.2 119.8 194.2 119.1L194.2 119.1Q194.2 118.6 194.5 118.2Q194.7 117.9 195.1 117.7Q195.4 117.5 195.9 117.4Q196.3 117.3 196.8 117.2L196.8 117.2Q197.4 117.1 197.8 117.1Q198.1 117.1 198.3 117.0Q198.5 116.9 198.5 116.6L198.5 116.6L198.5 116.6Q198.5 116.2 198.3 115.9Q198.2 115.6 197.9 115.4Q197.6 115.3 197.1 115.3L197.1 115.3Q196.6 115.3 196.3 115.4Q196.0 115.6 195.8 115.8Q195.6 116.0 195.4 116.3L195.4 116.3L194.4 115.9Q194.7 115.3 195.1 115.0Q195.5 114.6 196.1 114.5Q196.6 114.4 197.1 114.4L197.1 114.4Q197.4 114.4 197.8 114.4Q198.2 114.5 198.6 114.8Q199.0 115.0 199.3 115.5Q199.5 115.9 199.5 116.7L199.5 116.7L199.5 121L198.5 121L198.5 120.1L198.4 120.1Q198.3 120.3 198.1 120.6Q197.8 120.8 197.4 121.0Q197.0 121.2 196.5 121.2ZM196.7 120.2L196.7 120.2Q197.2 120.2 197.7 120.0Q198.1 119.8 198.3 119.4Q198.5 119.0 198.5 118.6L198.5 118.6L198.5 117.7Q198.4 117.8 198.2 117.9Q198.0 117.9 197.7 118.0Q197.4 118.0 197.2 118.0Q196.9 118.1 196.7 118.1L196.7 118.1Q196.4 118.1 196.0 118.3Q195.7 118.4 195.5 118.6Q195.3 118.8 195.3 119.2L195.3 119.2Q195.3 119.5 195.5 119.8Q195.7 120.0 196.0 120.1Q196.3 120.2 196.7 120.2ZM204.5 121.1L204.5 121.1Q203.7 121.1 203.0 120.7Q202.3 120.3 201.9 119.5Q201.6 118.8 201.6 117.8L201.6 117.8Q201.6 116.7 201.9 116.0Q202.3 115.2 203.0 114.8Q203.7 114.4 204.5 114.4L204.5 114.4Q205.0 114.4 205.4 114.5Q205.9 114.6 206.2 114.8Q206.6 115.1 206.8 115.4Q207.1 115.8 207.2 116.2L207.2 116.2L206.2 116.5Q206.1 116.2 206.0 116.0Q205.8 115.8 205.6 115.6Q205.4 115.5 205.1 115.4Q204.9 115.3 204.5 115.3L204.5 115.3Q203.9 115.3 203.5 115.7Q203.0 116.0 202.8 116.6Q202.6 117.1 202.6 117.8L202.6 117.8Q202.6 118.4 202.8 119.0Q203.0 119.5 203.5 119.9Q203.9 120.2 204.5 120.2L204.5 120.2Q204.9 120.2 205.2 120.1Q205.4 120.0 205.6 119.9Q205.9 119.7 206.0 119.5Q206.1 119.3 206.2 119.0L206.2 119.0L207.2 119.3Q207.1 119.7 206.8 120.1Q206.6 120.4 206.2 120.6Q205.9 120.9 205.5 121.0Q205.0 121.1 204.5 121.1ZM210.5 114.4L211.8 114.4L211.8 115.4L210.5 115.4L210.5 119.3Q210.5 119.7 210.6 119.9Q210.8 120.1 211.2 120.1L211.2 120.1Q211.3 120.1 211.5 120.1Q211.7 120.1 211.8 120.1L211.8 120.1L212.0 121.0Q211.8 121.0 211.6 121.1Q211.4 121.1 211.2 121.1L211.2 121.1Q210.4 121.1 209.9 120.6Q209.4 120.2 209.4 119.4L209.4 119.4L209.4 115.4L208.4 115.4L208.4 114.4L209.4 114.4L209.4 112.9L210.5 112.9L210.5 114.4Z M218.8 121L217.7 121L217.7 112.3L219.0 112.3L222.5 117.9Q222.7 118.1 222.9 118.4Q223.1 118.8 223.3 119.2L223.3 119.2Q223.4 119.4 223.6 119.7L223.6 119.7Q223.5 119.4 223.5 119.1L223.5 119.1Q223.5 118.7 223.5 118.3Q223.5 117.9 223.5 117.6L223.5 117.6L223.5 112.3L224.6 112.3L224.6 121L223.3 121L220.1 116.0Q219.9 115.7 219.7 115.3Q219.5 115.0 219.2 114.4L219.2 114.4Q219.0 114.1 218.7 113.6L218.7 113.6Q218.7 114.0 218.7 114.4L218.7 114.4Q218.8 115.0 218.8 115.4Q218.8 115.8 218.8 116.0L218.8 116.0L218.8 121ZM228.9 121.2L228.9 121.2Q228.3 121.2 227.8 120.9Q227.3 120.7 227.0 120.2Q226.7 119.8 226.7 119.1L226.7 119.1Q226.7 118.6 226.9 118.2Q227.1 117.9 227.5 117.7Q227.9 117.5 228.3 117.4Q228.8 117.3 229.2 117.2L229.2 117.2Q229.8 117.1 230.2 117.1Q230.6 117.1 230.7 117.0Q230.9 116.9 230.9 116.6L230.9 116.6L230.9 116.6Q230.9 116.2 230.8 115.9Q230.6 115.6 230.3 115.4Q230.0 115.3 229.5 115.3L229.5 115.3Q229.1 115.3 228.7 115.4Q228.4 115.6 228.2 115.8Q228.0 116.0 227.9 116.3L227.9 116.3L226.9 115.9Q227.1 115.3 227.5 115.0Q228.0 114.6 228.5 114.5Q229.0 114.4 229.5 114.4L229.5 114.4Q229.8 114.4 230.3 114.4Q230.7 114.5 231.1 114.8Q231.5 115.0 231.7 115.5Q232.0 115.9 232.0 116.7L232.0 116.7L232.0 121L230.9 121L230.9 120.1L230.9 120.1Q230.7 120.3 230.5 120.6Q230.3 120.8 229.9 121.0Q229.5 121.2 228.9 121.2ZM229.1 120.2L229.1 120.2Q229.7 120.2 230.1 120.0Q230.5 119.8 230.7 119.4Q230.9 119.0 230.9 118.6L230.9 118.6L230.9 117.7Q230.8 117.8 230.6 117.9Q230.4 117.9 230.1 118.0Q229.9 118.0 229.6 118.0Q229.3 118.1 229.2 118.1L229.2 118.1Q228.8 118.1 228.5 118.3Q228.1 118.4 227.9 118.6Q227.7 118.8 227.7 119.2L227.7 119.2Q227.7 119.5 227.9 119.8Q228.1 120.0 228.4 120.1Q228.7 120.2 229.1 120.2ZM235.5 114.4L236.9 114.4L236.9 115.4L235.5 115.4L235.5 119.3Q235.5 119.7 235.7 119.9Q235.9 120.1 236.3 120.1L236.3 120.1Q236.4 120.1 236.6 120.1Q236.7 120.1 236.9 120.1L236.9 120.1L237.1 121.0Q236.9 121.0 236.7 121.1Q236.5 121.1 236.3 121.1L236.3 121.1Q235.4 121.1 235.0 120.6Q234.5 120.2 234.5 119.4L234.5 119.4L234.5 115.4L233.5 115.4L233.5 114.4L234.5 114.4L234.5 112.9L235.5 112.9L235.5 114.4ZM239.8 121L238.7 121L238.7 114.4L239.8 114.4L239.8 121ZM239.3 113.4L239.3 113.4Q239.0 113.4 238.8 113.2Q238.5 113.0 238.5 112.7L238.5 112.7Q238.5 112.4 238.8 112.2Q239.0 112.0 239.3 112.0L239.3 112.0Q239.6 112.0 239.8 112.2Q240.0 112.4 240.0 112.7L240.0 112.7Q240.0 113.0 239.8 113.2Q239.6 113.4 239.3 113.4ZM245.2 121L244.0 121L241.5 114.4L242.7 114.4L244.1 118.3Q244.3 118.9 244.5 119.5L244.5 119.5Q244.5 119.8 244.6 120.0L244.6 120.0Q244.7 119.8 244.7 119.5L244.7 119.5Q244.9 118.9 245.1 118.3L245.1 118.3L246.5 114.4L247.7 114.4L245.2 121ZM252.1 121.1L252.1 121.1Q251.2 121.1 250.5 120.7Q249.8 120.3 249.5 119.5Q249.1 118.8 249.1 117.8Q249.1 116.8 249.4 116.0Q249.8 115.2 250.5 114.8Q251.1 114.4 252.0 114.4L252.0 114.4Q252.5 114.4 253.1 114.5Q253.6 114.7 254.0 115.1Q254.4 115.5 254.6 116.1Q254.9 116.7 254.9 117.6L254.9 117.6L254.9 118.1L250.1 118.1Q250.2 118.7 250.4 119.2L250.4 119.2Q250.6 119.7 251.1 119.9Q251.6 120.2 252.2 120.2L252.2 120.2Q252.5 120.2 252.9 120.1Q253.2 120.0 253.4 119.8Q253.6 119.5 253.8 119.2L253.8 119.2L254.8 119.5Q254.6 120.0 254.3 120.3Q253.9 120.7 253.4 120.9Q252.8 121.1 252.1 121.1ZM250.2 117.2L250.2 117.2L253.8 117.2Q253.8 116.7 253.6 116.4L253.6 116.4Q253.4 115.9 253.0 115.6Q252.6 115.3 252.0 115.3Q251.4 115.3 251.0 115.6Q250.6 115.9 250.4 116.3L250.4 116.3Q250.2 116.7 250.2 117.2Z "/></g><defs><clipPath id="satori_bc-id-2-8" clip-path="url(#satori_cp-id)"><path x="285" y="101" width="78" height="31" d="M300.5,101 h47 a15.5,15.5 0 0 1 15.5,15.5 v0 a15.5,15.5 0 0 1 -15.5,15.5 h-47 a15.5,15.5 0 0 1 -15.5,-15.5 v0 a15.5,15.5 0 0 1 15.5,-15.5"/></clipPath></defs><mask id="satori_om-id-2-8"><rect x="286" y="102" width="76" height="29" fill="#fff" mask="url(#satori_om-id)"/><path width="78" height="31" fill="none" stroke="#000" stroke-width="2" d="M289.54,105.53999999999999 A15.5,15.5 0 0 1 300.5,101 h47 a15.5,15.5 0 0 1 15.5,15.5 v0 a15.5,15.5 0 0 1 -15.5,15.5 h-47 a15.5,15.5 0 0 1 -15.5,-15.5 v0 A15.5,15.5 0 0 1 289.54,105.53999999999999"/></mask><path x="285" y="101" width="78" height="31" fill="rgba(255,255,255,0.04)" d="M300.5,101 h47 a15.5,15.5 0 0 1 15.5,15.5 v0 a15.5,15.5 0 0 1 -15.5,15.5 h-47 a15.5,15.5 0 0 1 -15.5,-15.5 v0 a15.5,15.5 0 0 1 15.5,-15.5" clip-path="url(#satori_cp-id)" mask="url(#satori_om-id)"/><path width="78" height="31" clip-path="url(#satori_bc-id-2-8)" fill="none" stroke="rgba(255,255,255,0.08)" stroke-width="2" d="M289.54,105.53999999999999 A15.5,15.5 0 0 1 300.5,101 h47 a15.5,15.5 0 0 1 15.5,15.5 v0 a15.5,15.5 0 0 1 -15.5,15.5 h-47 a15.5,15.5 0 0 1 -15.5,-15.5 v0 A15.5,15.5 0 0 1 289.54,105.53999999999999"/><g mask="url(#satori_om-id)" clip-path="url(#satori_cp-id)"><path fill="rgba(255,255,255,0.65)" d="M306.2 121L305.1 121L305.1 112.3L310.3 112.3L310.3 113.3L306.2 113.3L306.2 116.2L309.9 116.2L309.9 117.2L306.2 117.2L306.2 121ZM312.5 112.3L313.6 112.3L313.6 121L312.5 121L312.5 112.3ZM318.1 121.1L318.1 121.1Q317.5 121.1 317.0 120.8Q316.5 120.5 316.2 120.0Q315.9 119.4 315.9 118.6L315.9 118.6L315.9 114.4L317.0 114.4L317.0 118.5Q317.0 119.3 317.4 119.7Q317.8 120.1 318.5 120.1L318.5 120.1Q318.9 120.1 319.3 119.9Q319.7 119.7 319.9 119.3Q320.1 118.9 320.1 118.4L320.1 118.4L320.1 114.4L321.2 114.4L321.2 121L320.1 121L320.1 119.8Q319.9 120.4 319.4 120.7L319.4 120.7Q318.9 121.1 318.1 121.1ZM324.7 114.4L326.1 114.4L326.1 115.4L324.7 115.4L324.7 119.3Q324.7 119.7 324.9 119.9Q325.1 120.1 325.5 120.1L325.5 120.1Q325.6 120.1 325.8 120.1Q325.9 120.1 326.1 120.1L326.1 120.1L326.3 121.0Q326.1 121.0 325.9 121.1Q325.7 121.1 325.5 121.1L325.5 121.1Q324.6 121.1 324.2 120.6Q323.7 120.2 323.7 119.4L323.7 119.4L323.7 115.4L322.7 115.4L322.7 114.4L323.7 114.4L323.7 112.9L324.7 112.9L324.7 114.4ZM329.2 114.4L330.5 114.4L330.5 115.4L329.2 115.4L329.2 119.3Q329.2 119.7 329.3 119.9Q329.5 120.1 329.9 120.1L329.9 120.1Q330.0 120.1 330.2 120.1Q330.4 120.1 330.5 120.1L330.5 120.1L330.7 121.0Q330.5 121.0 330.3 121.1Q330.1 121.1 329.9 121.1L329.9 121.1Q329.1 121.1 328.6 120.6Q328.1 120.2 328.1 119.4L328.1 119.4L328.1 115.4L327.1 115.4L327.1 114.4L328.1 114.4L328.1 112.9L329.2 112.9L329.2 114.4ZM335.1 121.1L335.1 121.1Q334.2 121.1 333.5 120.7Q332.8 120.3 332.4 119.5Q332.0 118.8 332.0 117.8Q332.0 116.8 332.4 116.0Q332.8 115.2 333.4 114.8Q334.1 114.4 335.0 114.4L335.0 114.4Q335.5 114.4 336.0 114.5Q336.5 114.7 336.9 115.1Q337.4 115.5 337.6 116.1Q337.8 116.7 337.8 117.6L337.8 117.6L337.8 118.1L333.1 118.1Q333.1 118.7 333.4 119.2L333.4 119.2Q333.6 119.7 334.1 119.9Q334.5 120.2 335.1 120.2L335.1 120.2Q335.5 120.2 335.8 120.1Q336.1 120.0 336.4 119.8Q336.6 119.5 336.7 119.2L336.7 119.2L337.7 119.5Q337.6 120.0 337.2 120.3Q336.9 120.7 336.3 120.9Q335.8 121.1 335.1 121.1ZM333.1 117.2L333.1 117.2L336.8 117.2Q336.7 116.7 336.6 116.4L336.6 116.4Q336.4 115.9 336.0 115.6Q335.6 115.3 335.0 115.3Q334.4 115.3 334.0 115.6Q333.6 115.9 333.3 116.3L333.3 116.3Q333.1 116.7 333.1 117.2ZM340.9 121L339.9 121L339.9 114.4L340.9 114.4L340.9 115.5L340.9 115.5Q341.1 115.0 341.6 114.7Q342.1 114.4 342.6 114.4L342.6 114.4Q342.8 114.4 342.9 114.4Q343.1 114.4 343.2 114.4L343.2 114.4L343.2 115.4Q343.1 115.4 342.9 115.4Q342.8 115.4 342.5 115.4L342.5 115.4Q342.1 115.4 341.7 115.6Q341.3 115.8 341.1 116.1Q340.9 116.5 340.9 116.9L340.9 116.9L340.9 121Z "/></g><defs><clipPath id="satori_bc-id-2-9" clip-path="url(#satori_cp-id)"><path x="373" y="101" width="64" height="31" d="M388.5,101 h33 a15.5,15.5 0 0 1 15.5,15.5 v0 a15.5,15.5 0 0 1 -15.5,15.5 h-33 a15.5,15.5 0 0 1 -15.5,-15.5 v0 a15.5,15.5 0 0 1 15.5,-15.5"/></clipPath></defs><mask id="satori_om-id-2-9"><rect x="374" y="102" width="62" height="29" fill="#fff" mask="url(#satori_om-id)"/><path width="64" height="31" fill="none" stroke="#000" stroke-width="2" d="M377.54,105.53999999999999 A15.5,15.5 0 0 1 388.5,101 h33 a15.5,15.5 0 0 1 15.5,15.5 v0 a15.5,15.5 0 0 1 -15.5,15.5 h-33 a15.5,15.5 0 0 1 -15.5,-15.5 v0 A15.5,15.5 0 0 1 377.54,105.53999999999999"/></mask><path x="373" y="101" width="64" height="31" fill="rgba(255,255,255,0.04)" d="M388.5,101 h33 a15.5,15.5 0 0 1 15.5,15.5 v0 a15.5,15.5 0 0 1 -15.5,15.5 h-33 a15.5,15.5 0 0 1 -15.5,-15.5 v0 a15.5,15.5 0 0 1 15.5,-15.5" clip-path="url(#satori_cp-id)" mask="url(#satori_om-id)"/><path width="64" height="31" clip-path="url(#satori_bc-id-2-9)" fill="none" stroke="rgba(255,255,255,0.08)" stroke-width="2" d="M377.54,105.53999999999999 A15.5,15.5 0 0 1 388.5,101 h33 a15.5,15.5 0 0 1 15.5,15.5 v0 a15.5,15.5 0 0 1 -15.5,15.5 h-33 a15.5,15.5 0 0 1 -15.5,-15.5 v0 A15.5,15.5 0 0 1 377.54,105.53999999999999"/><g mask="url(#satori_om-id)" clip-path="url(#satori_cp-id)"><path fill="rgba(255,255,255,0.65)" d="M394.2 121L393.1 121L393.1 112.3L396.0 112.3Q397.1 112.3 397.7 112.6Q398.4 113.0 398.7 113.6Q399.0 114.3 399.0 115.0Q399.0 115.8 398.7 116.5Q398.4 117.1 397.7 117.5Q397.1 117.8 396.0 117.8L396.0 117.8L394.2 117.8L394.2 121ZM394.2 113.2L394.2 116.9L396.0 116.9Q396.7 116.9 397.1 116.6Q397.5 116.4 397.7 116.0Q397.9 115.6 397.9 115.0Q397.9 114.5 397.7 114.1Q397.5 113.7 397.1 113.5Q396.7 113.2 396.0 113.2L396.0 113.2L394.2 113.2ZM402.3 121L401.2 121L401.2 112.3L402.3 112.3L402.3 116.0L406.9 116.0L406.9 112.3L408.0 112.3L408.0 121L406.9 121L406.9 117.0L402.3 117.0L402.3 121ZM411.8 121L410.6 121L410.6 112.3L413.6 112.3Q414.6 112.3 415.3 112.6Q416.0 113.0 416.3 113.6Q416.6 114.3 416.6 115.0Q416.6 115.8 416.3 116.5Q416.0 117.1 415.3 117.5Q414.7 117.8 413.6 117.8L413.6 117.8L411.8 117.8L411.8 121ZM411.8 113.2L411.8 116.9L413.6 116.9Q414.3 116.9 414.7 116.6Q415.1 116.4 415.3 116.0Q415.5 115.6 415.5 115.0Q415.5 114.5 415.3 114.1Q415.1 113.7 414.7 113.5Q414.3 113.2 413.6 113.2L413.6 113.2L411.8 113.2Z "/></g><defs><clipPath id="satori_bc-id-2-10" clip-path="url(#satori_cp-id)"><path x="447" y="101" width="83" height="31" d="M462.5,101 h52 a15.5,15.5 0 0 1 15.5,15.5 v0 a15.5,15.5 0 0 1 -15.5,15.5 h-52 a15.5,15.5 0 0 1 -15.5,-15.5 v0 a15.5,15.5 0 0 1 15.5,-15.5"/></clipPath></defs><mask id="satori_om-id-2-10"><rect x="448" y="102" width="81" height="29" fill="#fff" mask="url(#satori_om-id)"/><path width="83" height="31" fill="none" stroke="#000" stroke-width="2" d="M451.54,105.53999999999999 A15.5,15.5 0 0 1 462.5,101 h52 a15.5,15.5 0 0 1 15.5,15.5 v0 a15.5,15.5 0 0 1 -15.5,15.5 h-52 a15.5,15.5 0 0 1 -15.5,-15.5 v0 A15.5,15.5 0 0 1 451.54,105.53999999999999"/></mask><path x="447" y="101" width="83" height="31" fill="rgba(255,255,255,0.04)" d="M462.5,101 h52 a15.5,15.5 0 0 1 15.5,15.5 v0 a15.5,15.5 0 0 1 -15.5,15.5 h-52 a15.5,15.5 0 0 1 -15.5,-15.5 v0 a15.5,15.5 0 0 1 15.5,-15.5" clip-path="url(#satori_cp-id)" mask="url(#satori_om-id)"/><path width="83" height="31" clip-path="url(#satori_bc-id-2-10)" fill="none" stroke="rgba(255,255,255,0.08)" stroke-width="2" d="M451.54,105.53999999999999 A15.5,15.5 0 0 1 462.5,101 h52 a15.5,15.5 0 0 1 15.5,15.5 v0 a15.5,15.5 0 0 1 -15.5,15.5 h-52 a15.5,15.5 0 0 1 -15.5,-15.5 v0 A15.5,15.5 0 0 1 451.54,105.53999999999999"/><g mask="url(#satori_om-id)" clip-path="url(#satori_cp-id)"><path fill="rgba(255,255,255,0.65)" d="M472.2 121L467.1 121L467.1 112.3L468.2 112.3L468.2 120.0L472.2 120.0L472.2 121ZM476.0 121.2L476.0 121.2Q475.4 121.2 474.9 120.9Q474.4 120.7 474.1 120.2Q473.8 119.8 473.8 119.1L473.8 119.1Q473.8 118.6 474.0 118.2Q474.3 117.9 474.6 117.7Q475.0 117.5 475.5 117.4Q475.9 117.3 476.4 117.2L476.4 117.2Q476.9 117.1 477.3 117.1Q477.7 117.1 477.9 117.0Q478.0 116.9 478.0 116.6L478.0 116.6L478.0 116.6Q478.0 116.2 477.9 115.9Q477.7 115.6 477.4 115.4Q477.1 115.3 476.7 115.3L476.7 115.3Q476.2 115.3 475.9 115.4Q475.5 115.6 475.3 115.8Q475.1 116.0 475.0 116.3L475.0 116.3L474 115.9Q474.3 115.3 474.7 115.0Q475.1 114.6 475.6 114.5Q476.1 114.4 476.6 114.4L476.6 114.4Q477.0 114.4 477.4 114.4Q477.8 114.5 478.2 114.8Q478.6 115.0 478.8 115.5Q479.1 115.9 479.1 116.7L479.1 116.7L479.1 121L478.1 121L478.1 120.1L478.0 120.1Q477.9 120.3 477.6 120.6Q477.4 120.8 477.0 121.0Q476.6 121.2 476.0 121.2ZM476.2 120.2L476.2 120.2Q476.8 120.2 477.2 120.0Q477.6 119.8 477.8 119.4Q478.0 119.0 478.0 118.6L478.0 118.6L478.0 117.7Q478.0 117.8 477.8 117.9Q477.5 117.9 477.3 118.0Q477.0 118.0 476.7 118.0Q476.5 118.1 476.3 118.1L476.3 118.1Q475.9 118.1 475.6 118.3Q475.3 118.4 475.1 118.6Q474.9 118.8 474.9 119.2L474.9 119.2Q474.9 119.5 475.0 119.8Q475.2 120.0 475.5 120.1Q475.8 120.2 476.2 120.2ZM482.5 121L481.4 121L481.4 114.4L482.5 114.4L482.5 115.5L482.5 115.5Q482.7 115.0 483.2 114.7Q483.7 114.4 484.2 114.4L484.2 114.4Q484.4 114.4 484.5 114.4Q484.7 114.4 484.8 114.4L484.8 114.4L484.8 115.4Q484.7 115.4 484.5 115.4Q484.3 115.4 484.1 115.4L484.1 115.4Q483.7 115.4 483.3 115.6Q482.9 115.8 482.7 116.1Q482.5 116.5 482.5 116.9L482.5 116.9L482.5 121ZM488.3 121.2L488.3 121.2Q487.7 121.2 487.2 120.9Q486.7 120.7 486.4 120.2Q486.1 119.8 486.1 119.1L486.1 119.1Q486.1 118.6 486.3 118.2Q486.5 117.9 486.9 117.7Q487.3 117.5 487.7 117.4Q488.2 117.3 488.6 117.2L488.6 117.2Q489.2 117.1 489.6 117.1Q489.9 117.1 490.1 117.0Q490.3 116.9 490.3 116.6L490.3 116.6L490.3 116.6Q490.3 116.2 490.1 115.9Q490.0 115.6 489.7 115.4Q489.4 115.3 488.9 115.3L488.9 115.3Q488.5 115.3 488.1 115.4Q487.8 115.6 487.6 115.8Q487.4 116.0 487.3 116.3L487.3 116.3L486.3 115.9Q486.5 115.3 486.9 115.0Q487.4 114.6 487.9 114.5Q488.4 114.4 488.9 114.4L488.9 114.4Q489.2 114.4 489.6 114.4Q490.1 114.5 490.5 114.8Q490.8 115.0 491.1 115.5Q491.4 115.9 491.4 116.7L491.4 116.7L491.4 121L490.3 121L490.3 120.1L490.2 120.1Q490.1 120.3 489.9 120.6Q489.6 120.8 489.3 121.0Q488.9 121.2 488.3 121.2ZM488.5 120.2L488.5 120.2Q489.1 120.2 489.5 120.0Q489.9 119.8 490.1 119.4Q490.3 119.0 490.3 118.6L490.3 118.6L490.3 117.7Q490.2 117.8 490.0 117.9Q489.8 117.9 489.5 118.0Q489.2 118.0 489.0 118.0Q488.7 118.1 488.6 118.1L488.6 118.1Q488.2 118.1 487.9 118.3Q487.5 118.4 487.3 118.6Q487.1 118.8 487.1 119.2L487.1 119.2Q487.1 119.5 487.3 119.8Q487.5 120.0 487.8 120.1Q488.1 120.2 488.5 120.2ZM496.7 121L495.6 121L493.1 114.4L494.3 114.4L495.6 118.3Q495.9 118.9 496.0 119.5L496.0 119.5Q496.1 119.8 496.2 120.0L496.2 120.0Q496.2 119.8 496.3 119.5L496.3 119.5Q496.4 118.9 496.7 118.3L496.7 118.3L498.1 114.4L499.2 114.4L496.7 121ZM503.7 121.1L503.7 121.1Q502.8 121.1 502.1 120.7Q501.4 120.3 501.0 119.5Q500.6 118.8 500.6 117.8Q500.6 116.8 501.0 116.0Q501.4 115.2 502.0 114.8Q502.7 114.4 503.6 114.4L503.6 114.4Q504.1 114.4 504.6 114.5Q505.1 114.7 505.5 115.1Q505.9 115.5 506.2 116.1Q506.4 116.7 506.4 117.6L506.4 117.6L506.4 118.1L501.7 118.1Q501.7 118.7 502.0 119.2L502.0 119.2Q502.2 119.7 502.7 119.9Q503.1 120.2 503.7 120.2L503.7 120.2Q504.1 120.2 504.4 120.1Q504.7 120.0 505.0 119.8Q505.2 119.5 505.3 119.2L505.3 119.2L506.3 119.5Q506.2 120.0 505.8 120.3Q505.4 120.7 504.9 120.9Q504.4 121.1 503.7 121.1ZM501.7 117.2L501.7 117.2L505.4 117.2Q505.3 116.7 505.2 116.4L505.2 116.4Q505.0 115.9 504.6 115.6Q504.2 115.3 503.6 115.3Q503.0 115.3 502.6 115.6Q502.1 115.9 501.9 116.3L501.9 116.3Q501.7 116.7 501.7 117.2ZM508.4 112.3L509.5 112.3L509.5 121L508.4 121L508.4 112.3Z "/></g><defs><clipPath id="satori_bc-id-2-11" clip-path="url(#satori_cp-id)"><path x="540" y="101" width="90" height="31" d="M555.5,101 h59 a15.5,15.5 0 0 1 15.5,15.5 v0 a15.5,15.5 0 0 1 -15.5,15.5 h-59 a15.5,15.5 0 0 1 -15.5,-15.5 v0 a15.5,15.5 0 0 1 15.5,-15.5"/></clipPath></defs><mask id="satori_om-id-2-11"><rect x="541" y="102" width="88" height="29" fill="#fff" mask="url(#satori_om-id)"/><path width="90" height="31" fill="none" stroke="#000" stroke-width="2" d="M544.54,105.53999999999999 A15.5,15.5 0 0 1 555.5,101 h59 a15.5,15.5 0 0 1 15.5,15.5 v0 a15.5,15.5 0 0 1 -15.5,15.5 h-59 a15.5,15.5 0 0 1 -15.5,-15.5 v0 A15.5,15.5 0 0 1 544.54,105.53999999999999"/></mask><path x="540" y="101" width="90" height="31" fill="rgba(255,255,255,0.04)" d="M555.5,101 h59 a15.5,15.5 0 0 1 15.5,15.5 v0 a15.5,15.5 0 0 1 -15.5,15.5 h-59 a15.5,15.5 0 0 1 -15.5,-15.5 v0 a15.5,15.5 0 0 1 15.5,-15.5" clip-path="url(#satori_cp-id)" mask="url(#satori_om-id)"/><path width="90" height="31" clip-path="url(#satori_bc-id-2-11)" fill="none" stroke="rgba(255,255,255,0.08)" stroke-width="2" d="M544.54,105.53999999999999 A15.5,15.5 0 0 1 555.5,101 h59 a15.5,15.5 0 0 1 15.5,15.5 v0 a15.5,15.5 0 0 1 -15.5,15.5 h-59 a15.5,15.5 0 0 1 -15.5,-15.5 v0 A15.5,15.5 0 0 1 544.54,105.53999999999999"/><g mask="url(#satori_om-id)" clip-path="url(#satori_cp-id)"><path fill="rgba(255,255,255,0.65)" d="M565.2 121L560.1 121L560.1 112.3L561.2 112.3L561.2 120.0L565.2 120.0L565.2 121ZM568.3 121L567.2 121L567.2 114.4L568.3 114.4L568.3 121ZM567.7 113.4L567.7 113.4Q567.4 113.4 567.2 113.2Q567.0 113.0 567.0 112.7L567.0 112.7Q567.0 112.4 567.2 112.2Q567.4 112.0 567.7 112.0L567.7 112.0Q568.0 112.0 568.3 112.2Q568.5 112.4 568.5 112.7L568.5 112.7Q568.5 113.0 568.3 113.2Q568.0 113.4 567.7 113.4ZM573.6 121L572.5 121L570.0 114.4L571.2 114.4L572.6 118.3Q572.8 118.9 572.9 119.5L572.9 119.5Q573.0 119.8 573.1 120.0L573.1 120.0Q573.1 119.8 573.2 119.5L573.2 119.5Q573.4 118.9 573.6 118.3L573.6 118.3L575.0 114.4L576.1 114.4L573.6 121ZM580.6 121.1L580.6 121.1Q579.7 121.1 579.0 120.7Q578.3 120.3 577.9 119.5Q577.5 118.8 577.5 117.8Q577.5 116.8 577.9 116.0Q578.3 115.2 578.9 114.8Q579.6 114.4 580.5 114.4L580.5 114.4Q581.0 114.4 581.5 114.5Q582.0 114.7 582.4 115.1Q582.9 115.5 583.1 116.1Q583.3 116.7 583.3 117.6L583.3 117.6L583.3 118.1L578.6 118.1Q578.6 118.7 578.9 119.2L578.9 119.2Q579.1 119.7 579.6 119.9Q580.0 120.2 580.6 120.2L580.6 120.2Q581.0 120.2 581.3 120.1Q581.6 120.0 581.9 119.8Q582.1 119.5 582.2 119.2L582.2 119.2L583.2 119.5Q583.1 120.0 582.7 120.3Q582.4 120.7 581.8 120.9Q581.3 121.1 580.6 121.1ZM578.6 117.2L578.6 117.2L582.3 117.2Q582.2 116.7 582.1 116.4L582.1 116.4Q581.9 115.9 581.5 115.6Q581.1 115.3 580.5 115.3Q579.9 115.3 579.5 115.6Q579.1 115.9 578.8 116.3L578.8 116.3Q578.6 116.7 578.6 117.2ZM587.9 121L586.8 121L584.8 114.4L586.0 114.4L586.8 117.3Q586.9 117.9 587.1 118.6L587.1 118.6Q587.3 119.2 587.4 119.9L587.4 119.9Q587.5 119.2 587.7 118.7L587.7 118.7Q587.8 117.9 588.0 117.3L588.0 117.3L588.8 114.4L589.9 114.4L590.7 117.3Q590.9 117.9 591.0 118.7L591.0 118.7Q591.2 119.2 591.3 119.9L591.3 119.9Q591.4 119.2 591.6 118.7L591.6 118.7Q591.8 117.9 591.9 117.3L591.9 117.3L592.7 114.4L593.8 114.4L591.9 121L590.8 121L590.0 118.0Q589.8 117.6 589.7 117.1Q589.6 116.6 589.5 116.2L589.5 116.2Q589.4 115.9 589.3 115.6L589.3 115.6Q589.3 115.9 589.2 116.1L589.2 116.1Q589.1 116.6 589.0 117.1Q588.9 117.6 588.7 118.0L588.7 118.0L587.9 121ZM596.7 121L595.7 121L595.7 114.4L596.7 114.4L596.7 121ZM596.2 113.4L596.2 113.4Q595.9 113.4 595.7 113.2Q595.5 113.0 595.5 112.7L595.5 112.7Q595.5 112.4 595.7 112.2Q595.9 112.0 596.2 112.0L596.2 112.0Q596.5 112.0 596.7 112.2Q596.9 112.4 596.9 112.7L596.9 112.7Q596.9 113.0 596.7 113.2Q596.5 113.4 596.2 113.4ZM600.1 121L599.1 121L599.1 114.4L600.1 114.4L600.1 115.5L600.2 115.5Q600.4 115.0 600.8 114.7Q601.3 114.4 601.9 114.4L601.9 114.4Q602.0 114.4 602.2 114.4Q602.3 114.4 602.4 114.4L602.4 114.4L602.4 115.4Q602.4 115.4 602.2 115.4Q602.0 115.4 601.8 115.4L601.8 115.4Q601.3 115.4 600.9 115.6Q600.6 115.8 600.3 116.1Q600.1 116.5 600.1 116.9L600.1 116.9L600.1 121ZM606.9 121.1L606.9 121.1Q605.9 121.1 605.2 120.7Q604.5 120.3 604.2 119.5Q603.8 118.8 603.8 117.8Q603.8 116.8 604.1 116.0Q604.5 115.2 605.2 114.8Q605.8 114.4 606.7 114.4L606.7 114.4Q607.3 114.4 607.8 114.5Q608.3 114.7 608.7 115.1Q609.1 115.5 609.3 116.1Q609.6 116.7 609.6 117.6L609.6 117.6L609.6 118.1L604.9 118.1Q604.9 118.7 605.1 119.2L605.1 119.2Q605.4 119.7 605.8 119.9Q606.3 120.2 606.9 120.2L606.9 120.2Q607.2 120.2 607.6 120.1Q607.9 120.0 608.1 119.8Q608.3 119.5 608.5 119.2L608.5 119.2L609.5 119.5Q609.3 120.0 609.0 120.3Q608.6 120.7 608.1 120.9Q607.5 121.1 606.9 121.1ZM604.9 117.2L604.9 117.2L608.5 117.2Q608.5 116.7 608.3 116.4L608.3 116.4Q608.1 115.9 607.7 115.6Q607.3 115.3 606.7 115.3Q606.1 115.3 605.7 115.6Q605.3 115.9 605.1 116.3L605.1 116.3Q604.9 116.7 604.9 117.2Z "/></g><defs><clipPath id="satori_bc-id-2-12" clip-path="url(#satori_cp-id)"><path x="640" y="101" width="85" height="31" d="M655.5,101 h54 a15.5,15.5 0 0 1 15.5,15.5 v0 a15.5,15.5 0 0 1 -15.5,15.5 h-54 a15.5,15.5 0 0 1 -15.5,-15.5 v0 a15.5,15.5 0 0 1 15.5,-15.5"/></clipPath></defs><mask id="satori_om-id-2-12"><rect x="641" y="102" width="83" height="29" fill="#fff" mask="url(#satori_om-id)"/><path width="85" height="31" fill="none" stroke="#000" stroke-width="2" d="M644.54,105.53999999999999 A15.5,15.5 0 0 1 655.5,101 h54 a15.5,15.5 0 0 1 15.5,15.5 v0 a15.5,15.5 0 0 1 -15.5,15.5 h-54 a15.5,15.5 0 0 1 -15.5,-15.5 v0 A15.5,15.5 0 0 1 644.54,105.53999999999999"/></mask><path x="640" y="101" width="85" height="31" fill="rgba(255,255,255,0.04)" d="M655.5,101 h54 a15.5,15.5 0 0 1 15.5,15.5 v0 a15.5,15.5 0 0 1 -15.5,15.5 h-54 a15.5,15.5 0 0 1 -15.5,-15.5 v0 a15.5,15.5 0 0 1 15.5,-15.5" clip-path="url(#satori_cp-id)" mask="url(#satori_om-id)"/><path width="85" height="31" clip-path="url(#satori_bc-id-2-12)" fill="none" stroke="rgba(255,255,255,0.08)" stroke-width="2" d="M644.54,105.53999999999999 A15.5,15.5 0 0 1 655.5,101 h54 a15.5,15.5 0 0 1 15.5,15.5 v0 a15.5,15.5 0 0 1 -15.5,15.5 h-54 a15.5,15.5 0 0 1 -15.5,-15.5 v0 A15.5,15.5 0 0 1 644.54,105.53999999999999"/><g mask="url(#satori_om-id)" clip-path="url(#satori_cp-id)"><path fill="rgba(255,255,255,0.65)" d="M661.2 121L660.1 121L660.1 112.3L661.4 112.3L664.9 117.9Q665.1 118.1 665.3 118.4Q665.5 118.8 665.7 119.2L665.7 119.2Q665.8 119.4 665.9 119.7L665.9 119.7Q665.9 119.4 665.9 119.1L665.9 119.1Q665.9 118.7 665.9 118.3Q665.9 117.9 665.9 117.6L665.9 117.6L665.9 112.3L667.0 112.3L667.0 121L665.7 121L662.5 116.0Q662.3 115.7 662.1 115.3Q661.8 115.0 661.6 114.4L661.6 114.4Q661.4 114.1 661.1 113.6L661.1 113.6Q661.1 114.0 661.1 114.4L661.1 114.4Q661.1 115.0 661.2 115.4Q661.2 115.8 661.2 116.0L661.2 116.0L661.2 121ZM672.1 121.1L672.1 121.1Q671.2 121.1 670.6 120.7Q669.9 120.3 669.5 119.5Q669.2 118.8 669.2 117.8L669.2 117.8Q669.2 116.7 669.5 116.0Q669.9 115.2 670.6 114.8Q671.2 114.4 672.1 114.4L672.1 114.4Q673.0 114.4 673.7 114.8Q674.4 115.2 674.8 116.0Q675.1 116.7 675.1 117.8L675.1 117.8Q675.1 118.8 674.8 119.5Q674.4 120.3 673.7 120.7Q673.0 121.1 672.1 121.1ZM672.1 120.2L672.1 120.2Q672.8 120.2 673.2 119.9Q673.7 119.5 673.9 119.0Q674.1 118.4 674.1 117.8L674.1 117.8Q674.1 117.1 673.9 116.6Q673.7 116.0 673.2 115.7Q672.8 115.3 672.1 115.3L672.1 115.3Q671.5 115.3 671.1 115.7Q670.6 116.0 670.4 116.6Q670.2 117.1 670.2 117.8L670.2 117.8Q670.2 118.4 670.4 119.0Q670.6 119.5 671.1 119.9Q671.5 120.2 672.1 120.2ZM679.6 121.1L679.6 121.1Q678.8 121.1 678.2 120.7Q677.5 120.3 677.2 119.5Q676.8 118.8 676.8 117.7L676.8 117.7Q676.8 116.7 677.2 115.9Q677.6 115.2 678.2 114.8Q678.8 114.4 679.6 114.4L679.6 114.4Q680.3 114.4 680.6 114.6Q681.0 114.8 681.2 115.1Q681.4 115.3 681.5 115.5L681.5 115.5L681.6 115.5L681.6 112.3L682.7 112.3L682.7 121L681.6 121L681.6 120.0L681.5 120.0Q681.4 120.2 681.2 120.4Q681 120.7 680.6 120.9Q680.2 121.1 679.6 121.1ZM679.8 120.2L679.8 120.2Q680.4 120.2 680.8 119.9Q681.2 119.6 681.4 119.0Q681.6 118.5 681.6 117.7L681.6 117.7Q681.6 117.0 681.4 116.5Q681.2 115.9 680.8 115.6Q680.4 115.3 679.8 115.3L679.8 115.3Q679.2 115.3 678.7 115.6Q678.3 116.0 678.1 116.5Q677.9 117.1 677.9 117.7L677.9 117.7Q677.9 118.4 678.1 119.0Q678.3 119.5 678.8 119.9Q679.2 120.2 679.8 120.2ZM687.8 121.1L687.8 121.1Q686.8 121.1 686.1 120.7Q685.4 120.3 685.1 119.5Q684.7 118.8 684.7 117.8Q684.7 116.8 685.1 116.0Q685.4 115.2 686.1 114.8Q686.8 114.4 687.6 114.4L687.6 114.4Q688.2 114.4 688.7 114.5Q689.2 114.7 689.6 115.1Q690.0 115.5 690.2 116.1Q690.5 116.7 690.5 117.6L690.5 117.6L690.5 118.1L685.8 118.1Q685.8 118.7 686.0 119.2L686.0 119.2Q686.3 119.7 686.7 119.9Q687.2 120.2 687.8 120.2L687.8 120.2Q688.2 120.2 688.5 120.1Q688.8 120.0 689.0 119.8Q689.2 119.5 689.4 119.2L689.4 119.2L690.4 119.5Q690.2 120.0 689.9 120.3Q689.5 120.7 689.0 120.9Q688.4 121.1 687.8 121.1ZM685.8 117.2L685.8 117.2L689.4 117.2Q689.4 116.7 689.2 116.4L689.2 116.4Q689.0 115.9 688.6 115.6Q688.2 115.3 687.6 115.3Q687.0 115.3 686.6 115.6Q686.2 115.9 686.0 116.3L686.0 116.3Q685.8 116.7 685.8 117.2ZM693.3 121.1L693.3 121.1Q693.0 121.1 692.7 120.8Q692.5 120.6 692.5 120.3L692.5 120.3Q692.5 120.0 692.7 119.7Q693.0 119.5 693.3 119.5L693.3 119.5Q693.6 119.5 693.9 119.7Q694.1 120.0 694.1 120.3L694.1 120.3Q694.1 120.6 693.9 120.8Q693.6 121.1 693.3 121.1ZM696.5 121.5L696.5 114.4L697.5 114.4L697.5 121.5Q697.5 122.1 697.3 122.5Q697.1 123.0 696.7 123.2Q696.2 123.4 695.6 123.4L695.6 123.4L695.4 123.4L695.4 122.5L695.6 122.5Q696.0 122.5 696.2 122.2Q696.5 122.0 696.5 121.5L696.5 121.5ZM697.0 113.4L697.0 113.4Q696.7 113.4 696.5 113.2Q696.3 113.0 696.3 112.7L696.3 112.7Q696.3 112.4 696.5 112.2Q696.7 112.0 697.0 112.0L697.0 112.0Q697.3 112.0 697.5 112.2Q697.7 112.4 697.7 112.7L697.7 112.7Q697.7 113.0 697.5 113.2Q697.3 113.4 697.0 113.4ZM702.1 121.1L702.1 121.1Q701.4 121.1 700.9 120.9Q700.4 120.7 700.0 120.4Q699.7 120.0 699.6 119.4L699.6 119.4L700.6 119.2Q700.7 119.7 701.1 120.0Q701.5 120.2 702.1 120.2L702.1 120.2Q702.8 120.2 703.2 119.9Q703.6 119.6 703.6 119.2L703.6 119.2Q703.6 118.9 703.3 118.7Q703.1 118.4 702.6 118.3L702.6 118.3L701.5 118.1Q700.6 117.9 700.2 117.4Q699.8 117.0 699.8 116.3L699.8 116.3Q699.8 115.7 700.1 115.3Q700.4 114.9 701.0 114.6Q701.5 114.4 702.2 114.4L702.2 114.4Q702.9 114.4 703.3 114.6Q703.8 114.8 704.1 115.1Q704.4 115.5 704.6 115.9L704.6 115.9L703.6 116.2Q703.5 115.8 703.2 115.6Q702.8 115.3 702.2 115.3L702.2 115.3Q701.6 115.3 701.2 115.5Q700.8 115.8 700.8 116.2L700.8 116.2Q700.8 116.6 701.1 116.8Q701.4 117.0 701.9 117.2L701.9 117.2L702.9 117.4Q703.8 117.6 704.3 118.0Q704.7 118.5 704.7 119.2L704.7 119.2Q704.7 119.7 704.4 120.2Q704.0 120.6 703.4 120.9Q702.9 121.1 702.1 121.1Z "/></g><defs><clipPath id="satori_bc-id-2-13" clip-path="url(#satori_cp-id)"><path x="359" y="142" width="82" height="31" d="M374.5,142 h51 a15.5,15.5 0 0 1 15.5,15.5 v0 a15.5,15.5 0 0 1 -15.5,15.5 h-51 a15.5,15.5 0 0 1 -15.5,-15.5 v0 a15.5,15.5 0 0 1 15.5,-15.5"/></clipPath></defs><mask id="satori_om-id-2-13"><rect x="360" y="143" width="80" height="29" fill="#fff" mask="url(#satori_om-id)"/><path width="82" height="31" fill="none" stroke="#000" stroke-width="2" d="M363.54,146.54 A15.5,15.5 0 0 1 374.5,142 h51 a15.5,15.5 0 0 1 15.5,15.5 v0 a15.5,15.5 0 0 1 -15.5,15.5 h-51 a15.5,15.5 0 0 1 -15.5,-15.5 v0 A15.5,15.5 0 0 1 363.54,146.54"/></mask><path x="359" y="142" width="82" height="31" fill="rgba(255,255,255,0.04)" d="M374.5,142 h51 a15.5,15.5 0 0 1 15.5,15.5 v0 a15.5,15.5 0 0 1 -15.5,15.5 h-51 a15.5,15.5 0 0 1 -15.5,-15.5 v0 a15.5,15.5 0 0 1 15.5,-15.5" clip-path="url(#satori_cp-id)" mask="url(#satori_om-id)"/><path width="82" height="31" clip-path="url(#satori_bc-id-2-13)" fill="none" stroke="rgba(255,255,255,0.08)" stroke-width="2" d="M363.54,146.54 A15.5,15.5 0 0 1 374.5,142 h51 a15.5,15.5 0 0 1 15.5,15.5 v0 a15.5,15.5 0 0 1 -15.5,15.5 h-51 a15.5,15.5 0 0 1 -15.5,-15.5 v0 A15.5,15.5 0 0 1 363.54,146.54"/><g mask="url(#satori_om-id)" clip-path="url(#satori_cp-id)"><path fill="rgba(255,255,255,0.65)" d="M380.1 162L379.1 162L379.1 153.3L380.6 153.3L382.8 158.8Q382.9 159.0 383.0 159.3Q383.1 159.6 383.2 159.9Q383.3 160.2 383.4 160.6L383.4 160.6Q383.4 160.7 383.4 160.8L383.4 160.8Q383.5 160.7 383.5 160.6L383.5 160.6Q383.6 160.3 383.7 159.9Q383.8 159.6 383.9 159.3Q384 159.0 384.1 158.8L384.1 158.8L386.2 153.3L387.8 153.3L387.8 162L386.7 162L386.7 157.0Q386.7 156.7 386.7 156.4Q386.7 156.1 386.7 155.7Q386.7 155.3 386.7 154.9L386.7 154.9Q386.7 154.7 386.7 154.5L386.7 154.5Q386.7 154.7 386.6 155.0L386.6 155.0Q386.4 155.4 386.3 155.8Q386.2 156.2 386.1 156.5Q385.9 156.8 385.9 157.0L385.9 157.0L383.9 162L382.9 162L381.0 157.0Q380.9 156.8 380.8 156.5Q380.6 156.2 380.5 155.8Q380.4 155.4 380.2 155.0L380.2 155.0Q380.2 154.7 380.1 154.5L380.1 154.5Q380.1 154.7 380.1 154.8L380.1 154.8Q380.1 155.2 380.1 155.6Q380.1 156.0 380.1 156.4Q380.1 156.7 380.1 157.0L380.1 157.0L380.1 162ZM390.2 164.4L390.2 164.4L390.4 163.5L390.5 163.5Q390.9 163.6 391.1 163.5Q391.4 163.5 391.6 163.3Q391.8 163.0 392.0 162.6L392.0 162.6L392.2 162.0L389.7 155.4L390.8 155.4L392.2 159.3Q392.4 159.9 392.6 160.5L392.6 160.5Q392.6 160.8 392.7 161.0L392.7 161.0Q392.8 160.8 392.8 160.5L392.8 160.5Q393.0 159.9 393.2 159.3L393.2 159.3L394.6 155.4L395.8 155.4L392.9 163.0Q392.7 163.5 392.4 163.8Q392.1 164.2 391.8 164.3Q391.4 164.5 390.9 164.5L390.9 164.5Q390.7 164.5 390.4 164.5Q390.2 164.4 390.2 164.4ZM400.4 162.2L400.4 162.2Q399.5 162.2 398.8 161.8Q398.1 161.5 397.7 161.0Q397.3 160.4 397.3 159.7L397.3 159.7L398.4 159.7Q398.5 160.2 398.7 160.5Q399.0 160.8 399.5 161.0Q399.9 161.2 400.4 161.2L400.4 161.2Q401.0 161.2 401.5 161.0Q402.0 160.8 402.2 160.4Q402.5 160.1 402.5 159.6L402.5 159.6Q402.5 159.2 402.3 158.9Q402.0 158.7 401.7 158.5Q401.3 158.3 400.8 158.2L400.8 158.2L399.7 157.9Q398.7 157.6 398.1 157.0Q397.5 156.5 397.5 155.6L397.5 155.6Q397.5 154.9 397.9 154.3Q398.3 153.8 399.0 153.5Q399.7 153.2 400.5 153.2L400.5 153.2Q401.4 153.2 402.0 153.5Q402.7 153.8 403.1 154.3Q403.5 154.8 403.5 155.5L403.5 155.5L402.4 155.5Q402.3 154.8 401.8 154.5Q401.3 154.1 400.5 154.1L400.5 154.1Q399.9 154.1 399.5 154.3Q399.1 154.5 398.8 154.8Q398.6 155.1 398.6 155.6L398.6 155.6Q398.6 156.0 398.9 156.3Q399.2 156.6 399.6 156.7Q399.9 156.9 400.3 157.0L400.3 157.0L401.1 157.2Q401.5 157.3 401.9 157.5Q402.3 157.6 402.7 157.9Q403.1 158.2 403.4 158.6Q403.6 159.0 403.6 159.6L403.6 159.6Q403.6 160.3 403.2 160.9Q402.9 161.5 402.2 161.8Q401.4 162.2 400.4 162.2ZM409.4 162.1L409.4 162.1Q408.3 162.1 407.4 161.6Q406.5 161.0 406.0 160.0Q405.5 159.0 405.5 157.6L405.5 157.6Q405.5 156.3 406.0 155.2Q406.5 154.2 407.4 153.7Q408.3 153.2 409.4 153.2Q410.5 153.2 411.4 153.7Q412.2 154.2 412.7 155.2Q413.2 156.3 413.2 157.6L413.2 157.6Q413.2 159.0 412.7 160.0L412.7 160.0Q412.3 160.8 411.7 161.3L411.7 161.3L412.8 162.8L411.7 162.8L410.9 161.8Q410.2 162.1 409.4 162.1ZM410.3 160.9L409.0 159.3L410.2 159.3L411.1 160.5Q411.5 160.1 411.8 159.5L411.8 159.5Q412.2 158.8 412.2 157.6L412.2 157.6Q412.2 156.5 411.8 155.7Q411.4 155.0 410.8 154.6Q410.2 154.2 409.4 154.2L409.4 154.2Q408.6 154.2 408.0 154.6Q407.3 155.0 407.0 155.8Q406.6 156.5 406.6 157.6L406.6 157.6Q406.6 158.8 407.0 159.5Q407.3 160.3 408.0 160.7Q408.6 161.1 409.4 161.1L409.4 161.1Q409.9 161.1 410.3 160.9L410.3 160.9ZM420.7 162L415.5 162L415.5 153.3L416.6 153.3L416.6 161.0L420.7 161.0L420.7 162Z "/></g></svg>